<?xml version="1.0" encoding="UTF-8" ?>
<!DOCTYPE svg PUBLIC "-//W3C//DTD SVG 1.1//EN" "http://www.w3.org/Graphics/SVG/1.1/DTD/svg11.dtd">
<svg width="560pt" height="90pt" viewBox="0 0 560 90" version="1.1" xmlns="http://www.w3.org/2000/svg">
<path fill="#ffffff" d=" M 0.00 0.00 L 560.00 0.00 L 560.00 90.00 L 0.00 90.00 L 0.00 0.00 Z" />
<path fill="#5283af" d=" M 36.38 4.65 C 45.73 2.95 55.65 4.47 63.98 9.07 C 74.57 14.79 82.47 25.27 84.95 37.06 C 87.46 48.41 84.99 60.76 78.23 70.22 C 71.16 80.35 59.44 87.08 47.10 87.90 C 36.72 88.74 26.10 85.49 17.96 79.00 C 9.08 72.04 3.20 61.36 2.18 50.11 C 1.16 40.13 3.87 29.82 9.72 21.67 C 15.96 12.82 25.73 6.56 36.38 4.65 Z" />
<path fill="#ffffff" d=" M 36.36 13.43 C 52.58 9.26 70.67 19.43 75.61 35.41 C 81.34 51.36 72.64 70.62 56.86 76.82 C 41.76 83.59 22.41 76.84 14.73 62.20 C 6.42 47.91 10.97 27.95 24.67 18.69 C 28.18 16.21 32.17 14.41 36.36 13.43 Z" />
<path fill="#eb7c19" d=" M 32.78 23.24 C 36.34 21.16 39.92 19.09 43.49 17.04 C 46.25 21.82 49.01 26.59 51.75 31.37 C 50.14 34.16 48.54 36.96 46.91 39.74 C 45.30 39.57 43.68 39.43 42.07 39.30 C 38.92 33.97 35.87 28.59 32.78 23.24 Z" />
<path fill="#5283af" d=" M 92.62 22.69 C 99.41 22.73 106.19 22.59 112.98 22.75 C 117.51 22.85 122.41 23.94 125.57 27.44 C 131.55 33.81 130.50 45.20 123.44 50.38 C 118.71 54.18 112.28 53.28 106.63 53.38 C 106.63 56.25 106.63 59.12 106.63 61.99 C 108.34 62.00 110.05 62.00 111.76 62.01 C 111.75 64.53 111.75 67.05 111.75 69.56 C 105.37 69.56 99.00 69.57 92.62 69.56 C 92.63 67.04 92.63 64.53 92.62 62.01 C 94.29 62.00 95.96 61.99 97.63 61.99 C 97.62 51.41 97.63 40.84 97.62 30.26 C 95.96 30.25 94.29 30.25 92.62 30.24 C 92.63 27.72 92.63 25.21 92.62 22.69 Z" />
<path fill="#5283af" d=" M 137.25 22.69 C 139.94 22.69 142.62 22.69 145.31 22.69 C 145.31 25.52 145.31 28.35 145.31 31.19 C 142.62 31.19 139.94 31.19 137.25 31.19 C 137.25 28.35 137.25 25.52 137.25 22.69 Z" />
<path fill="#5283af" d=" M 232.00 22.69 C 234.69 22.69 237.37 22.69 240.06 22.69 C 240.05 26.63 240.08 30.56 240.06 34.50 C 242.04 34.49 244.01 34.50 245.99 34.50 C 245.99 37.00 245.99 39.50 246.01 42.00 C 244.02 42.00 242.04 42.00 240.06 42.01 C 240.06 48.67 240.06 55.33 240.06 61.99 C 242.19 62.00 244.31 62.00 246.44 62.01 C 246.43 64.52 246.43 67.04 246.44 69.56 C 241.63 69.57 236.82 69.56 232.01 69.57 C 231.99 60.38 232.00 51.19 232.00 42.00 C 230.16 42.00 228.33 42.00 226.50 41.99 C 226.50 39.50 226.50 37.00 226.50 34.51 C 228.33 34.51 230.16 34.50 232.00 34.49 C 231.99 30.56 232.01 26.62 232.00 22.69 Z" />
<path fill="#5283af" d=" M 295.12 22.69 C 299.30 22.69 303.49 22.68 307.67 22.68 C 307.71 35.78 307.68 48.89 307.69 61.99 C 309.21 61.99 310.73 62.00 312.25 62.01 C 312.24 64.53 312.24 67.04 312.25 69.56 C 306.44 69.57 300.62 69.57 294.81 69.56 C 294.81 67.04 294.81 64.53 294.81 62.01 C 296.43 62.00 298.06 61.99 299.69 61.99 C 299.68 51.41 299.69 40.83 299.69 30.26 C 298.16 30.25 296.64 30.25 295.12 30.24 C 295.12 27.72 295.12 25.21 295.12 22.69 Z" />
<path fill="#eb7c19" d=" M 313.44 37.50 C 313.43 32.56 313.43 27.63 313.44 22.69 C 325.73 22.69 338.02 22.68 350.31 22.69 C 350.31 27.63 350.31 32.56 350.31 37.50 C 347.93 37.50 345.56 37.50 343.19 37.50 C 343.18 35.23 343.17 32.96 343.18 30.69 C 340.91 30.70 338.64 30.69 336.38 30.69 C 336.37 41.12 336.38 51.55 336.37 61.99 C 338.08 62.00 339.79 62.00 341.51 62.01 C 341.50 64.53 341.50 67.04 341.50 69.56 C 335.10 69.57 328.71 69.57 322.31 69.56 C 322.31 67.04 322.31 64.53 322.30 62.01 C 324.01 62.00 325.72 62.00 327.44 61.99 C 327.43 51.56 327.44 41.12 327.43 30.69 C 325.16 30.70 322.90 30.70 320.63 30.69 C 320.62 32.96 320.62 35.23 320.62 37.50 C 318.22 37.50 315.83 37.50 313.44 37.50 Z" />
<path fill="#eb7c19" d=" M 459.50 30.25 C 459.50 27.73 459.50 25.21 459.50 22.69 C 463.71 22.68 467.91 22.69 472.12 22.69 C 472.13 31.82 472.12 40.95 472.13 50.08 C 475.07 47.15 478.01 44.20 480.96 41.27 C 479.78 41.26 478.60 41.25 477.43 41.23 C 477.44 38.99 477.44 36.74 477.43 34.50 C 483.20 34.50 488.98 34.50 494.75 34.50 C 494.74 36.99 494.75 39.49 494.76 41.98 C 493.32 42.00 491.89 42.01 490.46 42.03 C 487.28 45.14 484.08 48.21 480.90 51.31 C 484.28 54.88 487.66 58.45 491.06 62.00 C 492.89 62.00 494.73 62.01 496.57 62.00 C 496.56 64.52 496.56 67.04 496.56 69.56 C 490.19 69.57 483.81 69.57 477.44 69.56 C 477.43 67.06 477.43 64.55 477.42 62.05 C 478.14 62.02 479.57 61.97 480.29 61.94 C 477.55 58.96 474.84 55.96 472.13 52.96 C 472.12 58.50 472.13 64.03 472.12 69.56 C 467.91 69.57 463.70 69.57 459.50 69.56 C 459.50 67.04 459.50 64.53 459.49 62.01 C 461.03 62.00 462.57 62.00 464.12 61.99 C 464.12 51.41 464.12 40.84 464.12 30.26 C 462.57 30.25 461.03 30.25 459.50 30.25 Z" />
<path fill="#eb7c19" d=" M 58.04 24.94 C 61.62 27.00 65.19 29.06 68.76 31.14 C 66.01 35.91 63.27 40.68 60.50 45.44 C 57.29 45.45 54.08 45.44 50.87 45.43 C 50.17 43.96 49.47 42.50 48.78 41.03 C 51.82 35.64 54.95 30.30 58.04 24.94 Z" />
<path fill="#ffffff" d=" M 106.63 30.87 C 110.47 31.07 115.03 30.06 118.16 32.87 C 122.00 36.10 120.69 43.25 115.88 44.79 C 112.86 45.51 109.71 45.21 106.63 45.25 C 106.63 40.46 106.63 35.67 106.63 30.87 Z" />
<path fill="#eb7c19" d=" M 18.69 31.94 C 24.20 31.94 29.70 31.94 35.21 31.94 C 36.81 34.71 38.42 37.47 40.00 40.26 C 39.05 41.60 38.11 42.94 37.18 44.29 C 31.02 44.34 24.85 44.30 18.69 44.31 C 18.68 40.19 18.68 36.06 18.69 31.94 Z" />
<path fill="#5283af" d=" M 132.75 34.50 C 136.94 34.49 141.12 34.50 145.31 34.51 C 145.31 43.67 145.31 52.83 145.31 61.99 C 146.81 61.99 148.32 62.00 149.82 62.01 C 149.81 64.53 149.81 67.05 149.81 69.57 C 144.10 69.56 138.39 69.57 132.68 69.56 C 132.69 67.04 132.69 64.53 132.69 62.01 C 134.21 62.00 135.73 61.99 137.25 61.99 C 137.25 55.33 137.25 48.67 137.25 42.01 C 135.75 42.00 134.25 42.00 132.75 41.99 C 132.75 39.49 132.75 37.00 132.75 34.50 Z" />
<path fill="#5283af" d=" M 150.44 34.50 C 155.89 34.50 161.35 34.50 166.81 34.50 C 166.81 36.99 166.81 39.48 166.82 41.98 C 165.64 41.99 164.45 42.01 163.27 42.02 C 165.41 47.89 167.52 53.78 169.67 59.65 C 171.96 53.78 174.24 47.90 176.52 42.02 C 175.59 42.01 173.74 41.99 172.81 41.98 C 172.81 39.49 172.81 37.00 172.81 34.50 C 178.21 34.49 183.60 34.50 189.00 34.50 C 188.99 37.00 188.99 39.49 189.00 41.99 C 187.62 42.00 186.25 42.00 184.88 42.01 C 181.19 51.19 177.54 60.39 173.85 69.57 C 171.04 69.57 168.22 69.56 165.41 69.56 C 161.83 60.38 158.25 51.20 154.67 42.02 C 153.26 42.00 151.84 41.99 150.43 41.98 C 150.44 39.49 150.44 36.99 150.44 34.50 Z" />
<path fill="#5283af" d=" M 201.36 34.60 C 210.16 31.20 220.96 35.85 224.53 44.58 C 227.64 51.49 225.91 60.22 220.34 65.39 C 214.60 71.03 205.04 72.09 198.19 67.87 C 192.10 64.34 188.48 57.11 189.27 50.11 C 189.88 43.18 194.80 36.90 201.36 34.60 Z" />
<path fill="#5283af" d=" M 249.07 48.00 C 250.93 38.82 260.65 31.93 269.94 33.90 C 273.24 34.47 275.75 36.81 277.90 39.20 C 277.85 37.64 277.81 36.07 277.79 34.50 C 281.98 34.49 286.18 34.49 290.38 34.50 C 290.37 37.00 290.37 39.49 290.38 41.99 C 288.92 41.99 287.46 42.00 286.00 42.01 C 286.00 48.67 286.00 55.33 286.00 61.99 C 287.46 62.00 288.92 62.00 290.38 62.01 C 290.37 64.53 290.37 67.04 290.38 69.56 C 286.18 69.57 281.98 69.57 277.78 69.55 C 277.81 68.44 277.89 66.21 277.92 65.09 C 273.42 70.99 264.76 71.92 258.46 68.53 C 251.12 64.87 247.08 55.94 249.07 48.00 Z" />
<path fill="#eb7c19" d=" M 353.69 34.50 C 357.67 34.50 361.66 34.49 365.64 34.50 C 365.61 36.36 365.57 38.23 365.54 40.09 C 367.86 36.40 371.84 34.34 376.11 33.95 C 376.12 36.70 376.12 39.45 376.12 42.20 C 372.22 42.71 367.92 44.56 366.77 48.69 C 365.81 53.05 366.39 57.57 366.25 61.99 C 367.75 62.00 369.25 62.00 370.76 62.01 C 370.75 64.53 370.75 67.05 370.75 69.56 C 365.06 69.57 359.37 69.57 353.68 69.56 C 353.69 67.04 353.69 64.53 353.69 62.01 C 355.18 62.00 356.68 62.00 358.18 61.99 C 358.18 55.33 358.18 48.67 358.18 42.01 C 356.68 42.00 355.18 42.00 353.68 41.99 C 353.69 39.49 353.69 37.00 353.69 34.50 Z" />
<path fill="#eb7c19" d=" M 381.22 41.28 C 385.40 35.27 393.60 31.98 400.67 34.36 C 403.29 35.20 405.19 37.27 407.02 39.21 C 406.98 37.64 406.94 36.07 406.92 34.50 C 411.11 34.50 415.30 34.50 419.50 34.50 C 419.49 37.00 419.50 39.49 419.50 41.99 C 418.04 42.00 416.58 42.00 415.12 42.01 C 415.13 48.67 415.12 55.33 415.12 61.99 C 416.58 62.00 418.04 62.00 419.51 62.01 C 419.50 64.53 419.50 67.04 419.50 69.56 C 415.30 69.57 411.11 69.57 406.92 69.56 C 406.94 68.07 406.98 66.58 407.04 65.09 C 400.38 73.82 385.96 71.17 380.70 62.28 C 376.54 56.05 376.81 47.31 381.22 41.28 Z" />
<path fill="#eb7c19" d=" M 422.07 48.04 C 423.65 40.16 430.80 33.46 439.02 33.44 C 442.90 33.22 446.43 35.14 449.30 37.57 C 449.29 36.80 449.26 35.26 449.24 34.49 C 451.55 34.50 453.87 34.50 456.18 34.50 C 456.19 38.42 456.19 42.34 456.18 46.25 C 453.75 46.26 451.31 46.25 448.88 46.21 C 446.42 43.38 442.97 40.94 439.01 41.49 C 433.00 41.86 428.60 48.21 429.87 53.98 C 430.76 59.82 437.24 63.91 442.89 62.17 C 445.43 61.61 447.19 59.62 448.79 57.72 C 451.75 57.67 454.71 57.68 457.68 57.73 C 456.11 61.76 453.50 65.48 449.71 67.69 C 443.52 71.69 434.94 71.31 429.09 66.84 C 423.31 62.67 420.46 54.98 422.07 48.04 Z" />
<path fill="#eb7c19" d=" M 499.84 41.94 C 502.47 37.62 507.02 34.52 512.03 33.72 C 519.98 32.23 528.67 36.78 531.76 44.29 C 533.27 47.67 533.32 51.44 533.10 55.06 C 523.59 55.08 514.08 55.01 504.57 55.10 C 505.98 59.65 510.05 63.38 514.98 63.38 C 518.47 63.68 521.55 61.73 523.79 59.21 C 526.56 59.17 529.33 59.17 532.11 59.23 C 530.28 62.80 527.81 66.19 524.20 68.13 C 516.82 72.53 506.50 70.53 501.15 63.86 C 496.05 57.84 495.68 48.56 499.84 41.94 Z" />
<path fill="#eb7c19" d=" M 547.49 40.07 C 549.79 36.42 553.72 34.37 557.96 33.92 C 557.99 36.68 558.00 39.44 558.00 42.20 C 554.04 42.69 549.69 44.65 548.64 48.86 C 547.73 53.17 548.25 57.62 548.13 61.99 C 549.64 62.00 551.17 62.00 552.70 62.01 C 552.68 64.53 552.68 67.05 552.69 69.56 C 546.97 69.56 541.27 69.57 535.56 69.56 C 535.56 67.04 535.56 64.53 535.56 62.01 C 537.07 62.00 538.59 62.00 540.12 61.99 C 540.12 55.33 540.12 48.67 540.12 42.01 C 538.59 42.00 537.07 42.00 535.56 41.99 C 535.56 39.49 535.56 37.00 535.56 34.50 C 539.57 34.50 543.58 34.50 547.59 34.50 C 547.55 36.36 547.52 38.21 547.49 40.07 Z" />
<path fill="#ffffff" d=" M 504.49 48.83 C 506.07 44.00 510.75 40.05 516.03 40.73 C 520.70 41.04 524.37 44.58 525.98 48.80 C 518.82 48.94 511.65 48.89 504.49 48.83 Z" />
<path fill="#ffffff" d=" M 203.31 42.37 C 208.88 39.61 216.20 43.11 217.74 49.08 C 219.53 54.66 215.69 61.09 209.98 62.26 C 204.33 63.75 198.15 59.58 197.26 53.85 C 196.33 49.22 199.00 44.25 203.31 42.37 Z" />
<path fill="#ffffff" d=" M 263.32 42.29 C 269.54 39.33 277.60 44.22 277.88 51.09 C 278.50 57.14 273.15 62.97 267.02 62.61 C 260.76 62.58 255.61 56.06 257.14 49.96 C 257.81 46.61 260.17 43.63 263.32 42.29 Z" />
<path fill="#ffffff" d=" M 392.29 42.36 C 397.84 39.65 405.12 43.12 406.66 49.06 C 408.47 54.97 404.11 61.79 397.94 62.50 C 392.25 63.49 386.47 58.83 386.08 53.10 C 385.64 48.69 388.22 44.15 392.29 42.36 Z" />
<path fill="#eb7c19" d=" M 27.35 46.57 C 30.57 46.55 33.79 46.55 37.00 46.58 C 37.70 48.04 38.40 49.50 39.08 50.97 C 36.04 56.36 32.92 61.70 29.83 67.07 C 26.26 65.00 22.68 62.93 19.11 60.86 C 21.86 56.09 24.61 51.33 27.35 46.57 Z" />
<path fill="#eb7c19" d=" M 47.88 51.75 C 48.82 50.40 49.75 49.06 50.68 47.71 C 56.85 47.66 63.02 47.70 69.18 47.69 C 69.19 51.81 69.19 55.93 69.18 60.06 C 63.68 60.06 58.18 60.06 52.68 60.07 C 51.08 57.29 49.45 54.54 47.88 51.75 Z" />
<path fill="#eb7c19" d=" M 40.98 52.26 C 42.59 52.43 44.21 52.58 45.83 52.72 C 48.96 58.04 52.01 63.41 55.10 68.76 C 51.53 70.83 47.95 72.90 44.38 74.96 C 41.62 70.18 38.85 65.41 36.12 60.61 C 37.73 57.82 39.34 55.03 40.98 52.26 Z" />
</svg>
