  0
SECTION
  2
HEADER
  9
$ACADVER
  1
AC1009
  9
$EXTMIN
 10
0.0
 20
0.0
 30
0.0
  9
$EXTMAX
 10
1000.0
 20
1000.0
 30
0.0
  9
$FILLMODE
 70
 0
  9
$SPLFRAME
 70
 1
  0
ENDSEC
  0
SECTION
  2
TABLES
  0
TABLE
  2
LAYER
 70
1
  0
LAYER
  2
0
 70
     0
 62
     7
  6
CONTINUOUS
  0
ENDTAB
  0
ENDSEC
  0
SECTION
  2
ENTITIES
  0
LINE
  8
0
 62
     7
 10
0
 20
1.25
 30
0.0
 11
7.77778
 21
1.25
 31
0.0
  0
LINE
  8
0
 62
     7
 10
7.77778
 20
1.25
 30
0.0
 11
7.77778
 21
-0
 31
0.0
  0
LINE
  8
0
 62
     7
 10
7.77778
 20
-0
 30
0.0
 11
0
 21
-0
 31
0.0
  0
LINE
  8
0
 62
     7
 10
0
 20
-0
 30
0.0
 11
0
 21
1.25
 31
0.0
  0
LINE
  8
0
 62
     135
 10
0.505262
 20
1.18544
 30
0.0
 11
0.702203
 21
1.18755
 31
0.0
  0
LINE
  8
0
 62
     135
 10
0.702203
 20
1.18755
 30
0.0
 11
0.888618
 21
1.12402
 31
0.0
  0
LINE
  8
0
 62
     135
 10
0.888618
 20
1.12402
 30
0.0
 11
0.991319
 21
1.05284
 31
0.0
  0
LINE
  8
0
 62
     135
 10
0.991319
 20
1.05284
 30
0.0
 11
1.07644
 21
0.961317
 31
0.0
  0
LINE
  8
0
 62
     135
 10
1.07644
 20
0.961317
 30
0.0
 11
1.14046
 21
0.85395
 31
0.0
  0
LINE
  8
0
 62
     135
 10
1.14046
 20
0.85395
 30
0.0
 11
1.17985
 21
0.735297
 31
0.0
  0
LINE
  8
0
 62
     135
 10
1.17985
 20
0.735297
 30
0.0
 11
1.19314
 21
0.615343
 31
0.0
  0
LINE
  8
0
 62
     135
 10
1.19314
 20
0.615343
 30
0.0
 11
1.18142
 21
0.495171
 31
0.0
  0
LINE
  8
0
 62
     135
 10
1.18142
 20
0.495171
 30
0.0
 11
1.14562
 21
0.379992
 31
0.0
  0
LINE
  8
0
 62
     135
 10
1.14562
 20
0.379992
 30
0.0
 11
1.08653
 21
0.274739
 31
0.0
  0
LINE
  8
0
 62
     135
 10
1.08653
 20
0.274739
 30
0.0
 11
1.00163
 21
0.178603
 31
0.0
  0
LINE
  8
0
 62
     135
 10
1.00163
 20
0.178603
 30
0.0
 11
0.897786
 21
0.103461
 31
0.0
  0
LINE
  8
0
 62
     135
 10
0.897786
 20
0.103461
 30
0.0
 11
0.780219
 21
0.0525717
 31
0.0
  0
LINE
  8
0
 62
     135
 10
0.780219
 20
0.0525717
 30
0.0
 11
0.654189
 21
0.0291883
 31
0.0
  0
LINE
  8
0
 62
     135
 10
0.654189
 20
0.0291883
 30
0.0
 11
0.546007
 21
0.0309244
 31
0.0
  0
LINE
  8
0
 62
     135
 10
0.546007
 20
0.0309244
 30
0.0
 11
0.440104
 21
0.0528429
 31
0.0
  0
LINE
  8
0
 62
     135
 10
0.440104
 20
0.0528429
 30
0.0
 11
0.340115
 21
0.0938585
 31
0.0
  0
LINE
  8
0
 62
     135
 10
0.340115
 20
0.0938585
 30
0.0
 11
0.249457
 21
0.152778
 31
0.0
  0
LINE
  8
0
 62
     135
 10
0.249457
 20
0.152778
 30
0.0
 11
0.165147
 21
0.234321
 31
0.0
  0
LINE
  8
0
 62
     135
 10
0.165147
 20
0.234321
 30
0.0
 11
0.098904
 21
0.331108
 31
0.0
  0
LINE
  8
0
 62
     135
 10
0.098904
 20
0.331108
 30
0.0
 11
0.0531142
 21
0.439019
 31
0.0
  0
LINE
  8
0
 62
     135
 10
0.0531142
 20
0.439019
 30
0.0
 11
0.0302735
 21
0.554036
 31
0.0
  0
LINE
  8
0
 62
     135
 10
0.0302735
 20
0.554036
 30
0.0
 11
0.0291883
 21
0.658365
 31
0.0
  0
LINE
  8
0
 62
     135
 10
0.0291883
 20
0.658365
 30
0.0
 11
0.0468207
 21
0.761068
 31
0.0
  0
LINE
  8
0
 62
     135
 10
0.0468207
 20
0.761068
 30
0.0
 11
0.0823568
 21
0.85905
 31
0.0
  0
LINE
  8
0
 62
     135
 10
0.0823568
 20
0.85905
 30
0.0
 11
0.134983
 21
0.949001
 31
0.0
  0
LINE
  8
0
 62
     135
 10
0.134983
 20
0.949001
 30
0.0
 11
0.208604
 21
1.03413
 31
0.0
  0
LINE
  8
0
 62
     135
 10
0.208604
 20
1.03413
 30
0.0
 11
0.297146
 21
1.10341
 31
0.0
  0
LINE
  8
0
 62
     135
 10
0.297146
 20
1.10341
 30
0.0
 11
0.39719
 21
1.15462
 31
0.0
  0
LINE
  8
0
 62
     135
 10
0.39719
 20
1.15462
 30
0.0
 11
0.505262
 21
1.18544
 31
0.0
  0
LINE
  8
0
 62
     7
 10
0.504992
 20
1.06348
 30
0.0
 11
0.590224
 21
1.07612
 31
0.0
  0
LINE
  8
0
 62
     7
 10
0.590224
 20
1.07612
 30
0.0
 11
0.67551
 21
1.07145
 31
0.0
  0
LINE
  8
0
 62
     7
 10
0.67551
 20
1.07145
 30
0.0
 11
0.758356
 21
1.05089
 31
0.0
  0
LINE
  8
0
 62
     7
 10
0.758356
 20
1.05089
 30
0.0
 11
0.836317
 21
1.01579
 31
0.0
  0
LINE
  8
0
 62
     7
 10
0.836317
 20
1.01579
 30
0.0
 11
0.906901
 21
0.967611
 31
0.0
  0
LINE
  8
0
 62
     7
 10
0.906901
 20
0.967611
 30
0.0
 11
0.967665
 21
0.907715
 31
0.0
  0
LINE
  8
0
 62
     7
 10
0.967665
 20
0.907715
 30
0.0
 11
1.01622
 21
0.837457
 31
0.0
  0
LINE
  8
0
 62
     7
 10
1.01622
 20
0.837457
 30
0.0
 11
1.05013
 21
0.758192
 31
0.0
  0
LINE
  8
0
 62
     7
 10
1.05013
 20
0.758192
 30
0.0
 11
1.07075
 21
0.673449
 31
0.0
  0
LINE
  8
0
 62
     7
 10
1.07075
 20
0.673449
 30
0.0
 11
1.07384
 21
0.587022
 31
0.0
  0
LINE
  8
0
 62
     7
 10
1.07384
 20
0.587022
 30
0.0
 11
1.06049
 21
0.501574
 31
0.0
  0
LINE
  8
0
 62
     7
 10
1.06049
 20
0.501574
 30
0.0
 11
1.03196
 21
0.419868
 31
0.0
  0
LINE
  8
0
 62
     7
 10
1.03196
 20
0.419868
 30
0.0
 11
0.989367
 21
0.34451
 31
0.0
  0
LINE
  8
0
 62
     7
 10
0.989367
 20
0.34451
 30
0.0
 11
0.934028
 21
0.278103
 31
0.0
  0
LINE
  8
0
 62
     7
 10
0.934028
 20
0.278103
 30
0.0
 11
0.867079
 21
0.223415
 31
0.0
  0
LINE
  8
0
 62
     7
 10
0.867079
 20
0.223415
 30
0.0
 11
0.789714
 21
0.183051
 31
0.0
  0
LINE
  8
0
 62
     7
 10
0.789714
 20
0.183051
 30
0.0
 11
0.708713
 21
0.156467
 31
0.0
  0
LINE
  8
0
 62
     7
 10
0.708713
 20
0.156467
 30
0.0
 11
0.624783
 21
0.146539
 31
0.0
  0
LINE
  8
0
 62
     7
 10
0.624783
 20
0.146539
 30
0.0
 11
0.540528
 21
0.152399
 31
0.0
  0
LINE
  8
0
 62
     7
 10
0.540528
 20
0.152399
 30
0.0
 11
0.458496
 21
0.173122
 31
0.0
  0
LINE
  8
0
 62
     7
 10
0.458496
 20
0.173122
 30
0.0
 11
0.381293
 21
0.207736
 31
0.0
  0
LINE
  8
0
 62
     7
 10
0.381293
 20
0.207736
 30
0.0
 11
0.311524
 21
0.255425
 31
0.0
  0
LINE
  8
0
 62
     7
 10
0.311524
 20
0.255425
 30
0.0
 11
0.251736
 21
0.315212
 31
0.0
  0
LINE
  8
0
 62
     7
 10
0.251736
 20
0.315212
 30
0.0
 11
0.20459
 21
0.386122
 31
0.0
  0
LINE
  8
0
 62
     7
 10
0.20459
 20
0.386122
 30
0.0
 11
0.169542
 21
0.463813
 31
0.0
  0
LINE
  8
0
 62
     7
 10
0.169542
 20
0.463813
 30
0.0
 11
0.150717
 21
0.546224
 31
0.0
  0
LINE
  8
0
 62
     7
 10
0.150717
 20
0.546224
 30
0.0
 11
0.147353
 21
0.630642
 31
0.0
  0
LINE
  8
0
 62
     7
 10
0.147353
 20
0.630642
 30
0.0
 11
0.158963
 21
0.714464
 31
0.0
  0
LINE
  8
0
 62
     7
 10
0.158963
 20
0.714464
 30
0.0
 11
0.184896
 21
0.795031
 31
0.0
  0
LINE
  8
0
 62
     7
 10
0.184896
 20
0.795031
 30
0.0
 11
0.224556
 21
0.869683
 31
0.0
  0
LINE
  8
0
 62
     7
 10
0.224556
 20
0.869683
 30
0.0
 11
0.277344
 21
0.935656
 31
0.0
  0
LINE
  8
0
 62
     7
 10
0.277344
 20
0.935656
 30
0.0
 11
0.342665
 21
0.990397
 31
0.0
  0
LINE
  8
0
 62
     7
 10
0.342665
 20
0.990397
 30
0.0
 11
0.420247
 21
1.03478
 31
0.0
  0
LINE
  8
0
 62
     7
 10
0.420247
 20
1.03478
 30
0.0
 11
0.504992
 21
1.06348
 31
0.0
  0
LINE
  8
0
 62
     30
 10
0.455294
 20
0.927246
 30
0.0
 11
0.604004
 21
1.01335
 31
0.0
  0
LINE
  8
0
 62
     30
 10
0.604004
 20
1.01335
 30
0.0
 11
0.71875
 21
0.81429
 31
0.0
  0
LINE
  8
0
 62
     30
 10
0.71875
 20
0.81429
 30
0.0
 11
0.651531
 21
0.698079
 31
0.0
  0
LINE
  8
0
 62
     30
 10
0.651531
 20
0.698079
 30
0.0
 11
0.58431
 21
0.704156
 31
0.0
  0
LINE
  8
0
 62
     30
 10
0.58431
 20
0.704156
 30
0.0
 11
0.455294
 21
0.927246
 31
0.0
  0
LINE
  8
0
 62
     135
 10
1.2864
 20
0.934842
 30
0.0
 11
1.56917
 21
0.934028
 31
0.0
  0
LINE
  8
0
 62
     135
 10
1.56917
 20
0.934028
 30
0.0
 11
1.61686
 21
0.930122
 31
0.0
  0
LINE
  8
0
 62
     135
 10
1.61686
 20
0.930122
 30
0.0
 11
1.66374
 21
0.919163
 31
0.0
  0
LINE
  8
0
 62
     135
 10
1.66374
 20
0.919163
 30
0.0
 11
1.70703
 21
0.89936
 31
0.0
  0
LINE
  8
0
 62
     135
 10
1.70703
 20
0.89936
 30
0.0
 11
1.74403
 21
0.868869
 31
0.0
  0
LINE
  8
0
 62
     135
 10
1.74403
 20
0.868869
 30
0.0
 11
1.78819
 21
0.791938
 31
0.0
  0
LINE
  8
0
 62
     135
 10
1.78819
 20
0.791938
 30
0.0
 11
1.79715
 21
0.703396
 31
0.0
  0
LINE
  8
0
 62
     135
 10
1.79715
 20
0.703396
 30
0.0
 11
1.77208
 21
0.618001
 31
0.0
  0
LINE
  8
0
 62
     135
 10
1.77208
 20
0.618001
 30
0.0
 11
1.71446
 21
0.550293
 31
0.0
  0
LINE
  8
0
 62
     135
 10
1.71446
 20
0.550293
 30
0.0
 11
1.66129
 21
0.521756
 31
0.0
  0
LINE
  8
0
 62
     135
 10
1.66129
 20
0.521756
 30
0.0
 11
1.60249
 21
0.5102
 31
0.0
  0
LINE
  8
0
 62
     135
 10
1.60249
 20
0.5102
 30
0.0
 11
1.54129
 21
0.508301
 31
0.0
  0
LINE
  8
0
 62
     135
 10
1.54129
 20
0.508301
 30
0.0
 11
1.48096
 21
0.508626
 31
0.0
  0
LINE
  8
0
 62
     135
 10
1.48096
 20
0.508626
 30
0.0
 11
1.48096
 21
0.389051
 31
0.0
  0
LINE
  8
0
 62
     135
 10
1.48096
 20
0.389051
 30
0.0
 11
1.55225
 21
0.388726
 31
0.0
  0
LINE
  8
0
 62
     135
 10
1.55225
 20
0.388726
 30
0.0
 11
1.55208
 21
0.283908
 31
0.0
  0
LINE
  8
0
 62
     135
 10
1.55208
 20
0.283908
 30
0.0
 11
1.2864
 21
0.283908
 31
0.0
  0
LINE
  8
0
 62
     135
 10
1.2864
 20
0.283908
 30
0.0
 11
1.2864
 21
0.388726
 31
0.0
  0
LINE
  8
0
 62
     135
 10
1.2864
 20
0.388726
 30
0.0
 11
1.35596
 21
0.389051
 31
0.0
  0
LINE
  8
0
 62
     135
 10
1.35596
 20
0.389051
 30
0.0
 11
1.35585
 21
0.829699
 31
0.0
  0
LINE
  8
0
 62
     135
 10
1.35585
 20
0.829699
 30
0.0
 11
1.2864
 21
0.830024
 31
0.0
  0
LINE
  8
0
 62
     135
 10
1.2864
 20
0.830024
 30
0.0
 11
1.2864
 21
0.934842
 31
0.0
  0
LINE
  8
0
 62
     135
 10
1.90625
 20
0.934842
 30
0.0
 11
2.01818
 21
0.934842
 31
0.0
  0
LINE
  8
0
 62
     135
 10
2.01818
 20
0.934842
 30
0.0
 11
2.01818
 21
0.816786
 31
0.0
  0
LINE
  8
0
 62
     135
 10
2.01818
 20
0.816786
 30
0.0
 11
1.90625
 21
0.816786
 31
0.0
  0
LINE
  8
0
 62
     135
 10
1.90625
 20
0.816786
 30
0.0
 11
1.90625
 21
0.934842
 31
0.0
  0
LINE
  8
0
 62
     135
 10
3.22222
 20
0.934842
 30
0.0
 11
3.33415
 21
0.934842
 31
0.0
  0
LINE
  8
0
 62
     135
 10
3.33415
 20
0.934842
 30
0.0
 11
3.33415
 21
0.770833
 31
0.0
  0
LINE
  8
0
 62
     135
 10
3.33415
 20
0.770833
 30
0.0
 11
3.4165
 21
0.770833
 31
0.0
  0
LINE
  8
0
 62
     135
 10
3.4165
 20
0.770833
 30
0.0
 11
3.41683
 21
0.666667
 31
0.0
  0
LINE
  8
0
 62
     135
 10
3.41683
 20
0.666667
 30
0.0
 11
3.33415
 21
0.666504
 31
0.0
  0
LINE
  8
0
 62
     135
 10
3.33415
 20
0.666504
 30
0.0
 11
3.33415
 21
0.389051
 31
0.0
  0
LINE
  8
0
 62
     135
 10
3.33415
 20
0.389051
 30
0.0
 11
3.42279
 21
0.388726
 31
0.0
  0
LINE
  8
0
 62
     135
 10
3.42279
 20
0.388726
 30
0.0
 11
3.42279
 21
0.283908
 31
0.0
  0
LINE
  8
0
 62
     135
 10
3.42279
 20
0.283908
 30
0.0
 11
3.22239
 21
0.283746
 31
0.0
  0
LINE
  8
0
 62
     135
 10
3.22239
 20
0.283746
 30
0.0
 11
3.22222
 21
0.666667
 31
0.0
  0
LINE
  8
0
 62
     135
 10
3.22222
 20
0.666667
 30
0.0
 11
3.14583
 21
0.666829
 31
0.0
  0
LINE
  8
0
 62
     135
 10
3.14583
 20
0.666829
 30
0.0
 11
3.14583
 21
0.770671
 31
0.0
  0
LINE
  8
0
 62
     135
 10
3.14583
 20
0.770671
 30
0.0
 11
3.22222
 21
0.770996
 31
0.0
  0
LINE
  8
0
 62
     135
 10
3.22222
 20
0.770996
 30
0.0
 11
3.22222
 21
0.934842
 31
0.0
  0
LINE
  8
0
 62
     135
 10
4.0989
 20
0.934842
 30
0.0
 11
4.27322
 21
0.935004
 31
0.0
  0
LINE
  8
0
 62
     135
 10
4.27322
 20
0.935004
 30
0.0
 11
4.27349
 21
0.389051
 31
0.0
  0
LINE
  8
0
 62
     135
 10
4.27349
 20
0.389051
 30
0.0
 11
4.33681
 21
0.388726
 31
0.0
  0
LINE
  8
0
 62
     135
 10
4.33681
 20
0.388726
 30
0.0
 11
4.33681
 21
0.283908
 31
0.0
  0
LINE
  8
0
 62
     135
 10
4.33681
 20
0.283908
 30
0.0
 11
4.09457
 21
0.283908
 31
0.0
  0
LINE
  8
0
 62
     135
 10
4.09457
 20
0.283908
 30
0.0
 11
4.09457
 21
0.388726
 31
0.0
  0
LINE
  8
0
 62
     135
 10
4.09457
 20
0.388726
 30
0.0
 11
4.16238
 21
0.389051
 31
0.0
  0
LINE
  8
0
 62
     135
 10
4.16238
 20
0.389051
 30
0.0
 11
4.16238
 21
0.829699
 31
0.0
  0
LINE
  8
0
 62
     135
 10
4.16238
 20
0.829699
 30
0.0
 11
4.0989
 21
0.830024
 31
0.0
  0
LINE
  8
0
 62
     135
 10
4.0989
 20
0.830024
 30
0.0
 11
4.0989
 21
0.934842
 31
0.0
  0
LINE
  8
0
 62
     30
 10
4.35335
 20
0.729167
 30
0.0
 11
4.35335
 21
0.934842
 31
0.0
  0
LINE
  8
0
 62
     30
 10
4.35335
 20
0.934842
 30
0.0
 11
4.8654
 21
0.934842
 31
0.0
  0
LINE
  8
0
 62
     30
 10
4.8654
 20
0.934842
 30
0.0
 11
4.8654
 21
0.729167
 31
0.0
  0
LINE
  8
0
 62
     30
 10
4.8654
 20
0.729167
 30
0.0
 11
4.76654
 21
0.729167
 31
0.0
  0
LINE
  8
0
 62
     30
 10
4.76654
 20
0.729167
 30
0.0
 11
4.76639
 21
0.823731
 31
0.0
  0
LINE
  8
0
 62
     30
 10
4.76639
 20
0.823731
 30
0.0
 11
4.67193
 21
0.823731
 31
0.0
  0
LINE
  8
0
 62
     30
 10
4.67193
 20
0.823731
 30
0.0
 11
4.67182
 21
0.389051
 31
0.0
  0
LINE
  8
0
 62
     30
 10
4.67182
 20
0.389051
 30
0.0
 11
4.74322
 21
0.388726
 31
0.0
  0
LINE
  8
0
 62
     30
 10
4.74322
 20
0.388726
 30
0.0
 11
4.74306
 21
0.283908
 31
0.0
  0
LINE
  8
0
 62
     30
 10
4.74306
 20
0.283908
 30
0.0
 11
4.47651
 21
0.283908
 31
0.0
  0
LINE
  8
0
 62
     30
 10
4.47651
 20
0.283908
 30
0.0
 11
4.4764
 21
0.388726
 31
0.0
  0
LINE
  8
0
 62
     30
 10
4.4764
 20
0.388726
 30
0.0
 11
4.54779
 21
0.389051
 31
0.0
  0
LINE
  8
0
 62
     30
 10
4.54779
 20
0.389051
 30
0.0
 11
4.54764
 21
0.823731
 31
0.0
  0
LINE
  8
0
 62
     30
 10
4.54764
 20
0.823731
 30
0.0
 11
4.45318
 21
0.823731
 31
0.0
  0
LINE
  8
0
 62
     30
 10
4.45318
 20
0.823731
 30
0.0
 11
4.45307
 21
0.729167
 31
0.0
  0
LINE
  8
0
 62
     30
 10
4.45307
 20
0.729167
 30
0.0
 11
4.35335
 21
0.729167
 31
0.0
  0
LINE
  8
0
 62
     30
 10
6.38194
 20
0.829861
 30
0.0
 11
6.38194
 21
0.934842
 31
0.0
  0
LINE
  8
0
 62
     30
 10
6.38194
 20
0.934842
 30
0.0
 11
6.55724
 21
0.934842
 31
0.0
  0
LINE
  8
0
 62
     30
 10
6.55724
 20
0.934842
 30
0.0
 11
6.55735
 21
0.554471
 31
0.0
  0
LINE
  8
0
 62
     30
 10
6.55735
 20
0.554471
 30
0.0
 11
6.68001
 21
0.676812
 31
0.0
  0
LINE
  8
0
 62
     30
 10
6.68001
 20
0.676812
 30
0.0
 11
6.63097
 21
0.677354
 31
0.0
  0
LINE
  8
0
 62
     30
 10
6.63097
 20
0.677354
 30
0.0
 11
6.63097
 21
0.770833
 31
0.0
  0
LINE
  8
0
 62
     30
 10
6.63097
 20
0.770833
 30
0.0
 11
6.87153
 21
0.770833
 31
0.0
  0
LINE
  8
0
 62
     30
 10
6.87153
 20
0.770833
 30
0.0
 11
6.87169
 21
0.666938
 31
0.0
  0
LINE
  8
0
 62
     30
 10
6.87169
 20
0.666938
 30
0.0
 11
6.81196
 21
0.666233
 31
0.0
  0
LINE
  8
0
 62
     30
 10
6.81196
 20
0.666233
 30
0.0
 11
6.67914
 21
0.537381
 31
0.0
  0
LINE
  8
0
 62
     30
 10
6.67914
 20
0.537381
 30
0.0
 11
6.82026
 21
0.388889
 31
0.0
  0
LINE
  8
0
 62
     30
 10
6.82026
 20
0.388889
 30
0.0
 11
6.89681
 21
0.388889
 31
0.0
  0
LINE
  8
0
 62
     30
 10
6.89681
 20
0.388889
 30
0.0
 11
6.89665
 21
0.283908
 31
0.0
  0
LINE
  8
0
 62
     30
 10
6.89665
 20
0.283908
 30
0.0
 11
6.63113
 21
0.283908
 31
0.0
  0
LINE
  8
0
 62
     30
 10
6.63113
 20
0.283908
 30
0.0
 11
6.63086
 21
0.388183
 31
0.0
  0
LINE
  8
0
 62
     30
 10
6.63086
 20
0.388183
 30
0.0
 11
6.65076
 21
0.388997
 31
0.0
  0
LINE
  8
0
 62
     30
 10
6.65076
 20
0.388997
 30
0.0
 11
6.67068
 21
0.389703
 31
0.0
  0
LINE
  8
0
 62
     30
 10
6.67068
 20
0.389703
 30
0.0
 11
6.55735
 21
0.514432
 31
0.0
  0
LINE
  8
0
 62
     30
 10
6.55735
 20
0.514432
 30
0.0
 11
6.55724
 21
0.283908
 31
0.0
  0
LINE
  8
0
 62
     30
 10
6.55724
 20
0.283908
 30
0.0
 11
6.38194
 21
0.283908
 31
0.0
  0
LINE
  8
0
 62
     30
 10
6.38194
 20
0.283908
 30
0.0
 11
6.38178
 21
0.388726
 31
0.0
  0
LINE
  8
0
 62
     30
 10
6.38178
 20
0.388726
 30
0.0
 11
6.44613
 21
0.389051
 31
0.0
  0
LINE
  8
0
 62
     30
 10
6.44613
 20
0.389051
 30
0.0
 11
6.44613
 21
0.829699
 31
0.0
  0
LINE
  8
0
 62
     30
 10
6.44613
 20
0.829699
 30
0.0
 11
6.38194
 21
0.829861
 31
0.0
  0
LINE
  8
0
 62
     30
 10
0.806099
 20
0.903592
 30
0.0
 11
0.955024
 21
0.817492
 31
0.0
  0
LINE
  8
0
 62
     30
 10
0.955024
 20
0.817492
 30
0.0
 11
0.840278
 21
0.618869
 31
0.0
  0
LINE
  8
0
 62
     30
 10
0.840278
 20
0.618869
 30
0.0
 11
0.706543
 21
0.619032
 31
0.0
  0
LINE
  8
0
 62
     30
 10
0.706543
 20
0.619032
 30
0.0
 11
0.677517
 21
0.680122
 31
0.0
  0
LINE
  8
0
 62
     30
 10
0.677517
 20
0.680122
 30
0.0
 11
0.806099
 21
0.903592
 31
0.0
  0
LINE
  8
0
 62
     7
 10
1.48096
 20
0.821235
 30
0.0
 11
1.52235
 21
0.821235
 31
0.0
  0
LINE
  8
0
 62
     7
 10
1.52235
 20
0.821235
 30
0.0
 11
1.56472
 21
0.820964
 31
0.0
  0
LINE
  8
0
 62
     7
 10
1.56472
 20
0.820964
 30
0.0
 11
1.60525
 21
0.813911
 31
0.0
  0
LINE
  8
0
 62
     7
 10
1.60525
 20
0.813911
 30
0.0
 11
1.64111
 21
0.793457
 31
0.0
  0
LINE
  8
0
 62
     7
 10
1.64111
 20
0.793457
 30
0.0
 11
1.65776
 21
0.77436
 31
0.0
  0
LINE
  8
0
 62
     7
 10
1.65776
 20
0.77436
 30
0.0
 11
1.66803
 21
0.751682
 31
0.0
  0
LINE
  8
0
 62
     7
 10
1.66803
 20
0.751682
 30
0.0
 11
1.67215
 21
0.727051
 31
0.0
  0
LINE
  8
0
 62
     7
 10
1.67215
 20
0.727051
 30
0.0
 11
1.67031
 21
0.701932
 31
0.0
  0
LINE
  8
0
 62
     7
 10
1.67031
 20
0.701932
 30
0.0
 11
1.66287
 21
0.677897
 31
0.0
  0
LINE
  8
0
 62
     7
 10
1.66287
 20
0.677897
 30
0.0
 11
1.65007
 21
0.656521
 31
0.0
  0
LINE
  8
0
 62
     7
 10
1.65007
 20
0.656521
 30
0.0
 11
1.63217
 21
0.639378
 31
0.0
  0
LINE
  8
0
 62
     7
 10
1.63217
 20
0.639378
 30
0.0
 11
1.60943
 21
0.627929
 31
0.0
  0
LINE
  8
0
 62
     7
 10
1.60943
 20
0.627929
 30
0.0
 11
1.54551
 21
0.621203
 31
0.0
  0
LINE
  8
0
 62
     7
 10
1.54551
 20
0.621203
 30
0.0
 11
1.48096
 21
0.621528
 31
0.0
  0
LINE
  8
0
 62
     7
 10
1.48096
 20
0.621528
 30
0.0
 11
1.48096
 21
0.821235
 31
0.0
  0
LINE
  8
0
 62
     30
 10
0.259603
 20
0.806369
 30
0.0
 11
0.48904
 21
0.806369
 31
0.0
  0
LINE
  8
0
 62
     30
 10
0.48904
 20
0.806369
 30
0.0
 11
0.555556
 21
0.69081
 31
0.0
  0
LINE
  8
0
 62
     30
 10
0.555556
 20
0.69081
 30
0.0
 11
0.516385
 21
0.634874
 31
0.0
  0
LINE
  8
0
 62
     30
 10
0.516385
 20
0.634874
 30
0.0
 11
0.259603
 21
0.634603
 31
0.0
  0
LINE
  8
0
 62
     30
 10
0.259603
 20
0.634603
 30
0.0
 11
0.259603
 21
0.806369
 31
0.0
  0
LINE
  8
0
 62
     135
 10
1.84375
 20
0.770833
 30
0.0
 11
2.01818
 21
0.770671
 31
0.0
  0
LINE
  8
0
 62
     135
 10
2.01818
 20
0.770671
 30
0.0
 11
2.01818
 21
0.389051
 31
0.0
  0
LINE
  8
0
 62
     135
 10
2.01818
 20
0.389051
 30
0.0
 11
2.08083
 21
0.388726
 31
0.0
  0
LINE
  8
0
 62
     135
 10
2.08083
 20
0.388726
 30
0.0
 11
2.08068
 21
0.283746
 31
0.0
  0
LINE
  8
0
 62
     135
 10
2.08068
 20
0.283746
 30
0.0
 11
1.84278
 21
0.283908
 31
0.0
  0
LINE
  8
0
 62
     135
 10
1.84278
 20
0.283908
 30
0.0
 11
1.84293
 21
0.388726
 31
0.0
  0
LINE
  8
0
 62
     135
 10
1.84293
 20
0.388726
 30
0.0
 11
1.90625
 21
0.389051
 31
0.0
  0
LINE
  8
0
 62
     135
 10
1.90625
 20
0.389051
 30
0.0
 11
1.90625
 21
0.666504
 31
0.0
  0
LINE
  8
0
 62
     135
 10
1.90625
 20
0.666504
 30
0.0
 11
1.84375
 21
0.666829
 31
0.0
  0
LINE
  8
0
 62
     135
 10
1.84375
 20
0.666829
 30
0.0
 11
1.84375
 21
0.770833
 31
0.0
  0
LINE
  8
0
 62
     135
 10
2.08946
 20
0.770833
 30
0.0
 11
2.31679
 21
0.770833
 31
0.0
  0
LINE
  8
0
 62
     135
 10
2.31679
 20
0.770833
 30
0.0
 11
2.31694
 21
0.666938
 31
0.0
  0
LINE
  8
0
 62
     135
 10
2.31694
 20
0.666938
 30
0.0
 11
2.26764
 21
0.666396
 31
0.0
  0
LINE
  8
0
 62
     135
 10
2.26764
 20
0.666396
 30
0.0
 11
2.35656
 21
0.42155
 31
0.0
  0
LINE
  8
0
 62
     135
 10
2.35656
 20
0.42155
 30
0.0
 11
2.45167
 21
0.666396
 31
0.0
  0
LINE
  8
0
 62
     135
 10
2.45167
 20
0.666396
 30
0.0
 11
2.42589
 21
0.666667
 31
0.0
  0
LINE
  8
0
 62
     135
 10
2.42589
 20
0.666667
 30
0.0
 11
2.40013
 21
0.666938
 31
0.0
  0
LINE
  8
0
 62
     135
 10
2.40013
 20
0.666938
 30
0.0
 11
2.40013
 21
0.770833
 31
0.0
  0
LINE
  8
0
 62
     135
 10
2.40013
 20
0.770833
 30
0.0
 11
2.625
 21
0.770833
 31
0.0
  0
LINE
  8
0
 62
     135
 10
2.625
 20
0.770833
 30
0.0
 11
2.625
 21
0.666829
 31
0.0
  0
LINE
  8
0
 62
     135
 10
2.625
 20
0.666829
 30
0.0
 11
2.56776
 21
0.666504
 31
0.0
  0
LINE
  8
0
 62
     135
 10
2.56776
 20
0.666504
 30
0.0
 11
2.41461
 21
0.283746
 31
0.0
  0
LINE
  8
0
 62
     135
 10
2.41461
 20
0.283746
 30
0.0
 11
2.29736
 21
0.283908
 31
0.0
  0
LINE
  8
0
 62
     135
 10
2.29736
 20
0.283908
 30
0.0
 11
2.14822
 21
0.666396
 31
0.0
  0
LINE
  8
0
 62
     135
 10
2.14822
 20
0.666396
 30
0.0
 11
2.08931
 21
0.666938
 31
0.0
  0
LINE
  8
0
 62
     135
 10
2.08931
 20
0.666938
 30
0.0
 11
2.08946
 21
0.770833
 31
0.0
  0
LINE
  8
0
 62
     135
 10
2.79665
 20
0.769422
 30
0.0
 11
2.8915
 21
0.784776
 31
0.0
  0
LINE
  8
0
 62
     135
 10
2.8915
 20
0.784776
 30
0.0
 11
2.98481
 21
0.763346
 31
0.0
  0
LINE
  8
0
 62
     135
 10
2.98481
 20
0.763346
 30
0.0
 11
3.06446
 21
0.71034
 31
0.0
  0
LINE
  8
0
 62
     135
 10
3.06446
 20
0.71034
 30
0.0
 11
3.11849
 21
0.63086
 31
0.0
  0
LINE
  8
0
 62
     135
 10
3.11849
 20
0.63086
 30
0.0
 11
3.13846
 21
0.555339
 31
0.0
  0
LINE
  8
0
 62
     135
 10
3.13846
 20
0.555339
 30
0.0
 11
3.13456
 21
0.477322
 31
0.0
  0
LINE
  8
0
 62
     135
 10
3.13456
 20
0.477322
 30
0.0
 11
3.10807
 21
0.403808
 31
0.0
  0
LINE
  8
0
 62
     135
 10
3.10807
 20
0.403808
 30
0.0
 11
3.06028
 21
0.341797
 31
0.0
  0
LINE
  8
0
 62
     135
 10
3.06028
 20
0.341797
 30
0.0
 11
2.99192
 21
0.295139
 31
0.0
  0
LINE
  8
0
 62
     135
 10
2.99192
 20
0.295139
 30
0.0
 11
2.91222
 21
0.273221
 31
0.0
  0
LINE
  8
0
 62
     135
 10
2.91222
 20
0.273221
 30
0.0
 11
2.82958
 21
0.277018
 31
0.0
  0
LINE
  8
0
 62
     135
 10
2.82958
 20
0.277018
 30
0.0
 11
2.75265
 21
0.307346
 31
0.0
  0
LINE
  8
0
 62
     135
 10
2.75265
 20
0.307346
 30
0.0
 11
2.69607
 21
0.352919
 31
0.0
  0
LINE
  8
0
 62
     135
 10
2.69607
 20
0.352919
 30
0.0
 11
2.65483
 21
0.412651
 31
0.0
  0
LINE
  8
0
 62
     135
 10
2.65483
 20
0.412651
 30
0.0
 11
2.63157
 21
0.481392
 31
0.0
  0
LINE
  8
0
 62
     135
 10
2.63157
 20
0.481392
 30
0.0
 11
2.62875
 21
0.554036
 31
0.0
  0
LINE
  8
0
 62
     135
 10
2.62875
 20
0.554036
 30
0.0
 11
2.64572
 21
0.623861
 31
0.0
  0
LINE
  8
0
 62
     135
 10
2.64572
 20
0.623861
 30
0.0
 11
2.68169
 21
0.685872
 31
0.0
  0
LINE
  8
0
 62
     135
 10
2.68169
 20
0.685872
 30
0.0
 11
2.73318
 21
0.735894
 31
0.0
  0
LINE
  8
0
 62
     135
 10
2.73318
 20
0.735894
 30
0.0
 11
2.79665
 21
0.769422
 31
0.0
  0
LINE
  8
0
 62
     135
 10
3.45931
 20
0.583333
 30
0.0
 11
3.49735
 21
0.671604
 31
0.0
  0
LINE
  8
0
 62
     135
 10
3.49735
 20
0.671604
 30
0.0
 11
3.56549
 21
0.739367
 31
0.0
  0
LINE
  8
0
 62
     135
 10
3.56549
 20
0.739367
 30
0.0
 11
3.65306
 21
0.778103
 31
0.0
  0
LINE
  8
0
 62
     135
 10
3.65306
 20
0.778103
 30
0.0
 11
3.74918
 21
0.779189
 31
0.0
  0
LINE
  8
0
 62
     135
 10
3.74918
 20
0.779189
 30
0.0
 11
3.81039
 21
0.751899
 31
0.0
  0
LINE
  8
0
 62
     135
 10
3.81039
 20
0.751899
 30
0.0
 11
3.85969
 21
0.705567
 31
0.0
  0
LINE
  8
0
 62
     135
 10
3.85969
 20
0.705567
 30
0.0
 11
3.85818
 21
0.770833
 31
0.0
  0
LINE
  8
0
 62
     135
 10
3.85818
 20
0.770833
 30
0.0
 11
4.03304
 21
0.770833
 31
0.0
  0
LINE
  8
0
 62
     135
 10
4.03304
 20
0.770833
 30
0.0
 11
4.03304
 21
0.666829
 31
0.0
  0
LINE
  8
0
 62
     135
 10
4.03304
 20
0.666829
 30
0.0
 11
3.97222
 21
0.666504
 31
0.0
  0
LINE
  8
0
 62
     135
 10
3.97222
 20
0.666504
 30
0.0
 11
3.97222
 21
0.389051
 31
0.0
  0
LINE
  8
0
 62
     135
 10
3.97222
 20
0.389051
 30
0.0
 11
4.03304
 21
0.388726
 31
0.0
  0
LINE
  8
0
 62
     135
 10
4.03304
 20
0.388726
 30
0.0
 11
4.03304
 21
0.283908
 31
0.0
  0
LINE
  8
0
 62
     135
 10
4.03304
 20
0.283908
 30
0.0
 11
3.85807
 21
0.284017
 31
0.0
  0
LINE
  8
0
 62
     135
 10
3.85807
 20
0.284017
 30
0.0
 11
3.859
 21
0.314942
 31
0.0
  0
LINE
  8
0
 62
     135
 10
3.859
 20
0.314942
 30
0.0
 11
3.86003
 21
0.345975
 31
0.0
  0
LINE
  8
0
 62
     135
 10
3.86003
 20
0.345975
 30
0.0
 11
3.80371
 21
0.297364
 31
0.0
  0
LINE
  8
0
 62
     135
 10
3.80371
 20
0.297364
 30
0.0
 11
3.73421
 21
0.273708
 31
0.0
  0
LINE
  8
0
 62
     135
 10
3.73421
 20
0.273708
 30
0.0
 11
3.66004
 21
0.274306
 31
0.0
  0
LINE
  8
0
 62
     135
 10
3.66004
 20
0.274306
 30
0.0
 11
3.58974
 21
0.298178
 31
0.0
  0
LINE
  8
0
 62
     135
 10
3.58974
 20
0.298178
 30
0.0
 11
3.5224
 21
0.348687
 31
0.0
  0
LINE
  8
0
 62
     135
 10
3.5224
 20
0.348687
 30
0.0
 11
3.47592
 21
0.418457
 31
0.0
  0
LINE
  8
0
 62
     135
 10
3.47592
 20
0.418457
 30
0.0
 11
3.45367
 21
0.499403
 31
0.0
  0
LINE
  8
0
 62
     135
 10
3.45367
 20
0.499403
 30
0.0
 11
3.45931
 21
0.583333
 31
0.0
  0
LINE
  8
0
 62
     30
 10
4.91238
 20
0.770833
 30
0.0
 11
5.07835
 21
0.770833
 31
0.0
  0
LINE
  8
0
 62
     30
 10
5.07835
 20
0.770833
 30
0.0
 11
5.07693
 21
0.693197
 31
0.0
  0
LINE
  8
0
 62
     30
 10
5.07693
 20
0.693197
 30
0.0
 11
5.10508
 21
0.727431
 31
0.0
  0
LINE
  8
0
 62
     30
 10
5.10508
 20
0.727431
 30
0.0
 11
5.14014
 21
0.753039
 31
0.0
  0
LINE
  8
0
 62
     30
 10
5.14014
 20
0.753039
 30
0.0
 11
5.18028
 21
0.770128
 31
0.0
  0
LINE
  8
0
 62
     30
 10
5.18028
 20
0.770128
 30
0.0
 11
5.22374
 21
0.778483
 31
0.0
  0
LINE
  8
0
 62
     30
 10
5.22374
 20
0.778483
 30
0.0
 11
5.2239
 21
0.6639
 31
0.0
  0
LINE
  8
0
 62
     30
 10
5.2239
 20
0.6639
 30
0.0
 11
5.18294
 21
0.654893
 31
0.0
  0
LINE
  8
0
 62
     30
 10
5.18294
 20
0.654893
 30
0.0
 11
5.14464
 21
0.637696
 31
0.0
  0
LINE
  8
0
 62
     30
 10
5.14464
 20
0.637696
 30
0.0
 11
5.11344
 21
0.611057
 31
0.0
  0
LINE
  8
0
 62
     30
 10
5.11344
 20
0.611057
 30
0.0
 11
5.09403
 21
0.573731
 31
0.0
  0
LINE
  8
0
 62
     30
 10
5.09403
 20
0.573731
 30
0.0
 11
5.0861
 21
0.481717
 31
0.0
  0
LINE
  8
0
 62
     30
 10
5.0861
 20
0.481717
 30
0.0
 11
5.08681
 21
0.389051
 31
0.0
  0
LINE
  8
0
 62
     30
 10
5.08681
 20
0.389051
 30
0.0
 11
5.14947
 21
0.388726
 31
0.0
  0
LINE
  8
0
 62
     30
 10
5.14947
 20
0.388726
 30
0.0
 11
5.14931
 21
0.283908
 31
0.0
  0
LINE
  8
0
 62
     30
 10
5.14931
 20
0.283908
 30
0.0
 11
4.91222
 21
0.283908
 31
0.0
  0
LINE
  8
0
 62
     30
 10
4.91222
 20
0.283908
 30
0.0
 11
4.91238
 21
0.388726
 31
0.0
  0
LINE
  8
0
 62
     30
 10
4.91238
 20
0.388726
 30
0.0
 11
4.97472
 21
0.389051
 31
0.0
  0
LINE
  8
0
 62
     30
 10
4.97472
 20
0.389051
 30
0.0
 11
4.97472
 21
0.666504
 31
0.0
  0
LINE
  8
0
 62
     30
 10
4.97472
 20
0.666504
 30
0.0
 11
4.91222
 21
0.666829
 31
0.0
  0
LINE
  8
0
 62
     30
 10
4.91222
 20
0.666829
 30
0.0
 11
4.91238
 21
0.770833
 31
0.0
  0
LINE
  8
0
 62
     30
 10
5.29471
 20
0.67665
 30
0.0
 11
5.3476
 21
0.731554
 31
0.0
  0
LINE
  8
0
 62
     30
 10
5.3476
 20
0.731554
 30
0.0
 11
5.41471
 21
0.768446
 31
0.0
  0
LINE
  8
0
 62
     30
 10
5.41471
 20
0.768446
 30
0.0
 11
5.48936
 21
0.783475
 31
0.0
  0
LINE
  8
0
 62
     30
 10
5.48936
 20
0.783475
 30
0.0
 11
5.56489
 21
0.772786
 31
0.0
  0
LINE
  8
0
 62
     30
 10
5.56489
 20
0.772786
 30
0.0
 11
5.61307
 21
0.744846
 31
0.0
  0
LINE
  8
0
 62
     30
 10
5.61307
 20
0.744846
 30
0.0
 11
5.65306
 21
0.705404
 31
0.0
  0
LINE
  8
0
 62
     30
 10
5.65306
 20
0.705404
 30
0.0
 11
5.65169
 21
0.770833
 31
0.0
  0
LINE
  8
0
 62
     30
 10
5.65169
 20
0.770833
 30
0.0
 11
5.82639
 21
0.770833
 31
0.0
  0
LINE
  8
0
 62
     30
 10
5.82639
 20
0.770833
 30
0.0
 11
5.82639
 21
0.666829
 31
0.0
  0
LINE
  8
0
 62
     30
 10
5.82639
 20
0.666829
 30
0.0
 11
5.76557
 21
0.666504
 31
0.0
  0
LINE
  8
0
 62
     30
 10
5.76557
 20
0.666504
 30
0.0
 11
5.76557
 21
0.389051
 31
0.0
  0
LINE
  8
0
 62
     30
 10
5.76557
 20
0.389051
 30
0.0
 11
5.82656
 21
0.388726
 31
0.0
  0
LINE
  8
0
 62
     30
 10
5.82656
 20
0.388726
 30
0.0
 11
5.82639
 21
0.283908
 31
0.0
  0
LINE
  8
0
 62
     30
 10
5.82639
 20
0.283908
 30
0.0
 11
5.65169
 21
0.283908
 31
0.0
  0
LINE
  8
0
 62
     30
 10
5.65169
 20
0.283908
 30
0.0
 11
5.65332
 21
0.345975
 31
0.0
  0
LINE
  8
0
 62
     30
 10
5.65332
 20
0.345975
 30
0.0
 11
5.56739
 21
0.283583
 31
0.0
  0
LINE
  8
0
 62
     30
 10
5.56739
 20
0.283583
 30
0.0
 11
5.46311
 21
0.273708
 31
0.0
  0
LINE
  8
0
 62
     30
 10
5.46311
 20
0.273708
 30
0.0
 11
5.36247
 21
0.309788
 31
0.0
  0
LINE
  8
0
 62
     30
 10
5.36247
 20
0.309788
 30
0.0
 11
5.28749
 21
0.384983
 31
0.0
  0
LINE
  8
0
 62
     30
 10
5.28749
 20
0.384983
 30
0.0
 11
5.25558
 21
0.455294
 31
0.0
  0
LINE
  8
0
 62
     30
 10
5.25558
 20
0.455294
 30
0.0
 11
5.24642
 21
0.531901
 31
0.0
  0
LINE
  8
0
 62
     30
 10
5.24642
 20
0.531901
 30
0.0
 11
5.2596
 21
0.607964
 31
0.0
  0
LINE
  8
0
 62
     30
 10
5.2596
 20
0.607964
 30
0.0
 11
5.29471
 21
0.67665
 31
0.0
  0
LINE
  8
0
 62
     30
 10
5.86208
 20
0.58279
 30
0.0
 11
5.89204
 21
0.660644
 31
0.0
  0
LINE
  8
0
 62
     30
 10
5.89204
 20
0.660644
 30
0.0
 11
5.94521
 21
0.725097
 31
0.0
  0
LINE
  8
0
 62
     30
 10
5.94521
 20
0.725097
 30
0.0
 11
6.01563
 21
0.769151
 31
0.0
  0
LINE
  8
0
 62
     30
 10
6.01563
 20
0.769151
 30
0.0
 11
6.0975
 21
0.785536
 31
0.0
  0
LINE
  8
0
 62
     30
 10
6.0975
 20
0.785536
 30
0.0
 11
6.13688
 21
0.782661
 31
0.0
  0
LINE
  8
0
 62
     30
 10
6.13688
 20
0.782661
 30
0.0
 11
6.1741
 21
0.770725
 31
0.0
  0
LINE
  8
0
 62
     30
 10
6.1741
 20
0.770725
 30
0.0
 11
6.20871
 21
0.751844
 31
0.0
  0
LINE
  8
0
 62
     30
 10
6.20871
 20
0.751844
 30
0.0
 11
6.24029
 21
0.72819
 31
0.0
  0
LINE
  8
0
 62
     30
 10
6.24029
 20
0.72819
 30
0.0
 11
6.2399
 21
0.749621
 31
0.0
  0
LINE
  8
0
 62
     30
 10
6.2399
 20
0.749621
 30
0.0
 11
6.23942
 21
0.770996
 31
0.0
  0
LINE
  8
0
 62
     30
 10
6.23942
 20
0.770996
 30
0.0
 11
6.33583
 21
0.770833
 31
0.0
  0
LINE
  8
0
 62
     30
 10
6.33583
 20
0.770833
 30
0.0
 11
6.33583
 21
0.607639
 31
0.0
  0
LINE
  8
0
 62
     30
 10
6.33583
 20
0.607639
 30
0.0
 11
6.23443
 21
0.608182
 31
0.0
  0
LINE
  8
0
 62
     30
 10
6.23443
 20
0.608182
 30
0.0
 11
6.20632
 21
0.636122
 31
0.0
  0
LINE
  8
0
 62
     30
 10
6.20632
 20
0.636122
 30
0.0
 11
6.17372
 21
0.658583
 31
0.0
  0
LINE
  8
0
 62
     30
 10
6.17372
 20
0.658583
 30
0.0
 11
6.13715
 21
0.672308
 31
0.0
  0
LINE
  8
0
 62
     30
 10
6.13715
 20
0.672308
 30
0.0
 11
6.09739
 21
0.673774
 31
0.0
  0
LINE
  8
0
 62
     30
 10
6.09739
 20
0.673774
 30
0.0
 11
6.06722
 21
0.668132
 31
0.0
  0
LINE
  8
0
 62
     30
 10
6.06722
 20
0.668132
 30
0.0
 11
6.03982
 21
0.655761
 31
0.0
  0
LINE
  8
0
 62
     30
 10
6.03982
 20
0.655761
 30
0.0
 11
6.01585
 21
0.63775
 31
0.0
  0
LINE
  8
0
 62
     30
 10
6.01585
 20
0.63775
 30
0.0
 11
5.99599
 21
0.615181
 31
0.0
  0
LINE
  8
0
 62
     30
 10
5.99599
 20
0.615181
 30
0.0
 11
5.98079
 21
0.589031
 31
0.0
  0
LINE
  8
0
 62
     30
 10
5.98079
 20
0.589031
 30
0.0
 11
5.97108
 21
0.560493
 31
0.0
  0
LINE
  8
0
 62
     30
 10
5.97108
 20
0.560493
 30
0.0
 11
5.96739
 21
0.530544
 31
0.0
  0
LINE
  8
0
 62
     30
 10
5.96739
 20
0.530544
 30
0.0
 11
5.97043
 21
0.500271
 31
0.0
  0
LINE
  8
0
 62
     30
 10
5.97043
 20
0.500271
 30
0.0
 11
5.97851
 21
0.471138
 31
0.0
  0
LINE
  8
0
 62
     30
 10
5.97851
 20
0.471138
 30
0.0
 11
5.99283
 21
0.444933
 31
0.0
  0
LINE
  8
0
 62
     30
 10
5.99283
 20
0.444933
 30
0.0
 11
6.01237
 21
0.422308
 31
0.0
  0
LINE
  8
0
 62
     30
 10
6.01237
 20
0.422308
 30
0.0
 11
6.03603
 21
0.403917
 31
0.0
  0
LINE
  8
0
 62
     30
 10
6.03603
 20
0.403917
 30
0.0
 11
6.06278
 21
0.390517
 31
0.0
  0
LINE
  8
0
 62
     30
 10
6.06278
 20
0.390517
 30
0.0
 11
6.09158
 21
0.382704
 31
0.0
  0
LINE
  8
0
 62
     30
 10
6.09158
 20
0.382704
 30
0.0
 11
6.12142
 21
0.381185
 31
0.0
  0
LINE
  8
0
 62
     30
 10
6.12142
 20
0.381185
 30
0.0
 11
6.15126
 21
0.386501
 31
0.0
  0
LINE
  8
0
 62
     30
 10
6.15126
 20
0.386501
 30
0.0
 11
6.1971
 21
0.410482
 31
0.0
  0
LINE
  8
0
 62
     30
 10
6.1971
 20
0.410482
 30
0.0
 11
6.23318
 21
0.44835
 31
0.0
  0
LINE
  8
0
 62
     30
 10
6.23318
 20
0.44835
 30
0.0
 11
6.35667
 21
0.448188
 31
0.0
  0
LINE
  8
0
 62
     30
 10
6.35667
 20
0.448188
 30
0.0
 11
6.33757
 21
0.407281
 31
0.0
  0
LINE
  8
0
 62
     30
 10
6.33757
 20
0.407281
 30
0.0
 11
6.31288
 21
0.369575
 31
0.0
  0
LINE
  8
0
 62
     30
 10
6.31288
 20
0.369575
 30
0.0
 11
6.28239
 21
0.336589
 31
0.0
  0
LINE
  8
0
 62
     30
 10
6.28239
 20
0.336589
 30
0.0
 11
6.24599
 21
0.309842
 31
0.0
  0
LINE
  8
0
 62
     30
 10
6.24599
 20
0.309842
 30
0.0
 11
6.17638
 21
0.279568
 31
0.0
  0
LINE
  8
0
 62
     30
 10
6.17638
 20
0.279568
 30
0.0
 11
6.10097
 21
0.271647
 31
0.0
  0
LINE
  8
0
 62
     30
 10
6.10097
 20
0.271647
 30
0.0
 11
6.02647
 21
0.285861
 31
0.0
  0
LINE
  8
0
 62
     30
 10
6.02647
 20
0.285861
 30
0.0
 11
5.95958
 21
0.321669
 31
0.0
  0
LINE
  8
0
 62
     30
 10
5.95958
 20
0.321669
 30
0.0
 11
5.90728
 21
0.373372
 31
0.0
  0
LINE
  8
0
 62
     30
 10
5.90728
 20
0.373372
 30
0.0
 11
5.87235
 21
0.437825
 31
0.0
  0
LINE
  8
0
 62
     30
 10
5.87235
 20
0.437825
 30
0.0
 11
5.85656
 21
0.509494
 31
0.0
  0
LINE
  8
0
 62
     30
 10
5.85656
 20
0.509494
 30
0.0
 11
5.86208
 21
0.58279
 31
0.0
  0
LINE
  8
0
 62
     30
 10
6.94222
 20
0.667481
 30
0.0
 11
6.97428
 21
0.709093
 31
0.0
  0
LINE
  8
0
 62
     30
 10
6.97428
 20
0.709093
 30
0.0
 11
7.01443
 21
0.742947
 31
0.0
  0
LINE
  8
0
 62
     30
 10
7.01443
 20
0.742947
 30
0.0
 11
7.06082
 21
0.767632
 31
0.0
  0
LINE
  8
0
 62
     30
 10
7.06082
 20
0.767632
 30
0.0
 11
7.11154
 21
0.781683
 31
0.0
  0
LINE
  8
0
 62
     30
 10
7.11154
 20
0.781683
 30
0.0
 11
7.19488
 21
0.782172
 31
0.0
  0
LINE
  8
0
 62
     30
 10
7.19488
 20
0.782172
 30
0.0
 11
7.27387
 21
0.755154
 31
0.0
  0
LINE
  8
0
 62
     30
 10
7.27387
 20
0.755154
 30
0.0
 11
7.34017
 21
0.704753
 31
0.0
  0
LINE
  8
0
 62
     30
 10
7.34017
 20
0.704753
 30
0.0
 11
7.38558
 21
0.634874
 31
0.0
  0
LINE
  8
0
 62
     30
 10
7.38558
 20
0.634874
 30
0.0
 11
7.40386
 21
0.561307
 31
0.0
  0
LINE
  8
0
 62
     30
 10
7.40386
 20
0.561307
 30
0.0
 11
7.40419
 21
0.485297
 31
0.0
  0
LINE
  8
0
 62
     30
 10
7.40419
 20
0.485297
 30
0.0
 11
7.00792
 21
0.4847
 31
0.0
  0
LINE
  8
0
 62
     30
 10
7.00792
 20
0.4847
 30
0.0
 11
7.02914
 21
0.440104
 31
0.0
  0
LINE
  8
0
 62
     30
 10
7.02914
 20
0.440104
 30
0.0
 11
7.06185
 21
0.403538
 31
0.0
  0
LINE
  8
0
 62
     30
 10
7.06185
 20
0.403538
 30
0.0
 11
7.10374
 21
0.378851
 31
0.0
  0
LINE
  8
0
 62
     30
 10
7.10374
 20
0.378851
 30
0.0
 11
7.1525
 21
0.369737
 31
0.0
  0
LINE
  8
0
 62
     30
 10
7.1525
 20
0.369737
 30
0.0
 11
7.18767
 21
0.372125
 31
0.0
  0
LINE
  8
0
 62
     30
 10
7.18767
 20
0.372125
 30
0.0
 11
7.22017
 21
0.384006
 31
0.0
  0
LINE
  8
0
 62
     30
 10
7.22017
 20
0.384006
 30
0.0
 11
7.2494
 21
0.403267
 31
0.0
  0
LINE
  8
0
 62
     30
 10
7.2494
 20
0.403267
 30
0.0
 11
7.27485
 21
0.427626
 31
0.0
  0
LINE
  8
0
 62
     30
 10
7.27485
 20
0.427626
 30
0.0
 11
7.3904
 21
0.427354
 31
0.0
  0
LINE
  8
0
 62
     30
 10
7.3904
 20
0.427354
 30
0.0
 11
7.34472
 21
0.357096
 31
0.0
  0
LINE
  8
0
 62
     30
 10
7.34472
 20
0.357096
 30
0.0
 11
7.28054
 21
0.303765
 31
0.0
  0
LINE
  8
0
 62
     30
 10
7.28054
 20
0.303765
 30
0.0
 11
7.19769
 21
0.274251
 31
0.0
  0
LINE
  8
0
 62
     30
 10
7.19769
 20
0.274251
 30
0.0
 11
7.10986
 21
0.275771
 31
0.0
  0
LINE
  8
0
 62
     30
 10
7.10986
 20
0.275771
 30
0.0
 11
7.02735
 21
0.306153
 31
0.0
  0
LINE
  8
0
 62
     30
 10
7.02735
 20
0.306153
 30
0.0
 11
6.96039
 21
0.363064
 31
0.0
  0
LINE
  8
0
 62
     30
 10
6.96039
 20
0.363064
 30
0.0
 11
6.91954
 21
0.432997
 31
0.0
  0
LINE
  8
0
 62
     30
 10
6.91954
 20
0.432997
 30
0.0
 11
6.90306
 21
0.512207
 31
0.0
  0
LINE
  8
0
 62
     30
 10
6.90306
 20
0.512207
 30
0.0
 11
6.91069
 21
0.592936
 31
0.0
  0
LINE
  8
0
 62
     30
 10
6.91069
 20
0.592936
 30
0.0
 11
6.94222
 21
0.667481
 31
0.0
  0
LINE
  8
0
 62
     30
 10
7.604
 20
0.693468
 30
0.0
 11
7.63189
 21
0.727322
 31
0.0
  0
LINE
  8
0
 62
     30
 10
7.63189
 20
0.727322
 30
0.0
 11
7.66661
 21
0.752875
 31
0.0
  0
LINE
  8
0
 62
     30
 10
7.66661
 20
0.752875
 30
0.0
 11
7.70632
 21
0.770019
 31
0.0
  0
LINE
  8
0
 62
     30
 10
7.70632
 20
0.770019
 30
0.0
 11
7.74946
 21
0.778862
 31
0.0
  0
LINE
  8
0
 62
     30
 10
7.74946
 20
0.778862
 30
0.0
 11
7.75
 21
0.6639
 31
0.0
  0
LINE
  8
0
 62
     30
 10
7.75
 20
0.6639
 30
0.0
 11
7.7085
 21
0.654839
 31
0.0
  0
LINE
  8
0
 62
     30
 10
7.7085
 20
0.654839
 30
0.0
 11
7.66982
 21
0.637044
 31
0.0
  0
LINE
  8
0
 62
     30
 10
7.66982
 20
0.637044
 30
0.0
 11
7.63872
 21
0.609592
 31
0.0
  0
LINE
  8
0
 62
     30
 10
7.63872
 20
0.609592
 30
0.0
 11
7.62001
 21
0.571397
 31
0.0
  0
LINE
  8
0
 62
     30
 10
7.62001
 20
0.571397
 30
0.0
 11
7.61231
 21
0.480524
 31
0.0
  0
LINE
  8
0
 62
     30
 10
7.61231
 20
0.480524
 30
0.0
 11
7.6129
 21
0.389051
 31
0.0
  0
LINE
  8
0
 62
     30
 10
7.6129
 20
0.389051
 30
0.0
 11
7.67637
 21
0.388726
 31
0.0
  0
LINE
  8
0
 62
     30
 10
7.67637
 20
0.388726
 30
0.0
 11
7.67626
 21
0.283908
 31
0.0
  0
LINE
  8
0
 62
     30
 10
7.67626
 20
0.283908
 30
0.0
 11
7.43832
 21
0.283908
 31
0.0
  0
LINE
  8
0
 62
     30
 10
7.43832
 20
0.283908
 30
0.0
 11
7.43832
 21
0.388726
 31
0.0
  0
LINE
  8
0
 62
     30
 10
7.43832
 20
0.388726
 30
0.0
 11
7.50168
 21
0.389051
 31
0.0
  0
LINE
  8
0
 62
     30
 10
7.50168
 20
0.389051
 30
0.0
 11
7.50168
 21
0.666504
 31
0.0
  0
LINE
  8
0
 62
     30
 10
7.50168
 20
0.666504
 30
0.0
 11
7.43832
 21
0.666829
 31
0.0
  0
LINE
  8
0
 62
     30
 10
7.43832
 20
0.666829
 30
0.0
 11
7.43832
 21
0.770833
 31
0.0
  0
LINE
  8
0
 62
     30
 10
7.43832
 20
0.770833
 30
0.0
 11
7.60542
 21
0.770833
 31
0.0
  0
LINE
  8
0
 62
     30
 10
7.60542
 20
0.770833
 30
0.0
 11
7.604
 21
0.693468
 31
0.0
  0
LINE
  8
0
 62
     7
 10
7.00678
 20
0.571832
 30
0.0
 11
7.03076
 21
0.619032
 31
0.0
  0
LINE
  8
0
 62
     7
 10
7.03076
 20
0.619032
 30
0.0
 11
7.06765
 21
0.656793
 31
0.0
  0
LINE
  8
0
 62
     7
 10
7.06765
 20
0.656793
 30
0.0
 11
7.11415
 21
0.680176
 31
0.0
  0
LINE
  8
0
 62
     7
 10
7.11415
 20
0.680176
 30
0.0
 11
7.1671
 21
0.684299
 31
0.0
  0
LINE
  8
0
 62
     7
 10
7.1671
 20
0.684299
 30
0.0
 11
7.21289
 21
0.673232
 31
0.0
  0
LINE
  8
0
 62
     7
 10
7.21289
 20
0.673232
 30
0.0
 11
7.25211
 21
0.648654
 31
0.0
  0
LINE
  8
0
 62
     7
 10
7.25211
 20
0.648654
 30
0.0
 11
7.28336
 21
0.613878
 31
0.0
  0
LINE
  8
0
 62
     7
 10
7.28336
 20
0.613878
 30
0.0
 11
7.30528
 21
0.572211
 31
0.0
  0
LINE
  8
0
 62
     7
 10
7.30528
 20
0.572211
 30
0.0
 11
7.00678
 21
0.571832
 31
0.0
  0
LINE
  8
0
 62
     7
 10
2.82374
 20
0.661512
 30
0.0
 11
2.85363
 21
0.671929
 31
0.0
  0
LINE
  8
0
 62
     7
 10
2.85363
 20
0.671929
 30
0.0
 11
2.88465
 21
0.674804
 31
0.0
  0
LINE
  8
0
 62
     7
 10
2.88465
 20
0.674804
 30
0.0
 11
2.91547
 21
0.67079
 31
0.0
  0
LINE
  8
0
 62
     7
 10
2.91547
 20
0.67079
 30
0.0
 11
2.94493
 21
0.660428
 31
0.0
  0
LINE
  8
0
 62
     7
 10
2.94493
 20
0.660428
 30
0.0
 11
2.97174
 21
0.644422
 31
0.0
  0
LINE
  8
0
 62
     7
 10
2.97174
 20
0.644422
 30
0.0
 11
2.99468
 21
0.623318
 31
0.0
  0
LINE
  8
0
 62
     7
 10
2.99468
 20
0.623318
 30
0.0
 11
3.01253
 21
0.597765
 31
0.0
  0
LINE
  8
0
 62
     7
 10
3.01253
 20
0.597765
 30
0.0
 11
3.02414
 21
0.56836
 31
0.0
  0
LINE
  8
0
 62
     7
 10
3.02414
 20
0.56836
 30
0.0
 11
3.02989
 21
0.538954
 31
0.0
  0
LINE
  8
0
 62
     7
 10
3.02989
 20
0.538954
 30
0.0
 11
3.02892
 21
0.509332
 31
0.0
  0
LINE
  8
0
 62
     7
 10
3.02892
 20
0.509332
 30
0.0
 11
3.02186
 21
0.480686
 31
0.0
  0
LINE
  8
0
 62
     7
 10
3.02186
 20
0.480686
 30
0.0
 11
3.00933
 21
0.453885
 31
0.0
  0
LINE
  8
0
 62
     7
 10
3.00933
 20
0.453885
 30
0.0
 11
2.99186
 21
0.429904
 31
0.0
  0
LINE
  8
0
 62
     7
 10
2.99186
 20
0.429904
 30
0.0
 11
2.97017
 21
0.409831
 31
0.0
  0
LINE
  8
0
 62
     7
 10
2.97017
 20
0.409831
 30
0.0
 11
2.94476
 21
0.39464
 31
0.0
  0
LINE
  8
0
 62
     7
 10
2.94476
 20
0.39464
 30
0.0
 11
2.91639
 21
0.385254
 31
0.0
  0
LINE
  8
0
 62
     7
 10
2.91639
 20
0.385254
 30
0.0
 11
2.88672
 21
0.381076
 31
0.0
  0
LINE
  8
0
 62
     7
 10
2.88672
 20
0.381076
 30
0.0
 11
2.85736
 21
0.383626
 31
0.0
  0
LINE
  8
0
 62
     7
 10
2.85736
 20
0.383626
 30
0.0
 11
2.82921
 21
0.392199
 31
0.0
  0
LINE
  8
0
 62
     7
 10
2.82921
 20
0.392199
 30
0.0
 11
2.80322
 21
0.406088
 31
0.0
  0
LINE
  8
0
 62
     7
 10
2.80322
 20
0.406088
 30
0.0
 11
2.78033
 21
0.42475
 31
0.0
  0
LINE
  8
0
 62
     7
 10
2.78033
 20
0.42475
 30
0.0
 11
2.7615
 21
0.447374
 31
0.0
  0
LINE
  8
0
 62
     7
 10
2.7615
 20
0.447374
 30
0.0
 11
2.74761
 21
0.473361
 31
0.0
  0
LINE
  8
0
 62
     7
 10
2.74761
 20
0.473361
 30
0.0
 11
2.73975
 21
0.502061
 31
0.0
  0
LINE
  8
0
 62
     7
 10
2.73975
 20
0.502061
 30
0.0
 11
2.73893
 21
0.550456
 31
0.0
  0
LINE
  8
0
 62
     7
 10
2.73893
 20
0.550456
 30
0.0
 11
2.75439
 21
0.596138
 31
0.0
  0
LINE
  8
0
 62
     7
 10
2.75439
 20
0.596138
 30
0.0
 11
2.78353
 21
0.634657
 31
0.0
  0
LINE
  8
0
 62
     7
 10
2.78353
 20
0.634657
 30
0.0
 11
2.82374
 21
0.661512
 31
0.0
  0
LINE
  8
0
 62
     7
 10
3.65722
 20
0.662651
 30
0.0
 11
3.69054
 21
0.673122
 31
0.0
  0
LINE
  8
0
 62
     7
 10
3.69054
 20
0.673122
 30
0.0
 11
3.72467
 21
0.674371
 31
0.0
  0
LINE
  8
0
 62
     7
 10
3.72467
 20
0.674371
 30
0.0
 11
3.75814
 21
0.667264
 31
0.0
  0
LINE
  8
0
 62
     7
 10
3.75814
 20
0.667264
 30
0.0
 11
3.78922
 21
0.652778
 31
0.0
  0
LINE
  8
0
 62
     7
 10
3.78922
 20
0.652778
 30
0.0
 11
3.81651
 21
0.63189
 31
0.0
  0
LINE
  8
0
 62
     7
 10
3.81651
 20
0.63189
 30
0.0
 11
3.83832
 21
0.605578
 31
0.0
  0
LINE
  8
0
 62
     7
 10
3.83832
 20
0.605578
 30
0.0
 11
3.85314
 21
0.574761
 31
0.0
  0
LINE
  8
0
 62
     7
 10
3.85314
 20
0.574761
 30
0.0
 11
3.85943
 21
0.540419
 31
0.0
  0
LINE
  8
0
 62
     7
 10
3.85943
 20
0.540419
 30
0.0
 11
3.85889
 21
0.509224
 31
0.0
  0
LINE
  8
0
 62
     7
 10
3.85889
 20
0.509224
 30
0.0
 11
3.85146
 21
0.479275
 31
0.0
  0
LINE
  8
0
 62
     7
 10
3.85146
 20
0.479275
 30
0.0
 11
3.83789
 21
0.451551
 31
0.0
  0
LINE
  8
0
 62
     7
 10
3.83789
 20
0.451551
 30
0.0
 11
3.81917
 21
0.427083
 31
0.0
  0
LINE
  8
0
 62
     7
 10
3.81917
 20
0.427083
 30
0.0
 11
3.796
 21
0.406739
 31
0.0
  0
LINE
  8
0
 62
     7
 10
3.796
 20
0.406739
 30
0.0
 11
3.76926
 21
0.391547
 31
0.0
  0
LINE
  8
0
 62
     7
 10
3.76926
 20
0.391547
 30
0.0
 11
3.73986
 21
0.382433
 31
0.0
  0
LINE
  8
0
 62
     7
 10
3.73986
 20
0.382433
 30
0.0
 11
3.70861
 21
0.380425
 31
0.0
  0
LINE
  8
0
 62
     7
 10
3.70861
 20
0.380425
 30
0.0
 11
3.67686
 21
0.384657
 31
0.0
  0
LINE
  8
0
 62
     7
 10
3.67686
 20
0.384657
 30
0.0
 11
3.64746
 21
0.396158
 31
0.0
  0
LINE
  8
0
 62
     7
 10
3.64746
 20
0.396158
 30
0.0
 11
3.62136
 21
0.4139
 31
0.0
  0
LINE
  8
0
 62
     7
 10
3.62136
 20
0.4139
 30
0.0
 11
3.59939
 21
0.436686
 31
0.0
  0
LINE
  8
0
 62
     7
 10
3.59939
 20
0.436686
 30
0.0
 11
3.58251
 21
0.463433
 31
0.0
  0
LINE
  8
0
 62
     7
 10
3.58251
 20
0.463433
 30
0.0
 11
3.57161
 21
0.493001
 31
0.0
  0
LINE
  8
0
 62
     7
 10
3.57161
 20
0.493001
 30
0.0
 11
3.5676
 21
0.524306
 31
0.0
  0
LINE
  8
0
 62
     7
 10
3.5676
 20
0.524306
 30
0.0
 11
3.5714
 21
0.556099
 31
0.0
  0
LINE
  8
0
 62
     7
 10
3.5714
 20
0.556099
 30
0.0
 11
3.58251
 21
0.589789
 31
0.0
  0
LINE
  8
0
 62
     7
 10
3.58251
 20
0.589789
 30
0.0
 11
3.60135
 21
0.6199
 31
0.0
  0
LINE
  8
0
 62
     7
 10
3.60135
 20
0.6199
 30
0.0
 11
3.62663
 21
0.644749
 31
0.0
  0
LINE
  8
0
 62
     7
 10
3.62663
 20
0.644749
 30
0.0
 11
3.65722
 21
0.662651
 31
0.0
  0
LINE
  8
0
 62
     7
 10
5.44846
 20
0.661675
 30
0.0
 11
5.47825
 21
0.671875
 31
0.0
  0
LINE
  8
0
 62
     7
 10
5.47825
 20
0.671875
 30
0.0
 11
5.50911
 21
0.674642
 31
0.0
  0
LINE
  8
0
 62
     7
 10
5.50911
 20
0.674642
 30
0.0
 11
5.53982
 21
0.670572
 31
0.0
  0
LINE
  8
0
 62
     7
 10
5.53982
 20
0.670572
 30
0.0
 11
5.56912
 21
0.660211
 31
0.0
  0
LINE
  8
0
 62
     7
 10
5.56912
 20
0.660211
 30
0.0
 11
5.59581
 21
0.64426
 31
0.0
  0
LINE
  8
0
 62
     7
 10
5.59581
 20
0.64426
 30
0.0
 11
5.61865
 21
0.623264
 31
0.0
  0
LINE
  8
0
 62
     7
 10
5.61865
 20
0.623264
 30
0.0
 11
5.6365
 21
0.597874
 31
0.0
  0
LINE
  8
0
 62
     7
 10
5.6365
 20
0.597874
 30
0.0
 11
5.64806
 21
0.568631
 31
0.0
  0
LINE
  8
0
 62
     7
 10
5.64806
 20
0.568631
 30
0.0
 11
5.65354
 21
0.537489
 31
0.0
  0
LINE
  8
0
 62
     7
 10
5.65354
 20
0.537489
 30
0.0
 11
5.65175
 21
0.506239
 31
0.0
  0
LINE
  8
0
 62
     7
 10
5.65175
 20
0.506239
 30
0.0
 11
5.64333
 21
0.476128
 31
0.0
  0
LINE
  8
0
 62
     7
 10
5.64333
 20
0.476128
 30
0.0
 11
5.62901
 21
0.448242
 31
0.0
  0
LINE
  8
0
 62
     7
 10
5.62901
 20
0.448242
 30
0.0
 11
5.60954
 21
0.423719
 31
0.0
  0
LINE
  8
0
 62
     7
 10
5.60954
 20
0.423719
 30
0.0
 11
5.58556
 21
0.403754
 31
0.0
  0
LINE
  8
0
 62
     7
 10
5.58556
 20
0.403754
 30
0.0
 11
5.55778
 21
0.389486
 31
0.0
  0
LINE
  8
0
 62
     7
 10
5.55778
 20
0.389486
 30
0.0
 11
5.52696
 21
0.381944
 31
0.0
  0
LINE
  8
0
 62
     7
 10
5.52696
 20
0.381944
 30
0.0
 11
5.49739
 21
0.380371
 31
0.0
  0
LINE
  8
0
 62
     7
 10
5.49739
 20
0.380371
 30
0.0
 11
5.46858
 21
0.385417
 31
0.0
  0
LINE
  8
0
 62
     7
 10
5.46858
 20
0.385417
 30
0.0
 11
5.44151
 21
0.396267
 31
0.0
  0
LINE
  8
0
 62
     7
 10
5.44151
 20
0.396267
 30
0.0
 11
5.41694
 21
0.412272
 31
0.0
  0
LINE
  8
0
 62
     7
 10
5.41694
 20
0.412272
 30
0.0
 11
5.39583
 21
0.432617
 31
0.0
  0
LINE
  8
0
 62
     7
 10
5.39583
 20
0.432617
 30
0.0
 11
5.37907
 21
0.456651
 31
0.0
  0
LINE
  8
0
 62
     7
 10
5.37907
 20
0.456651
 30
0.0
 11
5.36757
 21
0.483507
 31
0.0
  0
LINE
  8
0
 62
     7
 10
5.36757
 20
0.483507
 30
0.0
 11
5.36219
 21
0.512478
 31
0.0
  0
LINE
  8
0
 62
     7
 10
5.36219
 20
0.512478
 30
0.0
 11
5.36513
 21
0.55816
 31
0.0
  0
LINE
  8
0
 62
     7
 10
5.36513
 20
0.55816
 30
0.0
 11
5.38183
 21
0.600749
 31
0.0
  0
LINE
  8
0
 62
     7
 10
5.38183
 20
0.600749
 30
0.0
 11
5.41026
 21
0.636501
 31
0.0
  0
LINE
  8
0
 62
     7
 10
5.41026
 20
0.636501
 30
0.0
 11
5.44846
 21
0.661675
 31
0.0
  0
LINE
  8
0
 62
     30
 10
0.379883
 20
0.60319
 30
0.0
 11
0.513889
 21
0.603082
 31
0.0
  0
LINE
  8
0
 62
     30
 10
0.513889
 20
0.603082
 30
0.0
 11
0.542751
 21
0.5421
 31
0.0
  0
LINE
  8
0
 62
     30
 10
0.542751
 20
0.5421
 30
0.0
 11
0.414279
 21
0.318468
 31
0.0
  0
LINE
  8
0
 62
     30
 10
0.414279
 20
0.318468
 30
0.0
 11
0.265408
 21
0.404731
 31
0.0
  0
LINE
  8
0
 62
     30
 10
0.265408
 20
0.404731
 30
0.0
 11
0.379883
 21
0.60319
 31
0.0
  0
LINE
  8
0
 62
     30
 10
0.664985
 20
0.53125
 30
0.0
 11
0.703885
 21
0.587349
 31
0.0
  0
LINE
  8
0
 62
     30
 10
0.703885
 20
0.587349
 30
0.0
 11
0.960829
 21
0.587619
 31
0.0
  0
LINE
  8
0
 62
     30
 10
0.960829
 20
0.587619
 30
0.0
 11
0.960829
 21
0.415853
 31
0.0
  0
LINE
  8
0
 62
     30
 10
0.960829
 20
0.415853
 30
0.0
 11
0.731662
 21
0.41569
 31
0.0
  0
LINE
  8
0
 62
     30
 10
0.731662
 20
0.41569
 30
0.0
 11
0.664985
 21
0.53125
 31
0.0
  0
LINE
  8
0
 62
     30
 10
0.569174
 20
0.524143
 30
0.0
 11
0.636501
 21
0.517794
 31
0.0
  0
LINE
  8
0
 62
     30
 10
0.636501
 20
0.517794
 30
0.0
 11
0.7653
 21
0.294976
 31
0.0
  0
LINE
  8
0
 62
     30
 10
0.7653
 20
0.294976
 30
0.0
 11
0.616374
 21
0.208876
 31
0.0
  0
LINE
  8
0
 62
     30
 10
0.616374
 20
0.208876
 30
0.0
 11
0.501682
 21
0.408203
 31
0.0
  0
LINE
  8
0
 62
     30
 10
0.501682
 20
0.408203
 30
0.0
 11
0.569174
 21
0.524143
 31
0.0
  0
ENDSEC
  0
EOF
