  0
SECTION
  2
HEADER
  9
$ACADVER
  1
AC1009
  9
$EXTMIN
 10
0.0
 20
0.0
 30
0.0
  9
$EXTMAX
 10
1000.0
 20
1000.0
 30
0.0
  9
$FILLMODE
 70
 0
  9
$SPLFRAME
 70
 1
  0
ENDSEC
  0
SECTION
  2
TABLES
  0
TABLE
  2
LAYER
 70
1
  0
LAYER
  2
0
 70
     0
 62
     7
  6
CONTINUOUS
  0
ENDTAB
  0
ENDSEC
  0
SECTION
  2
ENTITIES
  0
LINE
  8
0
 62
     7
 10
0
 20
25
 30
0.0
 11
155.556
 21
25
 31
0.0
  0
LINE
  8
0
 62
     7
 10
155.556
 20
25
 30
0.0
 11
155.556
 21
-0
 31
0.0
  0
LINE
  8
0
 62
     7
 10
155.556
 20
-0
 30
0.0
 11
0
 21
-0
 31
0.0
  0
LINE
  8
0
 62
     7
 10
0
 20
-0
 30
0.0
 11
0
 21
25
 31
0.0
  0
LINE
  8
0
 62
     135
 10
10.1056
 20
23.7083
 30
0.0
 11
10.5942
 21
23.7864
 31
0.0
  0
LINE
  8
0
 62
     135
 10
10.5942
 20
23.7864
 30
0.0
 11
11.0858
 21
23.8436
 31
0.0
  0
LINE
  8
0
 62
     135
 10
11.0858
 20
23.8436
 30
0.0
 11
11.5792
 21
23.8799
 31
0.0
  0
LINE
  8
0
 62
     135
 10
11.5792
 20
23.8799
 30
0.0
 11
12.0738
 21
23.8954
 31
0.0
  0
LINE
  8
0
 62
     135
 10
12.0738
 20
23.8954
 30
0.0
 11
12.5685
 21
23.8901
 31
0.0
  0
LINE
  8
0
 62
     135
 10
12.5685
 20
23.8901
 30
0.0
 11
13.0626
 21
23.8643
 31
0.0
  0
LINE
  8
0
 62
     135
 10
13.0626
 20
23.8643
 30
0.0
 11
13.5551
 21
23.8178
 31
0.0
  0
LINE
  8
0
 62
     135
 10
13.5551
 20
23.8178
 30
0.0
 11
14.0451
 21
23.7507
 31
0.0
  0
LINE
  8
0
 62
     135
 10
14.0451
 20
23.7507
 30
0.0
 11
14.5318
 21
23.6632
 31
0.0
  0
LINE
  8
0
 62
     135
 10
14.5318
 20
23.6632
 30
0.0
 11
15.0144
 21
23.5551
 31
0.0
  0
LINE
  8
0
 62
     135
 10
15.0144
 20
23.5551
 30
0.0
 11
15.4918
 21
23.4267
 31
0.0
  0
LINE
  8
0
 62
     135
 10
15.4918
 20
23.4267
 30
0.0
 11
15.9633
 21
23.2779
 31
0.0
  0
LINE
  8
0
 62
     135
 10
15.9633
 20
23.2779
 30
0.0
 11
16.4281
 21
23.1089
 31
0.0
  0
LINE
  8
0
 62
     135
 10
16.4281
 20
23.1089
 30
0.0
 11
16.885
 21
22.9196
 31
0.0
  0
LINE
  8
0
 62
     135
 10
16.885
 20
22.9196
 30
0.0
 11
17.3333
 21
22.7101
 31
0.0
  0
LINE
  8
0
 62
     135
 10
17.3333
 20
22.7101
 30
0.0
 11
17.7722
 21
22.4806
 31
0.0
  0
LINE
  8
0
 62
     135
 10
17.7722
 20
22.4806
 30
0.0
 11
18.3149
 21
22.1674
 31
0.0
  0
LINE
  8
0
 62
     135
 10
18.3149
 20
22.1674
 30
0.0
 11
18.8388
 21
21.8247
 31
0.0
  0
LINE
  8
0
 62
     135
 10
18.8388
 20
21.8247
 30
0.0
 11
19.3431
 21
21.4538
 31
0.0
  0
LINE
  8
0
 62
     135
 10
19.3431
 20
21.4538
 30
0.0
 11
19.8265
 21
21.056
 31
0.0
  0
LINE
  8
0
 62
     135
 10
19.8265
 20
21.056
 30
0.0
 11
20.2879
 21
20.6329
 31
0.0
  0
LINE
  8
0
 62
     135
 10
20.2879
 20
20.6329
 30
0.0
 11
20.7264
 21
20.1858
 31
0.0
  0
LINE
  8
0
 62
     135
 10
20.7264
 20
20.1858
 30
0.0
 11
21.1406
 21
19.7162
 31
0.0
  0
LINE
  8
0
 62
     135
 10
21.1406
 20
19.7162
 30
0.0
 11
21.5294
 21
19.2254
 31
0.0
  0
LINE
  8
0
 62
     135
 10
21.5294
 20
19.2254
 30
0.0
 11
21.8919
 21
18.7149
 31
0.0
  0
LINE
  8
0
 62
     135
 10
21.8919
 20
18.7149
 30
0.0
 11
22.2269
 21
18.186
 31
0.0
  0
LINE
  8
0
 62
     135
 10
22.2269
 20
18.186
 30
0.0
 11
22.5335
 21
17.64
 31
0.0
  0
LINE
  8
0
 62
     135
 10
22.5335
 20
17.64
 30
0.0
 11
22.81
 21
17.0786
 31
0.0
  0
LINE
  8
0
 62
     135
 10
22.81
 20
17.0786
 30
0.0
 11
23.0558
 21
16.5031
 31
0.0
  0
LINE
  8
0
 62
     135
 10
23.0558
 20
16.5031
 30
0.0
 11
23.2697
 21
15.9147
 31
0.0
  0
LINE
  8
0
 62
     135
 10
23.2697
 20
15.9147
 30
0.0
 11
23.4506
 21
15.3151
 31
0.0
  0
LINE
  8
0
 62
     135
 10
23.4506
 20
15.3151
 30
0.0
 11
23.5972
 21
14.7056
 31
0.0
  0
LINE
  8
0
 62
     135
 10
23.5972
 20
14.7056
 30
0.0
 11
23.7118
 21
14.1114
 31
0.0
  0
LINE
  8
0
 62
     135
 10
23.7118
 20
14.1114
 30
0.0
 11
23.7942
 21
13.5124
 31
0.0
  0
LINE
  8
0
 62
     135
 10
23.7942
 20
13.5124
 30
0.0
 11
23.8447
 21
12.91
 31
0.0
  0
LINE
  8
0
 62
     135
 10
23.8447
 20
12.91
 30
0.0
 11
23.8637
 21
12.3058
 31
0.0
  0
LINE
  8
0
 62
     135
 10
23.8637
 20
12.3058
 30
0.0
 11
23.8514
 21
11.7014
 31
0.0
  0
LINE
  8
0
 62
     135
 10
23.8514
 20
11.7014
 30
0.0
 11
23.8081
 21
11.0985
 31
0.0
  0
LINE
  8
0
 62
     135
 10
23.8081
 20
11.0985
 30
0.0
 11
23.734
 21
10.4985
 31
0.0
  0
LINE
  8
0
 62
     135
 10
23.734
 20
10.4985
 30
0.0
 11
23.6294
 21
9.90315
 31
0.0
  0
LINE
  8
0
 62
     135
 10
23.6294
 20
9.90315
 30
0.0
 11
23.4947
 21
9.31392
 31
0.0
  0
LINE
  8
0
 62
     135
 10
23.4947
 20
9.31392
 30
0.0
 11
23.3301
 21
8.73242
 31
0.0
  0
LINE
  8
0
 62
     135
 10
23.3301
 20
8.73242
 30
0.0
 11
23.136
 21
8.16026
 31
0.0
  0
LINE
  8
0
 62
     135
 10
23.136
 20
8.16026
 30
0.0
 11
22.9125
 21
7.59896
 31
0.0
  0
LINE
  8
0
 62
     135
 10
22.9125
 20
7.59896
 30
0.0
 11
22.6599
 21
7.05018
 31
0.0
  0
LINE
  8
0
 62
     135
 10
22.6599
 20
7.05018
 30
0.0
 11
22.3785
 21
6.5154
 31
0.0
  0
LINE
  8
0
 62
     135
 10
22.3785
 20
6.5154
 30
0.0
 11
22.0686
 21
5.99636
 31
0.0
  0
LINE
  8
0
 62
     135
 10
22.0686
 20
5.99636
 30
0.0
 11
21.7306
 21
5.49447
 31
0.0
  0
LINE
  8
0
 62
     135
 10
21.7306
 20
5.49447
 30
0.0
 11
21.3475
 21
4.97814
 31
0.0
  0
LINE
  8
0
 62
     135
 10
21.3475
 20
4.97814
 30
0.0
 11
20.9357
 21
4.48492
 31
0.0
  0
LINE
  8
0
 62
     135
 10
20.9357
 20
4.48492
 30
0.0
 11
20.4971
 21
4.0159
 31
0.0
  0
LINE
  8
0
 62
     135
 10
20.4971
 20
4.0159
 30
0.0
 11
20.0329
 21
3.57206
 31
0.0
  0
LINE
  8
0
 62
     135
 10
20.0329
 20
3.57206
 30
0.0
 11
19.5451
 21
3.1544
 31
0.0
  0
LINE
  8
0
 62
     135
 10
19.5451
 20
3.1544
 30
0.0
 11
19.0353
 21
2.76406
 31
0.0
  0
LINE
  8
0
 62
     135
 10
19.0353
 20
2.76406
 30
0.0
 11
18.505
 21
2.40196
 31
0.0
  0
LINE
  8
0
 62
     135
 10
18.505
 20
2.40196
 30
0.0
 11
17.9558
 21
2.06913
 31
0.0
  0
LINE
  8
0
 62
     135
 10
17.9558
 20
2.06913
 30
0.0
 11
17.3896
 21
1.7666
 31
0.0
  0
LINE
  8
0
 62
     135
 10
17.3896
 20
1.7666
 30
0.0
 11
16.8079
 21
1.49539
 31
0.0
  0
LINE
  8
0
 62
     135
 10
16.8079
 20
1.49539
 30
0.0
 11
16.2122
 21
1.25657
 31
0.0
  0
LINE
  8
0
 62
     135
 10
16.2122
 20
1.25657
 30
0.0
 11
15.6044
 21
1.05111
 31
0.0
  0
LINE
  8
0
 62
     135
 10
15.6044
 20
1.05111
 30
0.0
 11
14.9858
 21
0.880046
 31
0.0
  0
LINE
  8
0
 62
     135
 10
14.9858
 20
0.880046
 30
0.0
 11
14.3585
 21
0.744358
 31
0.0
  0
LINE
  8
0
 62
     135
 10
14.3585
 20
0.744358
 30
0.0
 11
13.7237
 21
0.645128
 31
0.0
  0
LINE
  8
0
 62
     135
 10
13.7237
 20
0.645128
 30
0.0
 11
13.0833
 21
0.583333
 31
0.0
  0
LINE
  8
0
 62
     135
 10
13.0833
 20
0.583333
 30
0.0
 11
12.5421
 21
0.552843
 31
0.0
  0
LINE
  8
0
 62
     135
 10
12.5421
 20
0.552843
 30
0.0
 11
12.0004
 21
0.548665
 31
0.0
  0
LINE
  8
0
 62
     135
 10
12.0004
 20
0.548665
 30
0.0
 11
11.4594
 21
0.570367
 31
0.0
  0
LINE
  8
0
 62
     135
 10
11.4594
 20
0.570367
 30
0.0
 11
10.9201
 21
0.617676
 31
0.0
  0
LINE
  8
0
 62
     135
 10
10.9201
 20
0.617676
 30
0.0
 11
10.3837
 21
0.690267
 31
0.0
  0
LINE
  8
0
 62
     135
 10
10.3837
 20
0.690267
 30
0.0
 11
9.85129
 21
0.787706
 31
0.0
  0
LINE
  8
0
 62
     135
 10
9.85129
 20
0.787706
 30
0.0
 11
9.32389
 21
0.909722
 31
0.0
  0
LINE
  8
0
 62
     135
 10
9.32389
 20
0.909722
 30
0.0
 11
8.80274
 21
1.05593
 31
0.0
  0
LINE
  8
0
 62
     135
 10
8.80274
 20
1.05593
 30
0.0
 11
8.28885
 21
1.22602
 31
0.0
  0
LINE
  8
0
 62
     135
 10
8.28885
 20
1.22602
 30
0.0
 11
7.78336
 21
1.4196
 31
0.0
  0
LINE
  8
0
 62
     135
 10
7.78336
 20
1.4196
 30
0.0
 11
7.28743
 21
1.63633
 31
0.0
  0
LINE
  8
0
 62
     135
 10
7.28743
 20
1.63633
 30
0.0
 11
6.80203
 21
1.87592
 31
0.0
  0
LINE
  8
0
 62
     135
 10
6.80203
 20
1.87592
 30
0.0
 11
6.3284
 21
2.13797
 31
0.0
  0
LINE
  8
0
 62
     135
 10
6.3284
 20
2.13797
 30
0.0
 11
5.86757
 21
2.42219
 31
0.0
  0
LINE
  8
0
 62
     135
 10
5.86757
 20
2.42219
 30
0.0
 11
5.42068
 21
2.72819
 31
0.0
  0
LINE
  8
0
 62
     135
 10
5.42068
 20
2.72819
 30
0.0
 11
4.98888
 21
3.05556
 31
0.0
  0
LINE
  8
0
 62
     135
 10
4.98888
 20
3.05556
 30
0.0
 11
4.53624
 21
3.42996
 31
0.0
  0
LINE
  8
0
 62
     135
 10
4.53624
 20
3.42996
 30
0.0
 11
4.10394
 21
3.82731
 31
0.0
  0
LINE
  8
0
 62
     135
 10
4.10394
 20
3.82731
 30
0.0
 11
3.69265
 21
4.24631
 31
0.0
  0
LINE
  8
0
 62
     135
 10
3.69265
 20
4.24631
 30
0.0
 11
3.30317
 21
4.68565
 31
0.0
  0
LINE
  8
0
 62
     135
 10
3.30317
 20
4.68565
 30
0.0
 11
2.93625
 21
5.1441
 31
0.0
  0
LINE
  8
0
 62
     135
 10
2.93625
 20
5.1441
 30
0.0
 11
2.59267
 21
5.62039
 31
0.0
  0
LINE
  8
0
 62
     135
 10
2.59267
 20
5.62039
 30
0.0
 11
2.27317
 21
6.11317
 31
0.0
  0
LINE
  8
0
 62
     135
 10
2.27317
 20
6.11317
 30
0.0
 11
1.97846
 21
6.62121
 31
0.0
  0
LINE
  8
0
 62
     135
 10
1.97846
 20
6.62121
 30
0.0
 11
1.70936
 21
7.14322
 31
0.0
  0
LINE
  8
0
 62
     135
 10
1.70936
 20
7.14322
 30
0.0
 11
1.46658
 21
7.6779
 31
0.0
  0
LINE
  8
0
 62
     135
 10
1.46658
 20
7.6779
 30
0.0
 11
1.25092
 21
8.22401
 31
0.0
  0
LINE
  8
0
 62
     135
 10
1.25092
 20
8.22401
 30
0.0
 11
1.0631
 21
8.78022
 31
0.0
  0
LINE
  8
0
 62
     135
 10
1.0631
 20
8.78022
 30
0.0
 11
0.903917
 21
9.34526
 31
0.0
  0
LINE
  8
0
 62
     135
 10
0.903917
 20
9.34526
 30
0.0
 11
0.774089
 21
9.91786
 31
0.0
  0
LINE
  8
0
 62
     135
 10
0.774089
 20
9.91786
 30
0.0
 11
0.674371
 21
10.4967
 31
0.0
  0
LINE
  8
0
 62
     135
 10
0.674371
 20
10.4967
 30
0.0
 11
0.605578
 21
11.0806
 31
0.0
  0
LINE
  8
0
 62
     135
 10
0.605578
 20
11.0806
 30
0.0
 11
0.564507
 21
11.6013
 31
0.0
  0
LINE
  8
0
 62
     135
 10
0.564507
 20
11.6013
 30
0.0
 11
0.547526
 21
12.1231
 31
0.0
  0
LINE
  8
0
 62
     135
 10
0.547526
 20
12.1231
 30
0.0
 11
0.554363
 21
12.6451
 31
0.0
  0
LINE
  8
0
 62
     135
 10
0.554363
 20
12.6451
 30
0.0
 11
0.584744
 21
13.1661
 31
0.0
  0
LINE
  8
0
 62
     135
 10
0.584744
 20
13.1661
 30
0.0
 11
0.638456
 21
13.6853
 31
0.0
  0
LINE
  8
0
 62
     135
 10
0.638456
 20
13.6853
 30
0.0
 11
0.715224
 21
14.2015
 31
0.0
  0
LINE
  8
0
 62
     135
 10
0.715224
 20
14.2015
 30
0.0
 11
0.814888
 21
14.7139
 31
0.0
  0
LINE
  8
0
 62
     135
 10
0.814888
 20
14.7139
 30
0.0
 11
0.937121
 21
15.2213
 31
0.0
  0
LINE
  8
0
 62
     135
 10
0.937121
 20
15.2213
 30
0.0
 11
1.08171
 21
15.7226
 31
0.0
  0
LINE
  8
0
 62
     135
 10
1.08171
 20
15.7226
 30
0.0
 11
1.24843
 21
16.2171
 31
0.0
  0
LINE
  8
0
 62
     135
 10
1.24843
 20
16.2171
 30
0.0
 11
1.43707
 21
16.7035
 31
0.0
  0
LINE
  8
0
 62
     135
 10
1.43707
 20
16.7035
 30
0.0
 11
1.64729
 21
17.181
 31
0.0
  0
LINE
  8
0
 62
     135
 10
1.64729
 20
17.181
 30
0.0
 11
1.87896
 21
17.6485
 31
0.0
  0
LINE
  8
0
 62
     135
 10
1.87896
 20
17.6485
 30
0.0
 11
2.13178
 21
18.1049
 31
0.0
  0
LINE
  8
0
 62
     135
 10
2.13178
 20
18.1049
 30
0.0
 11
2.40554
 21
18.5493
 31
0.0
  0
LINE
  8
0
 62
     135
 10
2.40554
 20
18.5493
 30
0.0
 11
2.69997
 21
18.9806
 31
0.0
  0
LINE
  8
0
 62
     135
 10
2.69997
 20
18.9806
 30
0.0
 11
3.03624
 21
19.4331
 31
0.0
  0
LINE
  8
0
 62
     135
 10
3.03624
 20
19.4331
 30
0.0
 11
3.39447
 21
19.8678
 31
0.0
  0
LINE
  8
0
 62
     135
 10
3.39447
 20
19.8678
 30
0.0
 11
3.77354
 21
20.2843
 31
0.0
  0
LINE
  8
0
 62
     135
 10
3.77354
 20
20.2843
 30
0.0
 11
4.17231
 21
20.6818
 31
0.0
  0
LINE
  8
0
 62
     135
 10
4.17231
 20
20.6818
 30
0.0
 11
4.58979
 21
21.0596
 31
0.0
  0
LINE
  8
0
 62
     135
 10
4.58979
 20
21.0596
 30
0.0
 11
5.02485
 21
21.4169
 31
0.0
  0
LINE
  8
0
 62
     135
 10
5.02485
 20
21.4169
 30
0.0
 11
5.4764
 21
21.7531
 31
0.0
  0
LINE
  8
0
 62
     135
 10
5.4764
 20
21.7531
 30
0.0
 11
5.94336
 21
22.0674
 31
0.0
  0
LINE
  8
0
 62
     135
 10
5.94336
 20
22.0674
 30
0.0
 11
6.42475
 21
22.3592
 31
0.0
  0
LINE
  8
0
 62
     135
 10
6.42475
 20
22.3592
 30
0.0
 11
6.91938
 21
22.6275
 31
0.0
  0
LINE
  8
0
 62
     135
 10
6.91938
 20
22.6275
 30
0.0
 11
7.42617
 21
22.8719
 31
0.0
  0
LINE
  8
0
 62
     135
 10
7.42617
 20
22.8719
 30
0.0
 11
7.94412
 21
23.0915
 31
0.0
  0
LINE
  8
0
 62
     135
 10
7.94412
 20
23.0915
 30
0.0
 11
8.47211
 21
23.2857
 31
0.0
  0
LINE
  8
0
 62
     135
 10
8.47211
 20
23.2857
 30
0.0
 11
9.00906
 21
23.4538
 31
0.0
  0
LINE
  8
0
 62
     135
 10
9.00906
 20
23.4538
 30
0.0
 11
9.55393
 21
23.5949
 31
0.0
  0
LINE
  8
0
 62
     135
 10
9.55393
 20
23.5949
 30
0.0
 11
10.1056
 21
23.7083
 31
0.0
  0
LINE
  8
0
 62
     7
 10
10.1
 20
21.2694
 30
0.0
 11
10.5238
 21
21.3664
 31
0.0
  0
LINE
  8
0
 62
     7
 10
10.5238
 20
21.3664
 30
0.0
 11
10.9498
 21
21.4406
 31
0.0
  0
LINE
  8
0
 62
     7
 10
10.9498
 20
21.4406
 30
0.0
 11
11.3774
 21
21.4922
 31
0.0
  0
LINE
  8
0
 62
     7
 10
11.3774
 20
21.4922
 30
0.0
 11
11.8058
 21
21.5218
 31
0.0
  0
LINE
  8
0
 62
     7
 10
11.8058
 20
21.5218
 30
0.0
 11
12.2341
 21
21.5297
 31
0.0
  0
LINE
  8
0
 62
     7
 10
12.2341
 20
21.5297
 30
0.0
 11
12.6616
 21
21.5165
 31
0.0
  0
LINE
  8
0
 62
     7
 10
12.6616
 20
21.5165
 30
0.0
 11
13.0876
 21
21.4826
 31
0.0
  0
LINE
  8
0
 62
     7
 10
13.0876
 20
21.4826
 30
0.0
 11
13.5113
 21
21.4283
 31
0.0
  0
LINE
  8
0
 62
     7
 10
13.5113
 20
21.4283
 30
0.0
 11
13.9319
 21
21.3543
 31
0.0
  0
LINE
  8
0
 62
     7
 10
13.9319
 20
21.3543
 30
0.0
 11
14.3487
 21
21.2607
 31
0.0
  0
LINE
  8
0
 62
     7
 10
14.3487
 20
21.2607
 30
0.0
 11
14.761
 21
21.1482
 31
0.0
  0
LINE
  8
0
 62
     7
 10
14.761
 20
21.1482
 30
0.0
 11
15.1679
 21
21.0171
 31
0.0
  0
LINE
  8
0
 62
     7
 10
15.1679
 20
21.0171
 30
0.0
 11
15.5686
 21
20.8678
 31
0.0
  0
LINE
  8
0
 62
     7
 10
15.5686
 20
20.8678
 30
0.0
 11
15.9624
 21
20.7008
 31
0.0
  0
LINE
  8
0
 62
     7
 10
15.9624
 20
20.7008
 30
0.0
 11
16.3486
 21
20.5167
 31
0.0
  0
LINE
  8
0
 62
     7
 10
16.3486
 20
20.5167
 30
0.0
 11
16.7264
 21
20.3157
 31
0.0
  0
LINE
  8
0
 62
     7
 10
16.7264
 20
20.3157
 30
0.0
 11
17.095
 21
20.0982
 31
0.0
  0
LINE
  8
0
 62
     7
 10
17.095
 20
20.0982
 30
0.0
 11
17.4536
 21
19.8649
 31
0.0
  0
LINE
  8
0
 62
     7
 10
17.4536
 20
19.8649
 30
0.0
 11
17.8015
 21
19.6158
 31
0.0
  0
LINE
  8
0
 62
     7
 10
17.8015
 20
19.6158
 30
0.0
 11
18.1381
 21
19.3518
 31
0.0
  0
LINE
  8
0
 62
     7
 10
18.1381
 20
19.3518
 30
0.0
 11
18.4622
 21
19.0732
 31
0.0
  0
LINE
  8
0
 62
     7
 10
18.4622
 20
19.0732
 30
0.0
 11
18.7735
 21
18.7803
 31
0.0
  0
LINE
  8
0
 62
     7
 10
18.7735
 20
18.7803
 30
0.0
 11
19.071
 21
18.4735
 31
0.0
  0
LINE
  8
0
 62
     7
 10
19.071
 20
18.4735
 30
0.0
 11
19.3539
 21
18.1535
 31
0.0
  0
LINE
  8
0
 62
     7
 10
19.3539
 20
18.1535
 30
0.0
 11
19.6215
 21
17.8204
 31
0.0
  0
LINE
  8
0
 62
     7
 10
19.6215
 20
17.8204
 30
0.0
 11
19.8731
 21
17.475
 31
0.0
  0
LINE
  8
0
 62
     7
 10
19.8731
 20
17.475
 30
0.0
 11
20.1079
 21
17.1174
 31
0.0
  0
LINE
  8
0
 62
     7
 10
20.1079
 20
17.1174
 30
0.0
 11
20.3251
 21
16.7482
 31
0.0
  0
LINE
  8
0
 62
     7
 10
20.3251
 20
16.7482
 30
0.0
 11
20.5239
 21
16.3678
 31
0.0
  0
LINE
  8
0
 62
     7
 10
20.5239
 20
16.3678
 30
0.0
 11
20.7036
 21
15.9767
 31
0.0
  0
LINE
  8
0
 62
     7
 10
20.7036
 20
15.9767
 30
0.0
 11
20.8635
 21
15.5753
 31
0.0
  0
LINE
  8
0
 62
     7
 10
20.8635
 20
15.5753
 30
0.0
 11
21.0028
 21
15.1639
 31
0.0
  0
LINE
  8
0
 62
     7
 10
21.0028
 20
15.1639
 30
0.0
 11
21.1403
 21
14.746
 31
0.0
  0
LINE
  8
0
 62
     7
 10
21.1403
 20
14.746
 30
0.0
 11
21.2547
 21
14.3235
 31
0.0
  0
LINE
  8
0
 62
     7
 10
21.2547
 20
14.3235
 30
0.0
 11
21.3464
 21
13.8974
 31
0.0
  0
LINE
  8
0
 62
     7
 10
21.3464
 20
13.8974
 30
0.0
 11
21.4157
 21
13.4683
 31
0.0
  0
LINE
  8
0
 62
     7
 10
21.4157
 20
13.4683
 30
0.0
 11
21.4631
 21
13.0371
 31
0.0
  0
LINE
  8
0
 62
     7
 10
21.4631
 20
13.0371
 30
0.0
 11
21.4887
 21
12.6048
 31
0.0
  0
LINE
  8
0
 62
     7
 10
21.4887
 20
12.6048
 30
0.0
 11
21.4932
 21
12.172
 31
0.0
  0
LINE
  8
0
 62
     7
 10
21.4932
 20
12.172
 30
0.0
 11
21.4768
 21
11.7397
 31
0.0
  0
LINE
  8
0
 62
     7
 10
21.4768
 20
11.7397
 30
0.0
 11
21.44
 21
11.3087
 31
0.0
  0
LINE
  8
0
 62
     7
 10
21.44
 20
11.3087
 30
0.0
 11
21.3829
 21
10.8797
 31
0.0
  0
LINE
  8
0
 62
     7
 10
21.3829
 20
10.8797
 30
0.0
 11
21.3061
 21
10.4537
 31
0.0
  0
LINE
  8
0
 62
     7
 10
21.3061
 20
10.4537
 30
0.0
 11
21.21
 21
10.0315
 31
0.0
  0
LINE
  8
0
 62
     7
 10
21.21
 20
10.0315
 30
0.0
 11
21.0949
 21
9.61382
 31
0.0
  0
LINE
  8
0
 62
     7
 10
21.0949
 20
9.61382
 30
0.0
 11
20.9611
 21
9.20167
 31
0.0
  0
LINE
  8
0
 62
     7
 10
20.9611
 20
9.20167
 30
0.0
 11
20.8092
 21
8.79574
 31
0.0
  0
LINE
  8
0
 62
     7
 10
20.8092
 20
8.79574
 30
0.0
 11
20.6392
 21
8.39692
 31
0.0
  0
LINE
  8
0
 62
     7
 10
20.6392
 20
8.39692
 30
0.0
 11
20.4518
 21
8.00603
 31
0.0
  0
LINE
  8
0
 62
     7
 10
20.4518
 20
8.00603
 30
0.0
 11
20.2472
 21
7.62392
 31
0.0
  0
LINE
  8
0
 62
     7
 10
20.2472
 20
7.62392
 30
0.0
 11
20.026
 21
7.25142
 31
0.0
  0
LINE
  8
0
 62
     7
 10
20.026
 20
7.25142
 30
0.0
 11
19.7883
 21
6.88932
 31
0.0
  0
LINE
  8
0
 62
     7
 10
19.7883
 20
6.88932
 30
0.0
 11
19.5346
 21
6.53851
 31
0.0
  0
LINE
  8
0
 62
     7
 10
19.5346
 20
6.53851
 30
0.0
 11
19.2653
 21
6.19982
 31
0.0
  0
LINE
  8
0
 62
     7
 10
19.2653
 20
6.19982
 30
0.0
 11
18.9807
 21
5.87403
 31
0.0
  0
LINE
  8
0
 62
     7
 10
18.9807
 20
5.87403
 30
0.0
 11
18.6813
 21
5.56196
 31
0.0
  0
LINE
  8
0
 62
     7
 10
18.6813
 20
5.56196
 30
0.0
 11
18.3674
 21
5.26454
 31
0.0
  0
LINE
  8
0
 62
     7
 10
18.3674
 20
5.26454
 30
0.0
 11
18.0392
 21
4.98253
 31
0.0
  0
LINE
  8
0
 62
     7
 10
18.0392
 20
4.98253
 30
0.0
 11
17.6972
 21
4.71679
 31
0.0
  0
LINE
  8
0
 62
     7
 10
17.6972
 20
4.71679
 30
0.0
 11
17.3419
 21
4.46815
 31
0.0
  0
LINE
  8
0
 62
     7
 10
17.3419
 20
4.46815
 30
0.0
 11
16.9737
 21
4.23747
 31
0.0
  0
LINE
  8
0
 62
     7
 10
16.9737
 20
4.23747
 30
0.0
 11
16.5928
 21
4.0255
 31
0.0
  0
LINE
  8
0
 62
     7
 10
16.5928
 20
4.0255
 30
0.0
 11
16.1996
 21
3.83311
 31
0.0
  0
LINE
  8
0
 62
     7
 10
16.1996
 20
3.83311
 30
0.0
 11
15.7944
 21
3.66114
 31
0.0
  0
LINE
  8
0
 62
     7
 10
15.7944
 20
3.66114
 30
0.0
 11
15.3978
 21
3.49582
 31
0.0
  0
LINE
  8
0
 62
     7
 10
15.3978
 20
3.49582
 30
0.0
 11
14.9951
 21
3.35215
 31
0.0
  0
LINE
  8
0
 62
     7
 10
14.9951
 20
3.35215
 30
0.0
 11
14.5872
 21
3.22999
 31
0.0
  0
LINE
  8
0
 62
     7
 10
14.5872
 20
3.22999
 30
0.0
 11
14.1749
 21
3.1289
 31
0.0
  0
LINE
  8
0
 62
     7
 10
14.1749
 20
3.1289
 30
0.0
 11
13.7587
 21
3.04872
 31
0.0
  0
LINE
  8
0
 62
     7
 10
13.7587
 20
3.04872
 30
0.0
 11
13.3397
 21
2.9891
 31
0.0
  0
LINE
  8
0
 62
     7
 10
13.3397
 20
2.9891
 30
0.0
 11
12.9186
 21
2.94976
 31
0.0
  0
LINE
  8
0
 62
     7
 10
12.9186
 20
2.94976
 30
0.0
 11
12.4963
 21
2.93044
 31
0.0
  0
LINE
  8
0
 62
     7
 10
12.4963
 20
2.93044
 30
0.0
 11
12.0736
 21
2.93083
 31
0.0
  0
LINE
  8
0
 62
     7
 10
12.0736
 20
2.93083
 30
0.0
 11
11.6512
 21
2.95063
 31
0.0
  0
LINE
  8
0
 62
     7
 10
11.6512
 20
2.95063
 30
0.0
 11
11.23
 21
2.98958
 31
0.0
  0
LINE
  8
0
 62
     7
 10
11.23
 20
2.98958
 30
0.0
 11
10.8108
 21
3.04742
 31
0.0
  0
LINE
  8
0
 62
     7
 10
10.8108
 20
3.04742
 30
0.0
 11
10.3944
 21
3.12381
 31
0.0
  0
LINE
  8
0
 62
     7
 10
10.3944
 20
3.12381
 30
0.0
 11
9.98161
 21
3.21847
 31
0.0
  0
LINE
  8
0
 62
     7
 10
9.98161
 20
3.21847
 30
0.0
 11
9.57324
 21
3.33111
 31
0.0
  0
LINE
  8
0
 62
     7
 10
9.57324
 20
3.33111
 30
0.0
 11
9.17008
 21
3.46149
 31
0.0
  0
LINE
  8
0
 62
     7
 10
9.17008
 20
3.46149
 30
0.0
 11
8.773
 21
3.60926
 31
0.0
  0
LINE
  8
0
 62
     7
 10
8.773
 20
3.60926
 30
0.0
 11
8.38276
 21
3.77419
 31
0.0
  0
LINE
  8
0
 62
     7
 10
8.38276
 20
3.77419
 30
0.0
 11
8.00017
 21
3.956
 31
0.0
  0
LINE
  8
0
 62
     7
 10
8.00017
 20
3.956
 30
0.0
 11
7.62603
 21
4.15429
 31
0.0
  0
LINE
  8
0
 62
     7
 10
7.62603
 20
4.15429
 30
0.0
 11
7.26118
 21
4.36892
 31
0.0
  0
LINE
  8
0
 62
     7
 10
7.26118
 20
4.36892
 30
0.0
 11
6.90642
 21
4.59956
 31
0.0
  0
LINE
  8
0
 62
     7
 10
6.90642
 20
4.59956
 30
0.0
 11
6.5625
 21
4.84586
 31
0.0
  0
LINE
  8
0
 62
     7
 10
6.5625
 20
4.84586
 30
0.0
 11
6.23036
 21
5.10764
 31
0.0
  0
LINE
  8
0
 62
     7
 10
6.23036
 20
5.10764
 30
0.0
 11
5.91069
 21
5.3845
 31
0.0
  0
LINE
  8
0
 62
     7
 10
5.91069
 20
5.3845
 30
0.0
 11
5.60439
 21
5.67622
 31
0.0
  0
LINE
  8
0
 62
     7
 10
5.60439
 20
5.67622
 30
0.0
 11
5.31222
 21
5.98247
 31
0.0
  0
LINE
  8
0
 62
     7
 10
5.31222
 20
5.98247
 30
0.0
 11
5.035
 21
6.30306
 31
0.0
  0
LINE
  8
0
 62
     7
 10
5.035
 20
6.30306
 30
0.0
 11
4.77349
 21
6.63758
 31
0.0
  0
LINE
  8
0
 62
     7
 10
4.77349
 20
6.63758
 30
0.0
 11
4.52854
 21
6.98583
 31
0.0
  0
LINE
  8
0
 62
     7
 10
4.52854
 20
6.98583
 30
0.0
 11
4.301
 21
7.3475
 31
0.0
  0
LINE
  8
0
 62
     7
 10
4.301
 20
7.3475
 30
0.0
 11
4.09169
 21
7.72222
 31
0.0
  0
LINE
  8
0
 62
     7
 10
4.09169
 20
7.72222
 30
0.0
 11
3.88569
 21
8.09885
 31
0.0
  0
LINE
  8
0
 62
     7
 10
3.88569
 20
8.09885
 30
0.0
 11
3.70047
 21
8.48389
 31
0.0
  0
LINE
  8
0
 62
     7
 10
3.70047
 20
8.48389
 30
0.0
 11
3.53575
 21
8.87646
 31
0.0
  0
LINE
  8
0
 62
     7
 10
3.53575
 20
8.87646
 30
0.0
 11
3.39144
 21
9.27572
 31
0.0
  0
LINE
  8
0
 62
     7
 10
3.39144
 20
9.27572
 30
0.0
 11
3.26731
 21
9.68093
 31
0.0
  0
LINE
  8
0
 62
     7
 10
3.26731
 20
9.68093
 30
0.0
 11
3.16319
 21
10.0912
 31
0.0
  0
LINE
  8
0
 62
     7
 10
3.16319
 20
10.0912
 30
0.0
 11
3.07883
 21
10.5057
 31
0.0
  0
LINE
  8
0
 62
     7
 10
3.07883
 20
10.5057
 30
0.0
 11
3.01406
 21
10.9236
 31
0.0
  0
LINE
  8
0
 62
     7
 10
3.01406
 20
10.9236
 30
0.0
 11
2.96875
 21
11.3441
 31
0.0
  0
LINE
  8
0
 62
     7
 10
2.96875
 20
11.3441
 30
0.0
 11
2.94265
 21
11.7663
 31
0.0
  0
LINE
  8
0
 62
     7
 10
2.94265
 20
11.7663
 30
0.0
 11
2.9356
 21
12.1893
 31
0.0
  0
LINE
  8
0
 62
     7
 10
2.9356
 20
12.1893
 30
0.0
 11
2.94743
 21
12.6125
 31
0.0
  0
LINE
  8
0
 62
     7
 10
2.94743
 20
12.6125
 30
0.0
 11
2.97792
 21
13.0349
 31
0.0
  0
LINE
  8
0
 62
     7
 10
2.97792
 20
13.0349
 30
0.0
 11
3.02686
 21
13.4558
 31
0.0
  0
LINE
  8
0
 62
     7
 10
3.02686
 20
13.4558
 30
0.0
 11
3.09412
 21
13.8741
 31
0.0
  0
LINE
  8
0
 62
     7
 10
3.09412
 20
13.8741
 30
0.0
 11
3.17947
 21
14.2893
 31
0.0
  0
LINE
  8
0
 62
     7
 10
3.17947
 20
14.2893
 30
0.0
 11
3.28271
 21
14.7003
 31
0.0
  0
LINE
  8
0
 62
     7
 10
3.28271
 20
14.7003
 30
0.0
 11
3.40369
 21
15.1064
 31
0.0
  0
LINE
  8
0
 62
     7
 10
3.40369
 20
15.1064
 30
0.0
 11
3.54221
 21
15.5067
 31
0.0
  0
LINE
  8
0
 62
     7
 10
3.54221
 20
15.5067
 30
0.0
 11
3.69808
 21
15.9006
 31
0.0
  0
LINE
  8
0
 62
     7
 10
3.69808
 20
15.9006
 30
0.0
 11
3.8711
 21
16.2868
 31
0.0
  0
LINE
  8
0
 62
     7
 10
3.8711
 20
16.2868
 30
0.0
 11
4.06108
 21
16.6649
 31
0.0
  0
LINE
  8
0
 62
     7
 10
4.06108
 20
16.6649
 30
0.0
 11
4.26785
 21
17.0339
 31
0.0
  0
LINE
  8
0
 62
     7
 10
4.26785
 20
17.0339
 30
0.0
 11
4.49121
 21
17.3929
 31
0.0
  0
LINE
  8
0
 62
     7
 10
4.49121
 20
17.3929
 30
0.0
 11
4.73101
 21
17.7413
 31
0.0
  0
LINE
  8
0
 62
     7
 10
4.73101
 20
17.7413
 30
0.0
 11
4.98697
 21
18.0779
 31
0.0
  0
LINE
  8
0
 62
     7
 10
4.98697
 20
18.0779
 30
0.0
 11
5.25896
 21
18.4022
 31
0.0
  0
LINE
  8
0
 62
     7
 10
5.25896
 20
18.4022
 30
0.0
 11
5.54682
 21
18.7133
 31
0.0
  0
LINE
  8
0
 62
     7
 10
5.54682
 20
18.7133
 30
0.0
 11
5.85026
 21
19.0103
 31
0.0
  0
LINE
  8
0
 62
     7
 10
5.85026
 20
19.0103
 30
0.0
 11
6.16922
 21
19.2924
 31
0.0
  0
LINE
  8
0
 62
     7
 10
6.16922
 20
19.2924
 30
0.0
 11
6.50342
 21
19.5586
 31
0.0
  0
LINE
  8
0
 62
     7
 10
6.50342
 20
19.5586
 30
0.0
 11
6.85275
 21
19.8083
 31
0.0
  0
LINE
  8
0
 62
     7
 10
6.85275
 20
19.8083
 30
0.0
 11
7.22444
 21
20.0578
 31
0.0
  0
LINE
  8
0
 62
     7
 10
7.22444
 20
20.0578
 30
0.0
 11
7.60781
 21
20.289
 31
0.0
  0
LINE
  8
0
 62
     7
 10
7.60781
 20
20.289
 30
0.0
 11
8.00179
 21
20.5017
 31
0.0
  0
LINE
  8
0
 62
     7
 10
8.00179
 20
20.5017
 30
0.0
 11
8.40554
 21
20.6951
 31
0.0
  0
LINE
  8
0
 62
     7
 10
8.40554
 20
20.6951
 30
0.0
 11
8.81814
 21
20.8692
 31
0.0
  0
LINE
  8
0
 62
     7
 10
8.81814
 20
20.8692
 30
0.0
 11
9.23867
 21
21.0232
 31
0.0
  0
LINE
  8
0
 62
     7
 10
9.23867
 20
21.0232
 30
0.0
 11
9.66624
 21
21.1568
 31
0.0
  0
LINE
  8
0
 62
     7
 10
9.66624
 20
21.1568
 30
0.0
 11
10.1
 21
21.2694
 31
0.0
  0
LINE
  8
0
 62
     30
 10
9.10558
 20
18.5444
 30
0.0
 11
12.0806
 21
20.2667
 31
0.0
  0
LINE
  8
0
 62
     30
 10
12.0806
 20
20.2667
 30
0.0
 11
14.375
 21
16.2861
 31
0.0
  0
LINE
  8
0
 62
     30
 10
14.375
 20
16.2861
 30
0.0
 11
13.0305
 21
13.9611
 31
0.0
  0
LINE
  8
0
 62
     30
 10
13.0305
 20
13.9611
 30
0.0
 11
11.6861
 21
14.0833
 31
0.0
  0
LINE
  8
0
 62
     30
 10
11.6861
 20
14.0833
 30
0.0
 11
10.3895
 21
16.3118
 31
0.0
  0
LINE
  8
0
 62
     30
 10
10.3895
 20
16.3118
 30
0.0
 11
9.10558
 21
18.5444
 31
0.0
  0
LINE
  8
0
 62
     135
 10
25.7278
 20
18.6972
 30
0.0
 11
27.1418
 21
18.6961
 31
0.0
  0
LINE
  8
0
 62
     135
 10
27.1418
 20
18.6961
 30
0.0
 11
28.5556
 21
18.7014
 31
0.0
  0
LINE
  8
0
 62
     135
 10
28.5556
 20
18.7014
 30
0.0
 11
29.9692
 21
18.7004
 31
0.0
  0
LINE
  8
0
 62
     135
 10
29.9692
 20
18.7004
 30
0.0
 11
31.3833
 21
18.6806
 31
0.0
  0
LINE
  8
0
 62
     135
 10
31.3833
 20
18.6806
 30
0.0
 11
31.8589
 21
18.6565
 31
0.0
  0
LINE
  8
0
 62
     135
 10
31.8589
 20
18.6565
 30
0.0
 11
32.3372
 21
18.6019
 31
0.0
  0
LINE
  8
0
 62
     135
 10
32.3372
 20
18.6019
 30
0.0
 11
32.8114
 21
18.5125
 31
0.0
  0
LINE
  8
0
 62
     135
 10
32.8114
 20
18.5125
 30
0.0
 11
33.2746
 21
18.3833
 31
0.0
  0
LINE
  8
0
 62
     135
 10
33.2746
 20
18.3833
 30
0.0
 11
33.72
 21
18.2099
 31
0.0
  0
LINE
  8
0
 62
     135
 10
33.72
 20
18.2099
 30
0.0
 11
34.1407
 21
17.9876
 31
0.0
  0
LINE
  8
0
 62
     135
 10
34.1407
 20
17.9876
 30
0.0
 11
34.5299
 21
17.7118
 31
0.0
  0
LINE
  8
0
 62
     135
 10
34.5299
 20
17.7118
 30
0.0
 11
34.8806
 21
17.3778
 31
0.0
  0
LINE
  8
0
 62
     135
 10
34.8806
 20
17.3778
 30
0.0
 11
35.1692
 21
17.0304
 31
0.0
  0
LINE
  8
0
 62
     135
 10
35.1692
 20
17.0304
 30
0.0
 11
35.4125
 21
16.655
 31
0.0
  0
LINE
  8
0
 62
     135
 10
35.4125
 20
16.655
 30
0.0
 11
35.6108
 21
16.256
 31
0.0
  0
LINE
  8
0
 62
     135
 10
35.6108
 20
16.256
 30
0.0
 11
35.7646
 21
15.8381
 31
0.0
  0
LINE
  8
0
 62
     135
 10
35.7646
 20
15.8381
 30
0.0
 11
35.8743
 21
15.4056
 31
0.0
  0
LINE
  8
0
 62
     135
 10
35.8743
 20
15.4056
 30
0.0
 11
35.9404
 21
14.9633
 31
0.0
  0
LINE
  8
0
 62
     135
 10
35.9404
 20
14.9633
 30
0.0
 11
35.9632
 21
14.5158
 31
0.0
  0
LINE
  8
0
 62
     135
 10
35.9632
 20
14.5158
 30
0.0
 11
35.9431
 21
14.0678
 31
0.0
  0
LINE
  8
0
 62
     135
 10
35.9431
 20
14.0678
 30
0.0
 11
35.8804
 21
13.6234
 31
0.0
  0
LINE
  8
0
 62
     135
 10
35.8804
 20
13.6234
 30
0.0
 11
35.7758
 21
13.1876
 31
0.0
  0
LINE
  8
0
 62
     135
 10
35.7758
 20
13.1876
 30
0.0
 11
35.6297
 21
12.7647
 31
0.0
  0
LINE
  8
0
 62
     135
 10
35.6297
 20
12.7647
 30
0.0
 11
35.4422
 21
12.3594
 31
0.0
  0
LINE
  8
0
 62
     135
 10
35.4422
 20
12.3594
 30
0.0
 11
35.214
 21
11.9763
 31
0.0
  0
LINE
  8
0
 62
     135
 10
35.214
 20
11.9763
 30
0.0
 11
34.9454
 21
11.6199
 31
0.0
  0
LINE
  8
0
 62
     135
 10
34.9454
 20
11.6199
 30
0.0
 11
34.6369
 21
11.2948
 31
0.0
  0
LINE
  8
0
 62
     135
 10
34.6369
 20
11.2948
 30
0.0
 11
34.2889
 21
11.0055
 31
0.0
  0
LINE
  8
0
 62
     135
 10
34.2889
 20
11.0055
 30
0.0
 11
34.0372
 21
10.8225
 31
0.0
  0
LINE
  8
0
 62
     135
 10
34.0372
 20
10.8225
 30
0.0
 11
33.7754
 21
10.6678
 31
0.0
  0
LINE
  8
0
 62
     135
 10
33.7754
 20
10.6678
 30
0.0
 11
33.5046
 21
10.5391
 31
0.0
  0
LINE
  8
0
 62
     135
 10
33.5046
 20
10.5391
 30
0.0
 11
33.2257
 21
10.4339
 31
0.0
  0
LINE
  8
0
 62
     135
 10
33.2257
 20
10.4339
 30
0.0
 11
32.9397
 21
10.3502
 31
0.0
  0
LINE
  8
0
 62
     135
 10
32.9397
 20
10.3502
 30
0.0
 11
32.6478
 21
10.2853
 31
0.0
  0
LINE
  8
0
 62
     135
 10
32.6478
 20
10.2853
 30
0.0
 11
32.351
 21
10.2372
 31
0.0
  0
LINE
  8
0
 62
     135
 10
32.351
 20
10.2372
 30
0.0
 11
32.05
 21
10.2034
 31
0.0
  0
LINE
  8
0
 62
     135
 10
32.05
 20
10.2034
 30
0.0
 11
31.746
 21
10.1818
 31
0.0
  0
LINE
  8
0
 62
     135
 10
31.746
 20
10.1818
 30
0.0
 11
31.4401
 21
10.1698
 31
0.0
  0
LINE
  8
0
 62
     135
 10
31.4401
 20
10.1698
 30
0.0
 11
31.1332
 21
10.1652
 31
0.0
  0
LINE
  8
0
 62
     135
 10
31.1332
 20
10.1652
 30
0.0
 11
30.8264
 21
10.1657
 31
0.0
  0
LINE
  8
0
 62
     135
 10
30.8264
 20
10.1657
 30
0.0
 11
30.5206
 21
10.169
 31
0.0
  0
LINE
  8
0
 62
     135
 10
30.5206
 20
10.169
 30
0.0
 11
30.2168
 21
10.1727
 31
0.0
  0
LINE
  8
0
 62
     135
 10
30.2168
 20
10.1727
 30
0.0
 11
29.9161
 21
10.1746
 31
0.0
  0
LINE
  8
0
 62
     135
 10
29.9161
 20
10.1746
 30
0.0
 11
29.6194
 21
10.1722
 31
0.0
  0
LINE
  8
0
 62
     135
 10
29.6194
 20
10.1722
 30
0.0
 11
29.6194
 21
7.78054
 31
0.0
  0
LINE
  8
0
 62
     135
 10
29.6194
 20
7.78054
 30
0.0
 11
31.0444
 21
7.77501
 31
0.0
  0
LINE
  8
0
 62
     135
 10
31.0444
 20
7.77501
 30
0.0
 11
31.0417
 21
5.67779
 31
0.0
  0
LINE
  8
0
 62
     135
 10
31.0417
 20
5.67779
 30
0.0
 11
25.7278
 21
5.67779
 31
0.0
  0
LINE
  8
0
 62
     135
 10
25.7278
 20
5.67779
 30
0.0
 11
25.7278
 21
7.77501
 31
0.0
  0
LINE
  8
0
 62
     135
 10
25.7278
 20
7.77501
 30
0.0
 11
27.1194
 21
7.78054
 31
0.0
  0
LINE
  8
0
 62
     135
 10
27.1194
 20
7.78054
 30
0.0
 11
27.1167
 21
16.5944
 31
0.0
  0
LINE
  8
0
 62
     135
 10
27.1167
 20
16.5944
 30
0.0
 11
25.7278
 21
16.6
 31
0.0
  0
LINE
  8
0
 62
     135
 10
25.7278
 20
16.6
 30
0.0
 11
25.7278
 21
18.6972
 31
0.0
  0
LINE
  8
0
 62
     135
 10
38.125
 20
18.6972
 30
0.0
 11
40.3639
 21
18.6972
 31
0.0
  0
LINE
  8
0
 62
     135
 10
40.3639
 20
18.6972
 30
0.0
 11
40.3639
 21
16.3361
 31
0.0
  0
LINE
  8
0
 62
     135
 10
40.3639
 20
16.3361
 30
0.0
 11
38.125
 21
16.3361
 31
0.0
  0
LINE
  8
0
 62
     135
 10
38.125
 20
16.3361
 30
0.0
 11
38.125
 21
18.6972
 31
0.0
  0
LINE
  8
0
 62
     135
 10
64.4444
 20
18.6972
 30
0.0
 11
66.6833
 21
18.6972
 31
0.0
  0
LINE
  8
0
 62
     135
 10
66.6833
 20
18.6972
 30
0.0
 11
66.6833
 21
15.4167
 31
0.0
  0
LINE
  8
0
 62
     135
 10
66.6833
 20
15.4167
 30
0.0
 11
68.3306
 21
15.4167
 31
0.0
  0
LINE
  8
0
 62
     135
 10
68.3306
 20
15.4167
 30
0.0
 11
68.3361
 21
13.3333
 31
0.0
  0
LINE
  8
0
 62
     135
 10
68.3361
 20
13.3333
 30
0.0
 11
66.6833
 21
13.3306
 31
0.0
  0
LINE
  8
0
 62
     135
 10
66.6833
 20
13.3306
 30
0.0
 11
66.6833
 21
7.78054
 31
0.0
  0
LINE
  8
0
 62
     135
 10
66.6833
 20
7.78054
 30
0.0
 11
68.4556
 21
7.77501
 31
0.0
  0
LINE
  8
0
 62
     135
 10
68.4556
 20
7.77501
 30
0.0
 11
68.4556
 21
5.67779
 31
0.0
  0
LINE
  8
0
 62
     135
 10
68.4556
 20
5.67779
 30
0.0
 11
64.4472
 21
5.67503
 31
0.0
  0
LINE
  8
0
 62
     135
 10
64.4472
 20
5.67503
 30
0.0
 11
64.4444
 21
13.3333
 31
0.0
  0
LINE
  8
0
 62
     135
 10
64.4444
 20
13.3333
 30
0.0
 11
62.9167
 21
13.3361
 31
0.0
  0
LINE
  8
0
 62
     135
 10
62.9167
 20
13.3361
 30
0.0
 11
62.9167
 21
15.4139
 31
0.0
  0
LINE
  8
0
 62
     135
 10
62.9167
 20
15.4139
 30
0.0
 11
64.4444
 21
15.4194
 31
0.0
  0
LINE
  8
0
 62
     135
 10
64.4444
 20
15.4194
 30
0.0
 11
64.4444
 21
18.6972
 31
0.0
  0
LINE
  8
0
 62
     135
 10
81.9778
 20
18.6972
 30
0.0
 11
85.4639
 21
18.7
 31
0.0
  0
LINE
  8
0
 62
     135
 10
85.4639
 20
18.7
 30
0.0
 11
85.4697
 21
13.2403
 31
0.0
  0
LINE
  8
0
 62
     135
 10
85.4697
 20
13.2403
 30
0.0
 11
85.4694
 21
7.78054
 31
0.0
  0
LINE
  8
0
 62
     135
 10
85.4694
 20
7.78054
 30
0.0
 11
86.7361
 21
7.77501
 31
0.0
  0
LINE
  8
0
 62
     135
 10
86.7361
 20
7.77501
 30
0.0
 11
86.7361
 21
5.67779
 31
0.0
  0
LINE
  8
0
 62
     135
 10
86.7361
 20
5.67779
 30
0.0
 11
81.8917
 21
5.67779
 31
0.0
  0
LINE
  8
0
 62
     135
 10
81.8917
 20
5.67779
 30
0.0
 11
81.8917
 21
7.77501
 31
0.0
  0
LINE
  8
0
 62
     135
 10
81.8917
 20
7.77501
 30
0.0
 11
83.2472
 21
7.78054
 31
0.0
  0
LINE
  8
0
 62
     135
 10
83.2472
 20
7.78054
 30
0.0
 11
83.2472
 21
16.5944
 31
0.0
  0
LINE
  8
0
 62
     135
 10
83.2472
 20
16.5944
 30
0.0
 11
81.9778
 21
16.6
 31
0.0
  0
LINE
  8
0
 62
     135
 10
81.9778
 20
16.6
 30
0.0
 11
81.9778
 21
18.6972
 31
0.0
  0
LINE
  8
0
 62
     30
 10
87.0667
 20
14.5833
 30
0.0
 11
87.0667
 21
18.6972
 31
0.0
  0
LINE
  8
0
 62
     30
 10
87.0667
 20
18.6972
 30
0.0
 11
97.3083
 21
18.6972
 31
0.0
  0
LINE
  8
0
 62
     30
 10
97.3083
 20
18.6972
 30
0.0
 11
97.3083
 21
14.5833
 31
0.0
  0
LINE
  8
0
 62
     30
 10
97.3083
 20
14.5833
 30
0.0
 11
95.3306
 21
14.5833
 31
0.0
  0
LINE
  8
0
 62
     30
 10
95.3306
 20
14.5833
 30
0.0
 11
95.3278
 21
16.475
 31
0.0
  0
LINE
  8
0
 62
     30
 10
95.3278
 20
16.475
 30
0.0
 11
93.4389
 21
16.475
 31
0.0
  0
LINE
  8
0
 62
     30
 10
93.4389
 20
16.475
 30
0.0
 11
93.4361
 21
7.78054
 31
0.0
  0
LINE
  8
0
 62
     30
 10
93.4361
 20
7.78054
 30
0.0
 11
94.8639
 21
7.77501
 31
0.0
  0
LINE
  8
0
 62
     30
 10
94.8639
 20
7.77501
 30
0.0
 11
94.8611
 21
5.67779
 31
0.0
  0
LINE
  8
0
 62
     30
 10
94.8611
 20
5.67779
 30
0.0
 11
89.5306
 21
5.67779
 31
0.0
  0
LINE
  8
0
 62
     30
 10
89.5306
 20
5.67779
 30
0.0
 11
89.5278
 21
7.77501
 31
0.0
  0
LINE
  8
0
 62
     30
 10
89.5278
 20
7.77501
 30
0.0
 11
90.9556
 21
7.78054
 31
0.0
  0
LINE
  8
0
 62
     30
 10
90.9556
 20
7.78054
 30
0.0
 11
90.9528
 21
16.475
 31
0.0
  0
LINE
  8
0
 62
     30
 10
90.9528
 20
16.475
 30
0.0
 11
89.0639
 21
16.475
 31
0.0
  0
LINE
  8
0
 62
     30
 10
89.0639
 20
16.475
 30
0.0
 11
89.0611
 21
14.5833
 31
0.0
  0
LINE
  8
0
 62
     30
 10
89.0611
 20
14.5833
 30
0.0
 11
87.0667
 21
14.5833
 31
0.0
  0
LINE
  8
0
 62
     30
 10
127.639
 20
16.5972
 30
0.0
 11
127.639
 21
18.6972
 31
0.0
  0
LINE
  8
0
 62
     30
 10
127.639
 20
18.6972
 30
0.0
 11
131.144
 21
18.6972
 31
0.0
  0
LINE
  8
0
 62
     30
 10
131.144
 20
18.6972
 30
0.0
 11
131.147
 21
11.0889
 31
0.0
  0
LINE
  8
0
 62
     30
 10
131.147
 20
11.0889
 30
0.0
 11
133.6
 21
13.5361
 31
0.0
  0
LINE
  8
0
 62
     30
 10
133.6
 20
13.5361
 30
0.0
 11
132.619
 21
13.5472
 31
0.0
  0
LINE
  8
0
 62
     30
 10
132.619
 20
13.5472
 30
0.0
 11
132.619
 21
15.4167
 31
0.0
  0
LINE
  8
0
 62
     30
 10
132.619
 20
15.4167
 30
0.0
 11
137.431
 21
15.4167
 31
0.0
  0
LINE
  8
0
 62
     30
 10
137.431
 20
15.4167
 30
0.0
 11
137.433
 21
13.3389
 31
0.0
  0
LINE
  8
0
 62
     30
 10
137.433
 20
13.3389
 30
0.0
 11
136.239
 21
13.325
 31
0.0
  0
LINE
  8
0
 62
     30
 10
136.239
 20
13.325
 30
0.0
 11
133.583
 21
10.7472
 31
0.0
  0
LINE
  8
0
 62
     30
 10
133.583
 20
10.7472
 30
0.0
 11
136.406
 21
7.77778
 31
0.0
  0
LINE
  8
0
 62
     30
 10
136.406
 20
7.77778
 30
0.0
 11
137.936
 21
7.77778
 31
0.0
  0
LINE
  8
0
 62
     30
 10
137.936
 20
7.77778
 30
0.0
 11
137.933
 21
5.67779
 31
0.0
  0
LINE
  8
0
 62
     30
 10
137.933
 20
5.67779
 30
0.0
 11
132.622
 21
5.67779
 31
0.0
  0
LINE
  8
0
 62
     30
 10
132.622
 20
5.67779
 30
0.0
 11
132.617
 21
7.76389
 31
0.0
  0
LINE
  8
0
 62
     30
 10
132.617
 20
7.76389
 30
0.0
 11
132.797
 21
7.77106
 31
0.0
  0
LINE
  8
0
 62
     30
 10
132.797
 20
7.77106
 30
0.0
 11
133.015
 21
7.77919
 31
0.0
  0
LINE
  8
0
 62
     30
 10
133.015
 20
7.77919
 30
0.0
 11
133.233
 21
7.78737
 31
0.0
  0
LINE
  8
0
 62
     30
 10
133.233
 20
7.78737
 30
0.0
 11
133.414
 21
7.79443
 31
0.0
  0
LINE
  8
0
 62
     30
 10
133.414
 20
7.79443
 30
0.0
 11
131.147
 21
10.2889
 31
0.0
  0
LINE
  8
0
 62
     30
 10
131.147
 20
10.2889
 30
0.0
 11
131.144
 21
5.67779
 31
0.0
  0
LINE
  8
0
 62
     30
 10
131.144
 20
5.67779
 30
0.0
 11
127.639
 21
5.67779
 31
0.0
  0
LINE
  8
0
 62
     30
 10
127.639
 20
5.67779
 30
0.0
 11
127.636
 21
7.77501
 31
0.0
  0
LINE
  8
0
 62
     30
 10
127.636
 20
7.77501
 30
0.0
 11
128.922
 21
7.78054
 31
0.0
  0
LINE
  8
0
 62
     30
 10
128.922
 20
7.78054
 30
0.0
 11
128.922
 21
16.5944
 31
0.0
  0
LINE
  8
0
 62
     30
 10
128.922
 20
16.5944
 30
0.0
 11
127.639
 21
16.5972
 31
0.0
  0
LINE
  8
0
 62
     30
 10
16.1222
 20
18.0722
 30
0.0
 11
19.1
 21
16.35
 31
0.0
  0
LINE
  8
0
 62
     30
 10
19.1
 20
16.35
 30
0.0
 11
16.8056
 21
12.3778
 31
0.0
  0
LINE
  8
0
 62
     30
 10
16.8056
 20
12.3778
 30
0.0
 11
14.1306
 21
12.3805
 31
0.0
  0
LINE
  8
0
 62
     30
 10
14.1306
 20
12.3805
 30
0.0
 11
13.55
 21
13.6028
 31
0.0
  0
LINE
  8
0
 62
     30
 10
13.55
 20
13.6028
 30
0.0
 11
14.8308
 21
15.8407
 31
0.0
  0
LINE
  8
0
 62
     30
 10
14.8308
 20
15.8407
 30
0.0
 11
16.1222
 21
18.0722
 31
0.0
  0
LINE
  8
0
 62
     7
 10
29.6194
 20
16.425
 30
0.0
 11
29.8217
 21
16.4182
 31
0.0
  0
LINE
  8
0
 62
     7
 10
29.8217
 20
16.4182
 30
0.0
 11
30.0276
 21
16.4172
 31
0.0
  0
LINE
  8
0
 62
     7
 10
30.0276
 20
16.4172
 30
0.0
 11
30.2367
 21
16.42
 31
0.0
  0
LINE
  8
0
 62
     7
 10
30.2367
 20
16.42
 30
0.0
 11
30.4476
 21
16.4246
 31
0.0
  0
LINE
  8
0
 62
     7
 10
30.4476
 20
16.4246
 30
0.0
 11
30.6597
 21
16.4289
 31
0.0
  0
LINE
  8
0
 62
     7
 10
30.6597
 20
16.4289
 30
0.0
 11
30.8722
 21
16.4307
 31
0.0
  0
LINE
  8
0
 62
     7
 10
30.8722
 20
16.4307
 30
0.0
 11
31.0843
 21
16.4281
 31
0.0
  0
LINE
  8
0
 62
     7
 10
31.0843
 20
16.4281
 30
0.0
 11
31.2947
 21
16.4192
 31
0.0
  0
LINE
  8
0
 62
     7
 10
31.2947
 20
16.4192
 30
0.0
 11
31.5029
 21
16.4017
 31
0.0
  0
LINE
  8
0
 62
     7
 10
31.5029
 20
16.4017
 30
0.0
 11
31.7081
 21
16.3736
 31
0.0
  0
LINE
  8
0
 62
     7
 10
31.7081
 20
16.3736
 30
0.0
 11
31.909
 21
16.3331
 31
0.0
  0
LINE
  8
0
 62
     7
 10
31.909
 20
16.3331
 30
0.0
 11
32.105
 21
16.2778
 31
0.0
  0
LINE
  8
0
 62
     7
 10
32.105
 20
16.2778
 30
0.0
 11
32.2951
 21
16.2058
 31
0.0
  0
LINE
  8
0
 62
     7
 10
32.2951
 20
16.2058
 30
0.0
 11
32.4786
 21
16.1151
 31
0.0
  0
LINE
  8
0
 62
     7
 10
32.4786
 20
16.1151
 30
0.0
 11
32.6547
 21
16.0038
 31
0.0
  0
LINE
  8
0
 62
     7
 10
32.6547
 20
16.0038
 30
0.0
 11
32.8222
 21
15.8694
 31
0.0
  0
LINE
  8
0
 62
     7
 10
32.8222
 20
15.8694
 30
0.0
 11
33.0056
 21
15.6892
 31
0.0
  0
LINE
  8
0
 62
     7
 10
33.0056
 20
15.6892
 30
0.0
 11
33.156
 21
15.4871
 31
0.0
  0
LINE
  8
0
 62
     7
 10
33.156
 20
15.4871
 30
0.0
 11
33.2743
 21
15.2674
 31
0.0
  0
LINE
  8
0
 62
     7
 10
33.2743
 20
15.2674
 30
0.0
 11
33.3611
 21
15.0338
 31
0.0
  0
LINE
  8
0
 62
     7
 10
33.3611
 20
15.0338
 30
0.0
 11
33.4171
 21
14.7901
 31
0.0
  0
LINE
  8
0
 62
     7
 10
33.4171
 20
14.7901
 30
0.0
 11
33.4429
 21
14.5403
 31
0.0
  0
LINE
  8
0
 62
     7
 10
33.4429
 20
14.5403
 30
0.0
 11
33.4392
 21
14.2883
 31
0.0
  0
LINE
  8
0
 62
     7
 10
33.4392
 20
14.2883
 30
0.0
 11
33.4065
 21
14.0379
 31
0.0
  0
LINE
  8
0
 62
     7
 10
33.4065
 20
14.0379
 30
0.0
 11
33.3458
 21
13.793
 31
0.0
  0
LINE
  8
0
 62
     7
 10
33.3458
 20
13.793
 30
0.0
 11
33.2576
 21
13.5575
 31
0.0
  0
LINE
  8
0
 62
     7
 10
33.2576
 20
13.5575
 30
0.0
 11
33.1426
 21
13.3352
 31
0.0
  0
LINE
  8
0
 62
     7
 10
33.1426
 20
13.3352
 30
0.0
 11
33.0015
 21
13.13
 31
0.0
  0
LINE
  8
0
 62
     7
 10
33.0015
 20
13.13
 30
0.0
 11
32.8349
 21
12.9459
 31
0.0
  0
LINE
  8
0
 62
     7
 10
32.8349
 20
12.9459
 30
0.0
 11
32.6435
 21
12.7866
 31
0.0
  0
LINE
  8
0
 62
     7
 10
32.6435
 20
12.7866
 30
0.0
 11
32.4279
 21
12.6562
 31
0.0
  0
LINE
  8
0
 62
     7
 10
32.4279
 20
12.6562
 30
0.0
 11
32.1889
 21
12.5583
 31
0.0
  0
LINE
  8
0
 62
     7
 10
32.1889
 20
12.5583
 30
0.0
 11
31.8728
 21
12.4959
 31
0.0
  0
LINE
  8
0
 62
     7
 10
31.8728
 20
12.4959
 30
0.0
 11
31.5539
 21
12.4556
 31
0.0
  0
LINE
  8
0
 62
     7
 10
31.5539
 20
12.4556
 30
0.0
 11
31.2328
 21
12.433
 31
0.0
  0
LINE
  8
0
 62
     7
 10
31.2328
 20
12.433
 30
0.0
 11
30.9104
 21
12.4237
 31
0.0
  0
LINE
  8
0
 62
     7
 10
30.9104
 20
12.4237
 30
0.0
 11
30.5872
 21
12.4232
 31
0.0
  0
LINE
  8
0
 62
     7
 10
30.5872
 20
12.4232
 30
0.0
 11
30.2639
 21
12.4271
 31
0.0
  0
LINE
  8
0
 62
     7
 10
30.2639
 20
12.4271
 30
0.0
 11
29.9411
 21
12.431
 31
0.0
  0
LINE
  8
0
 62
     7
 10
29.9411
 20
12.431
 30
0.0
 11
29.6194
 21
12.4306
 31
0.0
  0
LINE
  8
0
 62
     7
 10
29.6194
 20
12.4306
 30
0.0
 11
29.6194
 21
16.425
 31
0.0
  0
LINE
  8
0
 62
     30
 10
5.19168
 20
16.1278
 30
0.0
 11
9.78054
 21
16.1278
 31
0.0
  0
LINE
  8
0
 62
     30
 10
9.78054
 20
16.1278
 30
0.0
 11
11.1111
 21
13.8167
 31
0.0
  0
LINE
  8
0
 62
     30
 10
11.1111
 20
13.8167
 30
0.0
 11
10.3278
 21
12.6972
 31
0.0
  0
LINE
  8
0
 62
     30
 10
10.3278
 20
12.6972
 30
0.0
 11
7.75971
 21
12.6903
 31
0.0
  0
LINE
  8
0
 62
     30
 10
7.75971
 20
12.6903
 30
0.0
 11
5.19168
 21
12.6917
 31
0.0
  0
LINE
  8
0
 62
     30
 10
5.19168
 20
12.6917
 30
0.0
 11
5.19168
 21
16.1278
 31
0.0
  0
LINE
  8
0
 62
     135
 10
36.875
 20
15.4167
 30
0.0
 11
40.3639
 21
15.4139
 31
0.0
  0
LINE
  8
0
 62
     135
 10
40.3639
 20
15.4139
 30
0.0
 11
40.3639
 21
7.78054
 31
0.0
  0
LINE
  8
0
 62
     135
 10
40.3639
 20
7.78054
 30
0.0
 11
41.6167
 21
7.77501
 31
0.0
  0
LINE
  8
0
 62
     135
 10
41.6167
 20
7.77501
 30
0.0
 11
41.6139
 21
5.67503
 31
0.0
  0
LINE
  8
0
 62
     135
 10
41.6139
 20
5.67503
 30
0.0
 11
36.8556
 21
5.67779
 31
0.0
  0
LINE
  8
0
 62
     135
 10
36.8556
 20
5.67779
 30
0.0
 11
36.8583
 21
7.77501
 31
0.0
  0
LINE
  8
0
 62
     135
 10
36.8583
 20
7.77501
 30
0.0
 11
38.125
 21
7.78054
 31
0.0
  0
LINE
  8
0
 62
     135
 10
38.125
 20
7.78054
 30
0.0
 11
38.125
 21
13.3306
 31
0.0
  0
LINE
  8
0
 62
     135
 10
38.125
 20
13.3306
 30
0.0
 11
36.875
 21
13.3361
 31
0.0
  0
LINE
  8
0
 62
     135
 10
36.875
 20
13.3361
 30
0.0
 11
36.875
 21
15.4167
 31
0.0
  0
LINE
  8
0
 62
     135
 10
41.7889
 20
15.4167
 30
0.0
 11
46.3361
 21
15.4167
 31
0.0
  0
LINE
  8
0
 62
     135
 10
46.3361
 20
15.4167
 30
0.0
 11
46.3389
 21
13.3389
 31
0.0
  0
LINE
  8
0
 62
     135
 10
46.3389
 20
13.3389
 30
0.0
 11
45.3528
 21
13.3278
 31
0.0
  0
LINE
  8
0
 62
     135
 10
45.3528
 20
13.3278
 30
0.0
 11
47.1306
 21
8.43056
 31
0.0
  0
LINE
  8
0
 62
     135
 10
47.1306
 20
8.43056
 30
0.0
 11
49.0333
 21
13.3278
 31
0.0
  0
LINE
  8
0
 62
     135
 10
49.0333
 20
13.3278
 30
0.0
 11
48.7996
 21
13.3303
 31
0.0
  0
LINE
  8
0
 62
     135
 10
48.7996
 20
13.3303
 30
0.0
 11
48.5181
 21
13.3333
 31
0.0
  0
LINE
  8
0
 62
     135
 10
48.5181
 20
13.3333
 30
0.0
 11
48.2364
 21
13.3364
 31
0.0
  0
LINE
  8
0
 62
     135
 10
48.2364
 20
13.3364
 30
0.0
 11
48.0028
 21
13.3389
 31
0.0
  0
LINE
  8
0
 62
     135
 10
48.0028
 20
13.3389
 30
0.0
 11
48.0028
 21
15.4167
 31
0.0
  0
LINE
  8
0
 62
     135
 10
48.0028
 20
15.4167
 30
0.0
 11
52.5
 21
15.4167
 31
0.0
  0
LINE
  8
0
 62
     135
 10
52.5
 20
15.4167
 30
0.0
 11
52.5
 21
13.3361
 31
0.0
  0
LINE
  8
0
 62
     135
 10
52.5
 20
13.3361
 30
0.0
 11
51.3556
 21
13.3306
 31
0.0
  0
LINE
  8
0
 62
     135
 10
51.3556
 20
13.3306
 30
0.0
 11
48.2917
 21
5.67503
 31
0.0
  0
LINE
  8
0
 62
     135
 10
48.2917
 20
5.67503
 30
0.0
 11
45.9472
 21
5.67779
 31
0.0
  0
LINE
  8
0
 62
     135
 10
45.9472
 20
5.67779
 30
0.0
 11
42.9639
 21
13.3278
 31
0.0
  0
LINE
  8
0
 62
     135
 10
42.9639
 20
13.3278
 30
0.0
 11
41.7861
 21
13.3389
 31
0.0
  0
LINE
  8
0
 62
     135
 10
41.7861
 20
13.3389
 30
0.0
 11
41.7889
 21
15.4167
 31
0.0
  0
LINE
  8
0
 62
     135
 10
55.9333
 20
15.3889
 30
0.0
 11
56.3975
 21
15.54
 31
0.0
  0
LINE
  8
0
 62
     135
 10
56.3975
 20
15.54
 30
0.0
 11
56.871
 21
15.6404
 31
0.0
  0
LINE
  8
0
 62
     135
 10
56.871
 20
15.6404
 30
0.0
 11
57.35
 21
15.6915
 31
0.0
  0
LINE
  8
0
 62
     135
 10
57.35
 20
15.6915
 30
0.0
 11
57.8307
 21
15.6951
 31
0.0
  0
LINE
  8
0
 62
     135
 10
57.8307
 20
15.6951
 30
0.0
 11
58.3094
 21
15.6529
 31
0.0
  0
LINE
  8
0
 62
     135
 10
58.3094
 20
15.6529
 30
0.0
 11
58.7825
 21
15.5663
 31
0.0
  0
LINE
  8
0
 62
     135
 10
58.7825
 20
15.5663
 30
0.0
 11
59.246
 21
15.4368
 31
0.0
  0
LINE
  8
0
 62
     135
 10
59.246
 20
15.4368
 30
0.0
 11
59.6961
 21
15.2664
 31
0.0
  0
LINE
  8
0
 62
     135
 10
59.6961
 20
15.2664
 30
0.0
 11
60.1293
 21
15.0564
 31
0.0
  0
LINE
  8
0
 62
     135
 10
60.1293
 20
15.0564
 30
0.0
 11
60.5417
 21
14.8085
 31
0.0
  0
LINE
  8
0
 62
     135
 10
60.5417
 20
14.8085
 30
0.0
 11
60.9296
 21
14.5244
 31
0.0
  0
LINE
  8
0
 62
     135
 10
60.9296
 20
14.5244
 30
0.0
 11
61.2892
 21
14.2057
 31
0.0
  0
LINE
  8
0
 62
     135
 10
61.2892
 20
14.2057
 30
0.0
 11
61.6167
 21
13.8539
 31
0.0
  0
LINE
  8
0
 62
     135
 10
61.6167
 20
13.8539
 30
0.0
 11
61.9085
 21
13.4708
 31
0.0
  0
LINE
  8
0
 62
     135
 10
61.9085
 20
13.4708
 30
0.0
 11
62.1606
 21
13.0578
 31
0.0
  0
LINE
  8
0
 62
     135
 10
62.1606
 20
13.0578
 30
0.0
 11
62.3694
 21
12.6166
 31
0.0
  0
LINE
  8
0
 62
     135
 10
62.3694
 20
12.6166
 30
0.0
 11
62.5157
 21
12.2512
 31
0.0
  0
LINE
  8
0
 62
     135
 10
62.5157
 20
12.2512
 30
0.0
 11
62.631
 21
11.8761
 31
0.0
  0
LINE
  8
0
 62
     135
 10
62.631
 20
11.8761
 30
0.0
 11
62.7154
 21
11.4935
 31
0.0
  0
LINE
  8
0
 62
     135
 10
62.7154
 20
11.4935
 30
0.0
 11
62.7696
 21
11.1056
 31
0.0
  0
LINE
  8
0
 62
     135
 10
62.7696
 20
11.1056
 30
0.0
 11
62.7939
 21
10.7147
 31
0.0
  0
LINE
  8
0
 62
     135
 10
62.7939
 20
10.7147
 30
0.0
 11
62.7888
 21
10.3229
 31
0.0
  0
LINE
  8
0
 62
     135
 10
62.7888
 20
10.3229
 30
0.0
 11
62.7546
 21
9.93229
 31
0.0
  0
LINE
  8
0
 62
     135
 10
62.7546
 20
9.93229
 30
0.0
 11
62.6917
 21
9.54514
 31
0.0
  0
LINE
  8
0
 62
     135
 10
62.6917
 20
9.54514
 30
0.0
 11
62.6004
 21
9.16374
 31
0.0
  0
LINE
  8
0
 62
     135
 10
62.6004
 20
9.16374
 30
0.0
 11
62.4815
 21
8.79015
 31
0.0
  0
LINE
  8
0
 62
     135
 10
62.4815
 20
8.79015
 30
0.0
 11
62.335
 21
8.4266
 31
0.0
  0
LINE
  8
0
 62
     135
 10
62.335
 20
8.4266
 30
0.0
 11
62.1617
 21
8.07531
 31
0.0
  0
LINE
  8
0
 62
     135
 10
62.1617
 20
8.07531
 30
0.0
 11
61.9615
 21
7.73839
 31
0.0
  0
LINE
  8
0
 62
     135
 10
61.9615
 20
7.73839
 30
0.0
 11
61.7351
 21
7.41812
 31
0.0
  0
LINE
  8
0
 62
     135
 10
61.7351
 20
7.41812
 30
0.0
 11
61.4831
 21
7.11664
 31
0.0
  0
LINE
  8
0
 62
     135
 10
61.4831
 20
7.11664
 30
0.0
 11
61.2056
 21
6.8361
 31
0.0
  0
LINE
  8
0
 62
     135
 10
61.2056
 20
6.8361
 30
0.0
 11
60.8946
 21
6.55735
 31
0.0
  0
LINE
  8
0
 62
     135
 10
60.8946
 20
6.55735
 30
0.0
 11
60.5614
 21
6.30865
 31
0.0
  0
LINE
  8
0
 62
     135
 10
60.5614
 20
6.30865
 30
0.0
 11
60.2087
 21
6.09033
 31
0.0
  0
LINE
  8
0
 62
     135
 10
60.2087
 20
6.09033
 30
0.0
 11
59.839
 21
5.90272
 31
0.0
  0
LINE
  8
0
 62
     135
 10
59.839
 20
5.90272
 30
0.0
 11
59.4553
 21
5.74604
 31
0.0
  0
LINE
  8
0
 62
     135
 10
59.4553
 20
5.74604
 30
0.0
 11
59.0597
 21
5.62061
 31
0.0
  0
LINE
  8
0
 62
     135
 10
59.0597
 20
5.62061
 30
0.0
 11
58.6554
 21
5.52669
 31
0.0
  0
LINE
  8
0
 62
     135
 10
58.6554
 20
5.52669
 30
0.0
 11
58.2447
 21
5.46457
 31
0.0
  0
LINE
  8
0
 62
     135
 10
58.2447
 20
5.46457
 30
0.0
 11
57.8306
 21
5.43463
 31
0.0
  0
LINE
  8
0
 62
     135
 10
57.8306
 20
5.43463
 30
0.0
 11
57.4153
 21
5.43701
 31
0.0
  0
LINE
  8
0
 62
     135
 10
57.4153
 20
5.43701
 30
0.0
 11
57.0018
 21
5.47206
 31
0.0
  0
LINE
  8
0
 62
     135
 10
57.0018
 20
5.47206
 30
0.0
 11
56.5926
 21
5.54004
 31
0.0
  0
LINE
  8
0
 62
     135
 10
56.5926
 20
5.54004
 30
0.0
 11
56.1904
 21
5.64128
 31
0.0
  0
LINE
  8
0
 62
     135
 10
56.1904
 20
5.64128
 30
0.0
 11
55.7981
 21
5.77604
 31
0.0
  0
LINE
  8
0
 62
     135
 10
55.7981
 20
5.77604
 30
0.0
 11
55.4179
 21
5.94461
 31
0.0
  0
LINE
  8
0
 62
     135
 10
55.4179
 20
5.94461
 30
0.0
 11
55.0528
 21
6.14725
 31
0.0
  0
LINE
  8
0
 62
     135
 10
55.0528
 20
6.14725
 30
0.0
 11
54.7438
 21
6.34289
 31
0.0
  0
LINE
  8
0
 62
     135
 10
54.7438
 20
6.34289
 30
0.0
 11
54.4517
 21
6.56104
 31
0.0
  0
LINE
  8
0
 62
     135
 10
54.4517
 20
6.56104
 30
0.0
 11
54.1771
 21
6.80003
 31
0.0
  0
LINE
  8
0
 62
     135
 10
54.1771
 20
6.80003
 30
0.0
 11
53.9211
 21
7.05832
 31
0.0
  0
LINE
  8
0
 62
     135
 10
53.9211
 20
7.05832
 30
0.0
 11
53.6843
 21
7.33431
 31
0.0
  0
LINE
  8
0
 62
     135
 10
53.6843
 20
7.33431
 30
0.0
 11
53.4675
 21
7.62642
 31
0.0
  0
LINE
  8
0
 62
     135
 10
53.4675
 20
7.62642
 30
0.0
 11
53.2715
 21
7.933
 31
0.0
  0
LINE
  8
0
 62
     135
 10
53.2715
 20
7.933
 30
0.0
 11
53.0972
 21
8.25244
 31
0.0
  0
LINE
  8
0
 62
     135
 10
53.0972
 20
8.25244
 30
0.0
 11
52.9453
 21
8.58322
 31
0.0
  0
LINE
  8
0
 62
     135
 10
52.9453
 20
8.58322
 30
0.0
 11
52.8165
 21
8.92372
 31
0.0
  0
LINE
  8
0
 62
     135
 10
52.8165
 20
8.92372
 30
0.0
 11
52.7117
 21
9.27225
 31
0.0
  0
LINE
  8
0
 62
     135
 10
52.7117
 20
9.27225
 30
0.0
 11
52.6317
 21
9.62733
 31
0.0
  0
LINE
  8
0
 62
     135
 10
52.6317
 20
9.62733
 30
0.0
 11
52.5772
 21
9.98731
 31
0.0
  0
LINE
  8
0
 62
     135
 10
52.5772
 20
9.98731
 30
0.0
 11
52.549
 21
10.3506
 31
0.0
  0
LINE
  8
0
 62
     135
 10
52.549
 20
10.3506
 30
0.0
 11
52.5481
 21
10.7156
 31
0.0
  0
LINE
  8
0
 62
     135
 10
52.5481
 20
10.7156
 30
0.0
 11
52.575
 21
11.0806
 31
0.0
  0
LINE
  8
0
 62
     135
 10
52.575
 20
11.0806
 30
0.0
 11
52.6206
 21
11.4392
 31
0.0
  0
LINE
  8
0
 62
     135
 10
52.6206
 20
11.4392
 30
0.0
 11
52.6932
 21
11.7922
 31
0.0
  0
LINE
  8
0
 62
     135
 10
52.6932
 20
11.7922
 30
0.0
 11
52.7917
 21
12.1382
 31
0.0
  0
LINE
  8
0
 62
     135
 10
52.7917
 20
12.1382
 30
0.0
 11
52.915
 21
12.476
 31
0.0
  0
LINE
  8
0
 62
     135
 10
52.915
 20
12.476
 30
0.0
 11
53.0619
 21
12.8041
 31
0.0
  0
LINE
  8
0
 62
     135
 10
53.0619
 20
12.8041
 30
0.0
 11
53.2315
 21
13.1212
 31
0.0
  0
LINE
  8
0
 62
     135
 10
53.2315
 20
13.1212
 30
0.0
 11
53.4228
 21
13.426
 31
0.0
  0
LINE
  8
0
 62
     135
 10
53.4228
 20
13.426
 30
0.0
 11
53.6343
 21
13.717
 31
0.0
  0
LINE
  8
0
 62
     135
 10
53.6343
 20
13.717
 30
0.0
 11
53.8653
 21
13.9931
 31
0.0
  0
LINE
  8
0
 62
     135
 10
53.8653
 20
13.9931
 30
0.0
 11
54.1146
 21
14.2525
 31
0.0
  0
LINE
  8
0
 62
     135
 10
54.1146
 20
14.2525
 30
0.0
 11
54.3811
 21
14.4943
 31
0.0
  0
LINE
  8
0
 62
     135
 10
54.3811
 20
14.4943
 30
0.0
 11
54.6636
 21
14.7169
 31
0.0
  0
LINE
  8
0
 62
     135
 10
54.6636
 20
14.7169
 30
0.0
 11
54.9612
 21
14.919
 31
0.0
  0
LINE
  8
0
 62
     135
 10
54.9612
 20
14.919
 30
0.0
 11
55.2728
 21
15.0993
 31
0.0
  0
LINE
  8
0
 62
     135
 10
55.2728
 20
15.0993
 30
0.0
 11
55.5972
 21
15.2564
 31
0.0
  0
LINE
  8
0
 62
     135
 10
55.5972
 20
15.2564
 30
0.0
 11
55.9333
 21
15.3889
 31
0.0
  0
LINE
  8
0
 62
     135
 10
69.1861
 20
11.6667
 30
0.0
 11
69.3081
 21
12.1369
 31
0.0
  0
LINE
  8
0
 62
     135
 10
69.3081
 20
12.1369
 30
0.0
 11
69.4776
 21
12.5896
 31
0.0
  0
LINE
  8
0
 62
     135
 10
69.4776
 20
12.5896
 30
0.0
 11
69.6918
 21
13.022
 31
0.0
  0
LINE
  8
0
 62
     135
 10
69.6918
 20
13.022
 30
0.0
 11
69.9469
 21
13.4314
 31
0.0
  0
LINE
  8
0
 62
     135
 10
69.9469
 20
13.4314
 30
0.0
 11
70.2399
 21
13.8153
 31
0.0
  0
LINE
  8
0
 62
     135
 10
70.2399
 20
13.8153
 30
0.0
 11
70.5669
 21
14.1708
 31
0.0
  0
LINE
  8
0
 62
     135
 10
70.5669
 20
14.1708
 30
0.0
 11
70.9251
 21
14.4956
 31
0.0
  0
LINE
  8
0
 62
     135
 10
70.9251
 20
14.4956
 30
0.0
 11
71.3108
 21
14.7864
 31
0.0
  0
LINE
  8
0
 62
     135
 10
71.3108
 20
14.7864
 30
0.0
 11
71.7206
 21
15.0411
 31
0.0
  0
LINE
  8
0
 62
     135
 10
71.7206
 20
15.0411
 30
0.0
 11
72.1513
 21
15.2569
 31
0.0
  0
LINE
  8
0
 62
     135
 10
72.1513
 20
15.2569
 30
0.0
 11
72.5993
 21
15.4311
 31
0.0
  0
LINE
  8
0
 62
     135
 10
72.5993
 20
15.4311
 30
0.0
 11
73.0615
 21
15.5608
 31
0.0
  0
LINE
  8
0
 62
     135
 10
73.0615
 20
15.5608
 30
0.0
 11
73.5343
 21
15.6436
 31
0.0
  0
LINE
  8
0
 62
     135
 10
73.5343
 20
15.6436
 30
0.0
 11
74.0144
 21
15.6768
 31
0.0
  0
LINE
  8
0
 62
     135
 10
74.0144
 20
15.6768
 30
0.0
 11
74.4986
 21
15.6575
 31
0.0
  0
LINE
  8
0
 62
     135
 10
74.4986
 20
15.6575
 30
0.0
 11
74.9833
 21
15.5833
 31
0.0
  0
LINE
  8
0
 62
     135
 10
74.9833
 20
15.5833
 30
0.0
 11
75.3169
 21
15.5019
 31
0.0
  0
LINE
  8
0
 62
     135
 10
75.3169
 20
15.5019
 30
0.0
 11
75.6315
 21
15.3799
 31
0.0
  0
LINE
  8
0
 62
     135
 10
75.6315
 20
15.3799
 30
0.0
 11
75.9283
 21
15.2231
 31
0.0
  0
LINE
  8
0
 62
     135
 10
75.9283
 20
15.2231
 30
0.0
 11
76.2086
 21
15.0368
 31
0.0
  0
LINE
  8
0
 62
     135
 10
76.2086
 20
15.0368
 30
0.0
 11
76.474
 21
14.8269
 31
0.0
  0
LINE
  8
0
 62
     135
 10
76.474
 20
14.8269
 30
0.0
 11
76.726
 21
14.599
 31
0.0
  0
LINE
  8
0
 62
     135
 10
76.726
 20
14.599
 30
0.0
 11
76.9656
 21
14.3585
 31
0.0
  0
LINE
  8
0
 62
     135
 10
76.9656
 20
14.3585
 30
0.0
 11
77.1944
 21
14.1111
 31
0.0
  0
LINE
  8
0
 62
     135
 10
77.1944
 20
14.1111
 30
0.0
 11
77.1639
 21
15.4167
 31
0.0
  0
LINE
  8
0
 62
     135
 10
77.1639
 20
15.4167
 30
0.0
 11
80.6611
 21
15.4167
 31
0.0
  0
LINE
  8
0
 62
     135
 10
80.6611
 20
15.4167
 30
0.0
 11
80.6611
 21
13.3361
 31
0.0
  0
LINE
  8
0
 62
     135
 10
80.6611
 20
13.3361
 30
0.0
 11
79.4444
 21
13.3306
 31
0.0
  0
LINE
  8
0
 62
     135
 10
79.4444
 20
13.3306
 30
0.0
 11
79.4444
 21
7.78054
 31
0.0
  0
LINE
  8
0
 62
     135
 10
79.4444
 20
7.78054
 30
0.0
 11
80.6611
 21
7.77501
 31
0.0
  0
LINE
  8
0
 62
     135
 10
80.6611
 20
7.77501
 30
0.0
 11
80.6611
 21
5.67779
 31
0.0
  0
LINE
  8
0
 62
     135
 10
80.6611
 20
5.67779
 30
0.0
 11
77.1611
 21
5.68056
 31
0.0
  0
LINE
  8
0
 62
     135
 10
77.1611
 20
5.68056
 30
0.0
 11
77.1649
 21
5.80957
 31
0.0
  0
LINE
  8
0
 62
     135
 10
77.1649
 20
5.80957
 30
0.0
 11
77.1694
 21
5.9605
 31
0.0
  0
LINE
  8
0
 62
     135
 10
77.1694
 20
5.9605
 30
0.0
 11
77.1749
 21
6.12603
 31
0.0
  0
LINE
  8
0
 62
     135
 10
77.1749
 20
6.12603
 30
0.0
 11
77.1806
 21
6.29899
 31
0.0
  0
LINE
  8
0
 62
     135
 10
77.1806
 20
6.29899
 30
0.0
 11
77.1863
 21
6.47206
 31
0.0
  0
LINE
  8
0
 62
     135
 10
77.1863
 20
6.47206
 30
0.0
 11
77.1915
 21
6.63803
 31
0.0
  0
LINE
  8
0
 62
     135
 10
77.1915
 20
6.63803
 30
0.0
 11
77.1962
 21
6.78956
 31
0.0
  0
LINE
  8
0
 62
     135
 10
77.1962
 20
6.78956
 30
0.0
 11
77.2
 21
6.91943
 31
0.0
  0
LINE
  8
0
 62
     135
 10
77.2
 20
6.91943
 30
0.0
 11
76.9525
 21
6.62831
 31
0.0
  0
LINE
  8
0
 62
     135
 10
76.9525
 20
6.62831
 30
0.0
 11
76.6806
 21
6.36925
 31
0.0
  0
LINE
  8
0
 62
     135
 10
76.6806
 20
6.36925
 30
0.0
 11
76.3869
 21
6.14199
 31
0.0
  0
LINE
  8
0
 62
     135
 10
76.3869
 20
6.14199
 30
0.0
 11
76.0742
 21
5.94635
 31
0.0
  0
LINE
  8
0
 62
     135
 10
76.0742
 20
5.94635
 30
0.0
 11
75.7449
 21
5.78196
 31
0.0
  0
LINE
  8
0
 62
     135
 10
75.7449
 20
5.78196
 30
0.0
 11
75.4018
 21
5.6486
 31
0.0
  0
LINE
  8
0
 62
     135
 10
75.4018
 20
5.6486
 30
0.0
 11
75.0475
 21
5.54606
 31
0.0
  0
LINE
  8
0
 62
     135
 10
75.0475
 20
5.54606
 30
0.0
 11
74.6847
 21
5.47396
 31
0.0
  0
LINE
  8
0
 62
     135
 10
74.6847
 20
5.47396
 30
0.0
 11
74.3161
 21
5.43218
 31
0.0
  0
LINE
  8
0
 62
     135
 10
74.3161
 20
5.43218
 30
0.0
 11
73.9442
 21
5.42031
 31
0.0
  0
LINE
  8
0
 62
     135
 10
73.9442
 20
5.42031
 30
0.0
 11
73.5718
 21
5.43815
 31
0.0
  0
LINE
  8
0
 62
     135
 10
73.5718
 20
5.43815
 30
0.0
 11
73.2015
 21
5.48546
 31
0.0
  0
LINE
  8
0
 62
     135
 10
73.2015
 20
5.48546
 30
0.0
 11
72.836
 21
5.56196
 31
0.0
  0
LINE
  8
0
 62
     135
 10
72.836
 20
5.56196
 30
0.0
 11
72.4779
 21
5.66737
 31
0.0
  0
LINE
  8
0
 62
     135
 10
72.4779
 20
5.66737
 30
0.0
 11
72.1297
 21
5.80143
 31
0.0
  0
LINE
  8
0
 62
     135
 10
72.1297
 20
5.80143
 30
0.0
 11
71.7944
 21
5.96386
 31
0.0
  0
LINE
  8
0
 62
     135
 10
71.7944
 20
5.96386
 30
0.0
 11
71.4231
 21
6.17128
 31
0.0
  0
LINE
  8
0
 62
     135
 10
71.4231
 20
6.17128
 30
0.0
 11
71.0743
 21
6.41038
 31
0.0
  0
LINE
  8
0
 62
     135
 10
71.0743
 20
6.41038
 30
0.0
 11
70.7492
 21
6.67871
 31
0.0
  0
LINE
  8
0
 62
     135
 10
70.7492
 20
6.67871
 30
0.0
 11
70.4489
 21
6.97374
 31
0.0
  0
LINE
  8
0
 62
     135
 10
70.4489
 20
6.97374
 30
0.0
 11
70.1746
 21
7.29286
 31
0.0
  0
LINE
  8
0
 62
     135
 10
70.1746
 20
7.29286
 30
0.0
 11
69.9274
 21
7.63357
 31
0.0
  0
LINE
  8
0
 62
     135
 10
69.9274
 20
7.63357
 30
0.0
 11
69.7082
 21
7.99328
 31
0.0
  0
LINE
  8
0
 62
     135
 10
69.7082
 20
7.99328
 30
0.0
 11
69.5183
 21
8.36947
 31
0.0
  0
LINE
  8
0
 62
     135
 10
69.5183
 20
8.36947
 30
0.0
 11
69.3589
 21
8.7596
 31
0.0
  0
LINE
  8
0
 62
     135
 10
69.3589
 20
8.7596
 30
0.0
 11
69.2308
 21
9.16114
 31
0.0
  0
LINE
  8
0
 62
     135
 10
69.2308
 20
9.16114
 30
0.0
 11
69.1354
 21
9.5715
 31
0.0
  0
LINE
  8
0
 62
     135
 10
69.1354
 20
9.5715
 30
0.0
 11
69.0738
 21
9.98813
 31
0.0
  0
LINE
  8
0
 62
     135
 10
69.0738
 20
9.98813
 30
0.0
 11
69.0468
 21
10.4085
 31
0.0
  0
LINE
  8
0
 62
     135
 10
69.0468
 20
10.4085
 30
0.0
 11
69.0558
 21
10.8301
 31
0.0
  0
LINE
  8
0
 62
     135
 10
69.0558
 20
10.8301
 30
0.0
 11
69.1019
 21
11.2503
 31
0.0
  0
LINE
  8
0
 62
     135
 10
69.1019
 20
11.2503
 30
0.0
 11
69.1861
 21
11.6667
 31
0.0
  0
LINE
  8
0
 62
     30
 10
98.2472
 20
15.4167
 30
0.0
 11
101.567
 21
15.4167
 31
0.0
  0
LINE
  8
0
 62
     30
 10
101.567
 20
15.4167
 30
0.0
 11
101.539
 21
13.8639
 31
0.0
  0
LINE
  8
0
 62
     30
 10
101.539
 20
13.8639
 30
0.0
 11
101.801
 21
14.2271
 31
0.0
  0
LINE
  8
0
 62
     30
 10
101.801
 20
14.2271
 30
0.0
 11
102.103
 21
14.5476
 31
0.0
  0
LINE
  8
0
 62
     30
 10
102.103
 20
14.5476
 30
0.0
 11
102.438
 21
14.8254
 31
0.0
  0
LINE
  8
0
 62
     30
 10
102.438
 20
14.8254
 30
0.0
 11
102.804
 21
15.0604
 31
0.0
  0
LINE
  8
0
 62
     30
 10
102.804
 20
15.0604
 30
0.0
 11
103.195
 21
15.2525
 31
0.0
  0
LINE
  8
0
 62
     30
 10
103.195
 20
15.2525
 30
0.0
 11
103.606
 21
15.4014
 31
0.0
  0
LINE
  8
0
 62
     30
 10
103.606
 20
15.4014
 30
0.0
 11
104.035
 21
15.5071
 31
0.0
  0
LINE
  8
0
 62
     30
 10
104.035
 20
15.5071
 30
0.0
 11
104.475
 21
15.5694
 31
0.0
  0
LINE
  8
0
 62
     30
 10
104.475
 20
15.5694
 30
0.0
 11
104.478
 21
13.2778
 31
0.0
  0
LINE
  8
0
 62
     30
 10
104.478
 20
13.2778
 30
0.0
 11
104.274
 21
13.2468
 31
0.0
  0
LINE
  8
0
 62
     30
 10
104.274
 20
13.2468
 30
0.0
 11
104.068
 21
13.2067
 31
0.0
  0
LINE
  8
0
 62
     30
 10
104.068
 20
13.2067
 30
0.0
 11
103.863
 21
13.1571
 31
0.0
  0
LINE
  8
0
 62
     30
 10
103.863
 20
13.1571
 30
0.0
 11
103.66
 21
13.0977
 31
0.0
  0
LINE
  8
0
 62
     30
 10
103.66
 20
13.0977
 30
0.0
 11
103.46
 21
13.028
 31
0.0
  0
LINE
  8
0
 62
     30
 10
103.46
 20
13.028
 30
0.0
 11
103.264
 21
12.9476
 31
0.0
  0
LINE
  8
0
 62
     30
 10
103.264
 20
12.9476
 30
0.0
 11
103.075
 21
12.8563
 31
0.0
  0
LINE
  8
0
 62
     30
 10
103.075
 20
12.8563
 30
0.0
 11
102.893
 21
12.7535
 31
0.0
  0
LINE
  8
0
 62
     30
 10
102.893
 20
12.7535
 30
0.0
 11
102.72
 21
12.6389
 31
0.0
  0
LINE
  8
0
 62
     30
 10
102.72
 20
12.6389
 30
0.0
 11
102.557
 21
12.5123
 31
0.0
  0
LINE
  8
0
 62
     30
 10
102.557
 20
12.5123
 30
0.0
 11
102.406
 21
12.373
 31
0.0
  0
LINE
  8
0
 62
     30
 10
102.406
 20
12.373
 30
0.0
 11
102.269
 21
12.2208
 31
0.0
  0
LINE
  8
0
 62
     30
 10
102.269
 20
12.2208
 30
0.0
 11
102.146
 21
12.0553
 31
0.0
  0
LINE
  8
0
 62
     30
 10
102.146
 20
12.0553
 30
0.0
 11
102.039
 21
11.876
 31
0.0
  0
LINE
  8
0
 62
     30
 10
102.039
 20
11.876
 30
0.0
 11
101.95
 21
11.6828
 31
0.0
  0
LINE
  8
0
 62
     30
 10
101.95
 20
11.6828
 30
0.0
 11
101.881
 21
11.475
 31
0.0
  0
LINE
  8
0
 62
     30
 10
101.881
 20
11.475
 30
0.0
 11
101.799
 21
11.0189
 31
0.0
  0
LINE
  8
0
 62
     30
 10
101.799
 20
11.0189
 30
0.0
 11
101.751
 21
10.5595
 31
0.0
  0
LINE
  8
0
 62
     30
 10
101.751
 20
10.5595
 30
0.0
 11
101.728
 21
10.0976
 31
0.0
  0
LINE
  8
0
 62
     30
 10
101.728
 20
10.0976
 30
0.0
 11
101.723
 21
9.63406
 31
0.0
  0
LINE
  8
0
 62
     30
 10
101.723
 20
9.63406
 30
0.0
 11
101.729
 21
9.16976
 31
0.0
  0
LINE
  8
0
 62
     30
 10
101.729
 20
9.16976
 30
0.0
 11
101.738
 21
8.70551
 31
0.0
  0
LINE
  8
0
 62
     30
 10
101.738
 20
8.70551
 30
0.0
 11
101.743
 21
8.24214
 31
0.0
  0
LINE
  8
0
 62
     30
 10
101.743
 20
8.24214
 30
0.0
 11
101.736
 21
7.78054
 31
0.0
  0
LINE
  8
0
 62
     30
 10
101.736
 20
7.78054
 30
0.0
 11
102.989
 21
7.77501
 31
0.0
  0
LINE
  8
0
 62
     30
 10
102.989
 20
7.77501
 30
0.0
 11
102.986
 21
5.67779
 31
0.0
  0
LINE
  8
0
 62
     30
 10
102.986
 20
5.67779
 30
0.0
 11
98.2444
 21
5.67779
 31
0.0
  0
LINE
  8
0
 62
     30
 10
98.2444
 20
5.67779
 30
0.0
 11
98.2472
 21
7.77501
 31
0.0
  0
LINE
  8
0
 62
     30
 10
98.2472
 20
7.77501
 30
0.0
 11
99.4944
 21
7.78054
 31
0.0
  0
LINE
  8
0
 62
     30
 10
99.4944
 20
7.78054
 30
0.0
 11
99.4944
 21
13.3306
 31
0.0
  0
LINE
  8
0
 62
     30
 10
99.4944
 20
13.3306
 30
0.0
 11
98.2444
 21
13.3361
 31
0.0
  0
LINE
  8
0
 62
     30
 10
98.2444
 20
13.3361
 30
0.0
 11
98.2472
 21
15.4167
 31
0.0
  0
LINE
  8
0
 62
     30
 10
105.894
 20
13.5333
 30
0.0
 11
106.125
 21
13.8373
 31
0.0
  0
LINE
  8
0
 62
     30
 10
106.125
 20
13.8373
 30
0.0
 11
106.379
 21
14.1224
 31
0.0
  0
LINE
  8
0
 62
     30
 10
106.379
 20
14.1224
 30
0.0
 11
106.656
 21
14.3874
 31
0.0
  0
LINE
  8
0
 62
     30
 10
106.656
 20
14.3874
 30
0.0
 11
106.952
 21
14.631
 31
0.0
  0
LINE
  8
0
 62
     30
 10
106.952
 20
14.631
 30
0.0
 11
107.266
 21
14.8521
 31
0.0
  0
LINE
  8
0
 62
     30
 10
107.266
 20
14.8521
 30
0.0
 11
107.596
 21
15.0496
 31
0.0
  0
LINE
  8
0
 62
     30
 10
107.596
 20
15.0496
 30
0.0
 11
107.94
 21
15.2219
 31
0.0
  0
LINE
  8
0
 62
     30
 10
107.94
 20
15.2219
 30
0.0
 11
108.295
 21
15.3685
 31
0.0
  0
LINE
  8
0
 62
     30
 10
108.295
 20
15.3685
 30
0.0
 11
108.659
 21
15.4875
 31
0.0
  0
LINE
  8
0
 62
     30
 10
108.659
 20
15.4875
 30
0.0
 11
109.031
 21
15.5781
 31
0.0
  0
LINE
  8
0
 62
     30
 10
109.031
 20
15.5781
 30
0.0
 11
109.408
 21
15.6389
 31
0.0
  0
LINE
  8
0
 62
     30
 10
109.408
 20
15.6389
 30
0.0
 11
109.788
 21
15.6689
 31
0.0
  0
LINE
  8
0
 62
     30
 10
109.788
 20
15.6689
 30
0.0
 11
110.169
 21
15.6667
 31
0.0
  0
LINE
  8
0
 62
     30
 10
110.169
 20
15.6667
 30
0.0
 11
110.549
 21
15.6312
 31
0.0
  0
LINE
  8
0
 62
     30
 10
110.549
 20
15.6312
 30
0.0
 11
110.926
 21
15.5613
 31
0.0
  0
LINE
  8
0
 62
     30
 10
110.926
 20
15.5613
 30
0.0
 11
111.297
 21
15.4556
 31
0.0
  0
LINE
  8
0
 62
     30
 10
111.297
 20
15.4556
 30
0.0
 11
111.561
 21
15.3528
 31
0.0
  0
LINE
  8
0
 62
     30
 10
111.561
 20
15.3528
 30
0.0
 11
111.808
 21
15.2225
 31
0.0
  0
LINE
  8
0
 62
     30
 10
111.808
 20
15.2225
 30
0.0
 11
112.041
 21
15.0689
 31
0.0
  0
LINE
  8
0
 62
     30
 10
112.041
 20
15.0689
 30
0.0
 11
112.261
 21
14.8965
 31
0.0
  0
LINE
  8
0
 62
     30
 10
112.261
 20
14.8965
 30
0.0
 11
112.472
 21
14.71
 31
0.0
  0
LINE
  8
0
 62
     30
 10
112.472
 20
14.71
 30
0.0
 11
112.673
 21
14.5133
 31
0.0
  0
LINE
  8
0
 62
     30
 10
112.673
 20
14.5133
 30
0.0
 11
112.869
 21
14.3114
 31
0.0
  0
LINE
  8
0
 62
     30
 10
112.869
 20
14.3114
 30
0.0
 11
113.061
 21
14.1083
 31
0.0
  0
LINE
  8
0
 62
     30
 10
113.061
 20
14.1083
 30
0.0
 11
113.033
 21
15.4167
 31
0.0
  0
LINE
  8
0
 62
     30
 10
113.033
 20
15.4167
 30
0.0
 11
116.528
 21
15.4167
 31
0.0
  0
LINE
  8
0
 62
     30
 10
116.528
 20
15.4167
 30
0.0
 11
116.528
 21
13.3361
 31
0.0
  0
LINE
  8
0
 62
     30
 10
116.528
 20
13.3361
 30
0.0
 11
115.311
 21
13.3306
 31
0.0
  0
LINE
  8
0
 62
     30
 10
115.311
 20
13.3306
 30
0.0
 11
115.311
 21
7.78054
 31
0.0
  0
LINE
  8
0
 62
     30
 10
115.311
 20
7.78054
 30
0.0
 11
116.531
 21
7.77501
 31
0.0
  0
LINE
  8
0
 62
     30
 10
116.531
 20
7.77501
 30
0.0
 11
116.528
 21
5.67779
 31
0.0
  0
LINE
  8
0
 62
     30
 10
116.528
 20
5.67779
 30
0.0
 11
113.033
 21
5.67779
 31
0.0
  0
LINE
  8
0
 62
     30
 10
113.033
 20
5.67779
 30
0.0
 11
113.067
 21
6.91943
 31
0.0
  0
LINE
  8
0
 62
     30
 10
113.067
 20
6.91943
 30
0.0
 11
112.887
 21
6.70133
 31
0.0
  0
LINE
  8
0
 62
     30
 10
112.887
 20
6.70133
 30
0.0
 11
112.696
 21
6.50146
 31
0.0
  0
LINE
  8
0
 62
     30
 10
112.696
 20
6.50146
 30
0.0
 11
112.493
 21
6.31961
 31
0.0
  0
LINE
  8
0
 62
     30
 10
112.493
 20
6.31961
 30
0.0
 11
112.281
 21
6.15549
 31
0.0
  0
LINE
  8
0
 62
     30
 10
112.281
 20
6.15549
 30
0.0
 11
112.06
 21
6.00885
 31
0.0
  0
LINE
  8
0
 62
     30
 10
112.06
 20
6.00885
 30
0.0
 11
111.83
 21
5.87939
 31
0.0
  0
LINE
  8
0
 62
     30
 10
111.83
 20
5.87939
 30
0.0
 11
111.592
 21
5.76693
 31
0.0
  0
LINE
  8
0
 62
     30
 10
111.592
 20
5.76693
 30
0.0
 11
111.348
 21
5.67111
 31
0.0
  0
LINE
  8
0
 62
     30
 10
111.348
 20
5.67111
 30
0.0
 11
111.099
 21
5.59174
 31
0.0
  0
LINE
  8
0
 62
     30
 10
111.099
 20
5.59174
 30
0.0
 11
110.844
 21
5.5286
 31
0.0
  0
LINE
  8
0
 62
     30
 10
110.844
 20
5.5286
 30
0.0
 11
110.586
 21
5.48128
 31
0.0
  0
LINE
  8
0
 62
     30
 10
110.586
 20
5.48128
 30
0.0
 11
110.324
 21
5.44965
 31
0.0
  0
LINE
  8
0
 62
     30
 10
110.324
 20
5.44965
 30
0.0
 11
110.06
 21
5.43343
 31
0.0
  0
LINE
  8
0
 62
     30
 10
110.06
 20
5.43343
 30
0.0
 11
109.794
 21
5.43229
 31
0.0
  0
LINE
  8
0
 62
     30
 10
109.794
 20
5.43229
 30
0.0
 11
109.528
 21
5.44601
 31
0.0
  0
LINE
  8
0
 62
     30
 10
109.528
 20
5.44601
 30
0.0
 11
109.262
 21
5.47433
 31
0.0
  0
LINE
  8
0
 62
     30
 10
109.262
 20
5.47433
 30
0.0
 11
108.998
 21
5.51704
 31
0.0
  0
LINE
  8
0
 62
     30
 10
108.998
 20
5.51704
 30
0.0
 11
108.735
 21
5.57378
 31
0.0
  0
LINE
  8
0
 62
     30
 10
108.735
 20
5.57378
 30
0.0
 11
108.475
 21
5.64432
 31
0.0
  0
LINE
  8
0
 62
     30
 10
108.475
 20
5.64432
 30
0.0
 11
108.219
 21
5.72846
 31
0.0
  0
LINE
  8
0
 62
     30
 10
108.219
 20
5.72846
 30
0.0
 11
107.968
 21
5.82585
 31
0.0
  0
LINE
  8
0
 62
     30
 10
107.968
 20
5.82585
 30
0.0
 11
107.722
 21
5.93631
 31
0.0
  0
LINE
  8
0
 62
     30
 10
107.722
 20
5.93631
 30
0.0
 11
107.482
 21
6.05951
 31
0.0
  0
LINE
  8
0
 62
     30
 10
107.482
 20
6.05951
 30
0.0
 11
107.249
 21
6.19526
 31
0.0
  0
LINE
  8
0
 62
     30
 10
107.249
 20
6.19526
 30
0.0
 11
107.025
 21
6.34321
 31
0.0
  0
LINE
  8
0
 62
     30
 10
107.025
 20
6.34321
 30
0.0
 11
106.809
 21
6.50319
 31
0.0
  0
LINE
  8
0
 62
     30
 10
106.809
 20
6.50319
 30
0.0
 11
106.603
 21
6.67486
 31
0.0
  0
LINE
  8
0
 62
     30
 10
106.603
 20
6.67486
 30
0.0
 11
106.408
 21
6.85801
 31
0.0
  0
LINE
  8
0
 62
     30
 10
106.408
 20
6.85801
 30
0.0
 11
106.224
 21
7.05236
 31
0.0
  0
LINE
  8
0
 62
     30
 10
106.224
 20
7.05236
 30
0.0
 11
106.053
 21
7.25765
 31
0.0
  0
LINE
  8
0
 62
     30
 10
106.053
 20
7.25765
 30
0.0
 11
105.894
 21
7.47364
 31
0.0
  0
LINE
  8
0
 62
     30
 10
105.894
 20
7.47364
 30
0.0
 11
105.75
 21
7.69997
 31
0.0
  0
LINE
  8
0
 62
     30
 10
105.75
 20
7.69997
 30
0.0
 11
105.548
 21
8.03228
 31
0.0
  0
LINE
  8
0
 62
     30
 10
105.548
 20
8.03228
 30
0.0
 11
105.374
 21
8.37879
 31
0.0
  0
LINE
  8
0
 62
     30
 10
105.374
 20
8.37879
 30
0.0
 11
105.229
 21
8.73742
 31
0.0
  0
LINE
  8
0
 62
     30
 10
105.229
 20
8.73742
 30
0.0
 11
105.113
 21
9.10601
 31
0.0
  0
LINE
  8
0
 62
     30
 10
105.113
 20
9.10601
 30
0.0
 11
105.025
 21
9.48242
 31
0.0
  0
LINE
  8
0
 62
     30
 10
105.025
 20
9.48242
 30
0.0
 11
104.965
 21
9.86458
 31
0.0
  0
LINE
  8
0
 62
     30
 10
104.965
 20
9.86458
 30
0.0
 11
104.933
 21
10.2503
 31
0.0
  0
LINE
  8
0
 62
     30
 10
104.933
 20
10.2503
 30
0.0
 11
104.929
 21
10.6375
 31
0.0
  0
LINE
  8
0
 62
     30
 10
104.929
 20
10.6375
 30
0.0
 11
104.954
 21
11.0241
 31
0.0
  0
LINE
  8
0
 62
     30
 10
104.954
 20
11.0241
 30
0.0
 11
105.006
 21
11.4079
 31
0.0
  0
LINE
  8
0
 62
     30
 10
105.006
 20
11.4079
 30
0.0
 11
105.085
 21
11.7867
 31
0.0
  0
LINE
  8
0
 62
     30
 10
105.085
 20
11.7867
 30
0.0
 11
105.192
 21
12.1586
 31
0.0
  0
LINE
  8
0
 62
     30
 10
105.192
 20
12.1586
 30
0.0
 11
105.327
 21
12.5213
 31
0.0
  0
LINE
  8
0
 62
     30
 10
105.327
 20
12.5213
 30
0.0
 11
105.489
 21
12.8728
 31
0.0
  0
LINE
  8
0
 62
     30
 10
105.489
 20
12.8728
 30
0.0
 11
105.678
 21
13.2108
 31
0.0
  0
LINE
  8
0
 62
     30
 10
105.678
 20
13.2108
 30
0.0
 11
105.894
 21
13.5333
 31
0.0
  0
LINE
  8
0
 62
     30
 10
117.242
 20
11.6555
 30
0.0
 11
117.342
 21
12.0618
 31
0.0
  0
LINE
  8
0
 62
     30
 10
117.342
 20
12.0618
 30
0.0
 11
117.476
 21
12.4581
 31
0.0
  0
LINE
  8
0
 62
     30
 10
117.476
 20
12.4581
 30
0.0
 11
117.643
 21
12.8422
 31
0.0
  0
LINE
  8
0
 62
     30
 10
117.643
 20
12.8422
 30
0.0
 11
117.841
 21
13.2119
 31
0.0
  0
LINE
  8
0
 62
     30
 10
117.841
 20
13.2119
 30
0.0
 11
118.068
 21
13.565
 31
0.0
  0
LINE
  8
0
 62
     30
 10
118.068
 20
13.565
 30
0.0
 11
118.322
 21
13.8993
 31
0.0
  0
LINE
  8
0
 62
     30
 10
118.322
 20
13.8993
 30
0.0
 11
118.601
 21
14.2124
 31
0.0
  0
LINE
  8
0
 62
     30
 10
118.601
 20
14.2124
 30
0.0
 11
118.904
 21
14.5021
 31
0.0
  0
LINE
  8
0
 62
     30
 10
118.904
 20
14.5021
 30
0.0
 11
119.228
 21
14.7663
 31
0.0
  0
LINE
  8
0
 62
     30
 10
119.228
 20
14.7663
 30
0.0
 11
119.572
 21
15.0026
 31
0.0
  0
LINE
  8
0
 62
     30
 10
119.572
 20
15.0026
 30
0.0
 11
119.935
 21
15.2089
 31
0.0
  0
LINE
  8
0
 62
     30
 10
119.935
 20
15.2089
 30
0.0
 11
120.313
 21
15.3829
 31
0.0
  0
LINE
  8
0
 62
     30
 10
120.313
 20
15.3829
 30
0.0
 11
120.705
 21
15.5224
 31
0.0
  0
LINE
  8
0
 62
     30
 10
120.705
 20
15.5224
 30
0.0
 11
121.11
 21
15.625
 31
0.0
  0
LINE
  8
0
 62
     30
 10
121.11
 20
15.625
 30
0.0
 11
121.526
 21
15.6887
 31
0.0
  0
LINE
  8
0
 62
     30
 10
121.526
 20
15.6887
 30
0.0
 11
121.95
 21
15.7111
 31
0.0
  0
LINE
  8
0
 62
     30
 10
121.95
 20
15.7111
 30
0.0
 11
122.349
 21
15.7071
 31
0.0
  0
LINE
  8
0
 62
     30
 10
122.349
 20
15.7071
 30
0.0
 11
122.739
 21
15.6526
 31
0.0
  0
LINE
  8
0
 62
     30
 10
122.739
 20
15.6526
 30
0.0
 11
123.117
 21
15.5531
 31
0.0
  0
LINE
  8
0
 62
     30
 10
123.117
 20
15.5531
 30
0.0
 11
123.483
 21
15.4136
 31
0.0
  0
LINE
  8
0
 62
     30
 10
123.483
 20
15.4136
 30
0.0
 11
123.836
 21
15.2396
 31
0.0
  0
LINE
  8
0
 62
     30
 10
123.836
 20
15.2396
 30
0.0
 11
124.175
 21
15.0365
 31
0.0
  0
LINE
  8
0
 62
     30
 10
124.175
 20
15.0365
 30
0.0
 11
124.498
 21
14.8096
 31
0.0
  0
LINE
  8
0
 62
     30
 10
124.498
 20
14.8096
 30
0.0
 11
124.806
 21
14.5639
 31
0.0
  0
LINE
  8
0
 62
     30
 10
124.806
 20
14.5639
 30
0.0
 11
124.803
 21
14.7578
 31
0.0
  0
LINE
  8
0
 62
     30
 10
124.803
 20
14.7578
 30
0.0
 11
124.798
 21
14.9917
 31
0.0
  0
LINE
  8
0
 62
     30
 10
124.798
 20
14.9917
 30
0.0
 11
124.793
 21
15.2257
 31
0.0
  0
LINE
  8
0
 62
     30
 10
124.793
 20
15.2257
 30
0.0
 11
124.789
 21
15.4194
 31
0.0
  0
LINE
  8
0
 62
     30
 10
124.789
 20
15.4194
 30
0.0
 11
126.717
 21
15.4167
 31
0.0
  0
LINE
  8
0
 62
     30
 10
126.717
 20
15.4167
 30
0.0
 11
126.717
 21
12.1528
 31
0.0
  0
LINE
  8
0
 62
     30
 10
126.717
 20
12.1528
 30
0.0
 11
124.689
 21
12.1639
 31
0.0
  0
LINE
  8
0
 62
     30
 10
124.689
 20
12.1639
 30
0.0
 11
124.42
 21
12.4522
 31
0.0
  0
LINE
  8
0
 62
     30
 10
124.42
 20
12.4522
 30
0.0
 11
124.127
 21
12.7219
 31
0.0
  0
LINE
  8
0
 62
     30
 10
124.127
 20
12.7219
 30
0.0
 11
123.811
 21
12.9645
 31
0.0
  0
LINE
  8
0
 62
     30
 10
123.811
 20
12.9645
 30
0.0
 11
123.474
 21
13.1716
 31
0.0
  0
LINE
  8
0
 62
     30
 10
123.474
 20
13.1716
 30
0.0
 11
123.118
 21
13.3346
 31
0.0
  0
LINE
  8
0
 62
     30
 10
123.118
 20
13.3346
 30
0.0
 11
122.744
 21
13.4452
 31
0.0
  0
LINE
  8
0
 62
     30
 10
122.744
 20
13.4452
 30
0.0
 11
122.353
 21
13.4948
 31
0.0
  0
LINE
  8
0
 62
     30
 10
122.353
 20
13.4948
 30
0.0
 11
121.947
 21
13.475
 31
0.0
  0
LINE
  8
0
 62
     30
 10
121.947
 20
13.475
 30
0.0
 11
121.64
 21
13.4367
 31
0.0
  0
LINE
  8
0
 62
     30
 10
121.64
 20
13.4367
 30
0.0
 11
121.344
 21
13.3622
 31
0.0
  0
LINE
  8
0
 62
     30
 10
121.344
 20
13.3622
 30
0.0
 11
121.063
 21
13.254
 31
0.0
  0
LINE
  8
0
 62
     30
 10
121.063
 20
13.254
 30
0.0
 11
120.797
 21
13.115
 31
0.0
  0
LINE
  8
0
 62
     30
 10
120.797
 20
13.115
 30
0.0
 11
120.547
 21
12.9476
 31
0.0
  0
LINE
  8
0
 62
     30
 10
120.547
 20
12.9476
 30
0.0
 11
120.317
 21
12.7547
 31
0.0
  0
LINE
  8
0
 62
     30
 10
120.317
 20
12.7547
 30
0.0
 11
120.107
 21
12.5389
 31
0.0
  0
LINE
  8
0
 62
     30
 10
120.107
 20
12.5389
 30
0.0
 11
119.919
 21
12.3028
 31
0.0
  0
LINE
  8
0
 62
     30
 10
119.919
 20
12.3028
 30
0.0
 11
119.755
 21
12.0492
 31
0.0
  0
LINE
  8
0
 62
     30
 10
119.755
 20
12.0492
 30
0.0
 11
119.616
 21
11.7806
 31
0.0
  0
LINE
  8
0
 62
     30
 10
119.616
 20
11.7806
 30
0.0
 11
119.505
 21
11.4998
 31
0.0
  0
LINE
  8
0
 62
     30
 10
119.505
 20
11.4998
 30
0.0
 11
119.421
 21
11.2094
 31
0.0
  0
LINE
  8
0
 62
     30
 10
119.421
 20
11.2094
 30
0.0
 11
119.369
 21
10.9121
 31
0.0
  0
LINE
  8
0
 62
     30
 10
119.369
 20
10.9121
 30
0.0
 11
119.348
 21
10.6106
 31
0.0
  0
LINE
  8
0
 62
     30
 10
119.348
 20
10.6106
 30
0.0
 11
119.36
 21
10.3075
 31
0.0
  0
LINE
  8
0
 62
     30
 10
119.36
 20
10.3075
 30
0.0
 11
119.408
 21
10.0055
 31
0.0
  0
LINE
  8
0
 62
     30
 10
119.408
 20
10.0055
 30
0.0
 11
119.472
 21
9.70736
 31
0.0
  0
LINE
  8
0
 62
     30
 10
119.472
 20
9.70736
 30
0.0
 11
119.57
 21
9.42225
 31
0.0
  0
LINE
  8
0
 62
     30
 10
119.57
 20
9.42225
 30
0.0
 11
119.699
 21
9.15181
 31
0.0
  0
LINE
  8
0
 62
     30
 10
119.699
 20
9.15181
 30
0.0
 11
119.857
 21
8.89779
 31
0.0
  0
LINE
  8
0
 62
     30
 10
119.857
 20
8.89779
 30
0.0
 11
120.041
 21
8.66174
 31
0.0
  0
LINE
  8
0
 62
     30
 10
120.041
 20
8.66174
 30
0.0
 11
120.248
 21
8.44542
 31
0.0
  0
LINE
  8
0
 62
     30
 10
120.248
 20
8.44542
 30
0.0
 11
120.475
 21
8.25049
 31
0.0
  0
LINE
  8
0
 62
     30
 10
120.475
 20
8.25049
 30
0.0
 11
120.721
 21
8.0785
 31
0.0
  0
LINE
  8
0
 62
     30
 10
120.721
 20
8.0785
 30
0.0
 11
120.982
 21
7.93121
 31
0.0
  0
LINE
  8
0
 62
     30
 10
120.982
 20
7.93121
 30
0.0
 11
121.256
 21
7.81028
 31
0.0
  0
LINE
  8
0
 62
     30
 10
121.256
 20
7.81028
 30
0.0
 11
121.541
 21
7.71733
 31
0.0
  0
LINE
  8
0
 62
     30
 10
121.541
 20
7.71733
 30
0.0
 11
121.833
 21
7.65403
 31
0.0
  0
LINE
  8
0
 62
     30
 10
121.833
 20
7.65403
 30
0.0
 11
122.13
 21
7.62207
 31
0.0
  0
LINE
  8
0
 62
     30
 10
122.13
 20
7.62207
 30
0.0
 11
122.429
 21
7.62304
 31
0.0
  0
LINE
  8
0
 62
     30
 10
122.429
 20
7.62304
 30
0.0
 11
122.728
 21
7.65869
 31
0.0
  0
LINE
  8
0
 62
     30
 10
122.728
 20
7.65869
 30
0.0
 11
123.025
 21
7.73058
 31
0.0
  0
LINE
  8
0
 62
     30
 10
123.025
 20
7.73058
 30
0.0
 11
123.28
 21
7.80675
 31
0.0
  0
LINE
  8
0
 62
     30
 10
123.28
 20
7.80675
 30
0.0
 11
123.516
 21
7.91515
 31
0.0
  0
LINE
  8
0
 62
     30
 10
123.516
 20
7.91515
 30
0.0
 11
123.736
 21
8.05089
 31
0.0
  0
LINE
  8
0
 62
     30
 10
123.736
 20
8.05089
 30
0.0
 11
123.942
 21
8.2091
 31
0.0
  0
LINE
  8
0
 62
     30
 10
123.942
 20
8.2091
 30
0.0
 11
124.136
 21
8.38465
 31
0.0
  0
LINE
  8
0
 62
     30
 10
124.136
 20
8.38465
 30
0.0
 11
124.319
 21
8.57281
 31
0.0
  0
LINE
  8
0
 62
     30
 10
124.319
 20
8.57281
 30
0.0
 11
124.495
 21
8.76844
 31
0.0
  0
LINE
  8
0
 62
     30
 10
124.495
 20
8.76844
 30
0.0
 11
124.664
 21
8.96669
 31
0.0
  0
LINE
  8
0
 62
     30
 10
124.664
 20
8.96669
 30
0.0
 11
125.898
 21
8.97569
 31
0.0
  0
LINE
  8
0
 62
     30
 10
125.898
 20
8.97569
 30
0.0
 11
127.133
 21
8.96386
 31
0.0
  0
LINE
  8
0
 62
     30
 10
127.133
 20
8.96386
 30
0.0
 11
126.956
 21
8.54878
 31
0.0
  0
LINE
  8
0
 62
     30
 10
126.956
 20
8.54878
 30
0.0
 11
126.752
 21
8.14567
 31
0.0
  0
LINE
  8
0
 62
     30
 10
126.752
 20
8.14567
 30
0.0
 11
126.519
 21
7.75846
 31
0.0
  0
LINE
  8
0
 62
     30
 10
126.519
 20
7.75846
 30
0.0
 11
126.258
 21
7.391
 31
0.0
  0
LINE
  8
0
 62
     30
 10
126.258
 20
7.391
 30
0.0
 11
125.968
 21
7.04725
 31
0.0
  0
LINE
  8
0
 62
     30
 10
125.968
 20
7.04725
 30
0.0
 11
125.648
 21
6.73107
 31
0.0
  0
LINE
  8
0
 62
     30
 10
125.648
 20
6.73107
 30
0.0
 11
125.299
 21
6.44646
 31
0.0
  0
LINE
  8
0
 62
     30
 10
125.299
 20
6.44646
 30
0.0
 11
124.919
 21
6.19721
 31
0.0
  0
LINE
  8
0
 62
     30
 10
124.919
 20
6.19721
 30
0.0
 11
124.59
 21
6.00315
 31
0.0
  0
LINE
  8
0
 62
     30
 10
124.59
 20
6.00315
 30
0.0
 11
124.246
 21
5.83746
 31
0.0
  0
LINE
  8
0
 62
     30
 10
124.246
 20
5.83746
 30
0.0
 11
123.892
 21
5.70003
 31
0.0
  0
LINE
  8
0
 62
     30
 10
123.892
 20
5.70003
 30
0.0
 11
123.528
 21
5.59076
 31
0.0
  0
LINE
  8
0
 62
     30
 10
123.528
 20
5.59076
 30
0.0
 11
123.156
 21
5.50956
 31
0.0
  0
LINE
  8
0
 62
     30
 10
123.156
 20
5.50956
 30
0.0
 11
122.78
 21
5.45628
 31
0.0
  0
LINE
  8
0
 62
     30
 10
122.78
 20
5.45628
 30
0.0
 11
122.401
 21
5.43078
 31
0.0
  0
LINE
  8
0
 62
     30
 10
122.401
 20
5.43078
 30
0.0
 11
122.02
 21
5.433
 31
0.0
  0
LINE
  8
0
 62
     30
 10
122.02
 20
5.433
 30
0.0
 11
121.641
 21
5.46278
 31
0.0
  0
LINE
  8
0
 62
     30
 10
121.641
 20
5.46278
 30
0.0
 11
121.265
 21
5.52001
 31
0.0
  0
LINE
  8
0
 62
     30
 10
121.265
 20
5.52001
 30
0.0
 11
120.894
 21
5.6046
 31
0.0
  0
LINE
  8
0
 62
     30
 10
120.894
 20
5.6046
 30
0.0
 11
120.53
 21
5.71636
 31
0.0
  0
LINE
  8
0
 62
     30
 10
120.53
 20
5.71636
 30
0.0
 11
120.176
 21
5.85525
 31
0.0
  0
LINE
  8
0
 62
     30
 10
120.176
 20
5.85525
 30
0.0
 11
119.834
 21
6.02115
 31
0.0
  0
LINE
  8
0
 62
     30
 10
119.834
 20
6.02115
 30
0.0
 11
119.505
 21
6.21386
 31
0.0
  0
LINE
  8
0
 62
     30
 10
119.505
 20
6.21386
 30
0.0
 11
119.192
 21
6.43332
 31
0.0
  0
LINE
  8
0
 62
     30
 10
119.192
 20
6.43332
 30
0.0
 11
118.9
 21
6.66174
 31
0.0
  0
LINE
  8
0
 62
     30
 10
118.9
 20
6.66174
 30
0.0
 11
118.628
 21
6.91124
 31
0.0
  0
LINE
  8
0
 62
     30
 10
118.628
 20
6.91124
 30
0.0
 11
118.377
 21
7.18024
 31
0.0
  0
LINE
  8
0
 62
     30
 10
118.377
 20
7.18024
 30
0.0
 11
118.147
 21
7.4669
 31
0.0
  0
LINE
  8
0
 62
     30
 10
118.147
 20
7.4669
 30
0.0
 11
117.938
 21
7.76958
 31
0.0
  0
LINE
  8
0
 62
     30
 10
117.938
 20
7.76958
 30
0.0
 11
117.751
 21
8.08643
 31
0.0
  0
LINE
  8
0
 62
     30
 10
117.751
 20
8.08643
 30
0.0
 11
117.587
 21
8.41581
 31
0.0
  0
LINE
  8
0
 62
     30
 10
117.587
 20
8.41581
 30
0.0
 11
117.447
 21
8.75592
 31
0.0
  0
LINE
  8
0
 62
     30
 10
117.447
 20
8.75592
 30
0.0
 11
117.33
 21
9.10508
 31
0.0
  0
LINE
  8
0
 62
     30
 10
117.33
 20
9.10508
 30
0.0
 11
117.239
 21
9.46149
 31
0.0
  0
LINE
  8
0
 62
     30
 10
117.239
 20
9.46149
 30
0.0
 11
117.172
 21
9.82346
 31
0.0
  0
LINE
  8
0
 62
     30
 10
117.172
 20
9.82346
 30
0.0
 11
117.132
 21
10.1892
 31
0.0
  0
LINE
  8
0
 62
     30
 10
117.132
 20
10.1892
 30
0.0
 11
117.118
 21
10.557
 31
0.0
  0
LINE
  8
0
 62
     30
 10
117.118
 20
10.557
 30
0.0
 11
117.131
 21
10.9252
 31
0.0
  0
LINE
  8
0
 62
     30
 10
117.131
 20
10.9252
 30
0.0
 11
117.172
 21
11.2919
 31
0.0
  0
LINE
  8
0
 62
     30
 10
117.172
 20
11.2919
 30
0.0
 11
117.242
 21
11.6555
 31
0.0
  0
LINE
  8
0
 62
     30
 10
138.844
 20
13.35
 30
0.0
 11
139.143
 21
13.7835
 31
0.0
  0
LINE
  8
0
 62
     30
 10
139.143
 20
13.7835
 30
0.0
 11
139.486
 21
14.1818
 31
0.0
  0
LINE
  8
0
 62
     30
 10
139.486
 20
14.1818
 30
0.0
 11
139.869
 21
14.5412
 31
0.0
  0
LINE
  8
0
 62
     30
 10
139.869
 20
14.5412
 30
0.0
 11
140.289
 21
14.8583
 31
0.0
  0
LINE
  8
0
 62
     30
 10
140.289
 20
14.8583
 30
0.0
 11
140.74
 21
15.1297
 31
0.0
  0
LINE
  8
0
 62
     30
 10
140.74
 20
15.1297
 30
0.0
 11
141.217
 21
15.3517
 31
0.0
  0
LINE
  8
0
 62
     30
 10
141.217
 20
15.3517
 30
0.0
 11
141.715
 21
15.5207
 31
0.0
  0
LINE
  8
0
 62
     30
 10
141.715
 20
15.5207
 30
0.0
 11
142.231
 21
15.6333
 31
0.0
  0
LINE
  8
0
 62
     30
 10
142.231
 20
15.6333
 30
0.0
 11
142.647
 21
15.6915
 31
0.0
  0
LINE
  8
0
 62
     30
 10
142.647
 20
15.6915
 30
0.0
 11
143.065
 21
15.7115
 31
0.0
  0
LINE
  8
0
 62
     30
 10
143.065
 20
15.7115
 30
0.0
 11
143.483
 21
15.6949
 31
0.0
  0
LINE
  8
0
 62
     30
 10
143.483
 20
15.6949
 30
0.0
 11
143.897
 21
15.6426
 31
0.0
  0
LINE
  8
0
 62
     30
 10
143.897
 20
15.6426
 30
0.0
 11
144.307
 21
15.556
 31
0.0
  0
LINE
  8
0
 62
     30
 10
144.307
 20
15.556
 30
0.0
 11
144.708
 21
15.4363
 31
0.0
  0
LINE
  8
0
 62
     30
 10
144.708
 20
15.4363
 30
0.0
 11
145.1
 21
15.2849
 31
0.0
  0
LINE
  8
0
 62
     30
 10
145.1
 20
15.2849
 30
0.0
 11
145.476
 21
15.1028
 31
0.0
  0
LINE
  8
0
 62
     30
 10
145.476
 20
15.1028
 30
0.0
 11
145.839
 21
14.8915
 31
0.0
  0
LINE
  8
0
 62
     30
 10
145.839
 20
14.8915
 30
0.0
 11
146.182
 21
14.6521
 31
0.0
  0
LINE
  8
0
 62
     30
 10
146.182
 20
14.6521
 30
0.0
 11
146.504
 21
14.386
 31
0.0
  0
LINE
  8
0
 62
     30
 10
146.504
 20
14.386
 30
0.0
 11
146.803
 21
14.0943
 31
0.0
  0
LINE
  8
0
 62
     30
 10
146.803
 20
14.0943
 30
0.0
 11
147.076
 21
13.7783
 31
0.0
  0
LINE
  8
0
 62
     30
 10
147.076
 20
13.7783
 30
0.0
 11
147.319
 21
13.4393
 31
0.0
  0
LINE
  8
0
 62
     30
 10
147.319
 20
13.4393
 30
0.0
 11
147.532
 21
13.0786
 31
0.0
  0
LINE
  8
0
 62
     30
 10
147.532
 20
13.0786
 30
0.0
 11
147.711
 21
12.6972
 31
0.0
  0
LINE
  8
0
 62
     30
 10
147.711
 20
12.6972
 30
0.0
 11
147.85
 21
12.3404
 31
0.0
  0
LINE
  8
0
 62
     30
 10
147.85
 20
12.3404
 30
0.0
 11
147.954
 21
11.9751
 31
0.0
  0
LINE
  8
0
 62
     30
 10
147.954
 20
11.9751
 30
0.0
 11
148.029
 21
11.6032
 31
0.0
  0
LINE
  8
0
 62
     30
 10
148.029
 20
11.6032
 30
0.0
 11
148.078
 21
11.2264
 31
0.0
  0
LINE
  8
0
 62
     30
 10
148.078
 20
11.2264
 30
0.0
 11
148.103
 21
10.8465
 31
0.0
  0
LINE
  8
0
 62
     30
 10
148.103
 20
10.8465
 30
0.0
 11
148.11
 21
10.4652
 31
0.0
  0
LINE
  8
0
 62
     30
 10
148.11
 20
10.4652
 30
0.0
 11
148.101
 21
10.0843
 31
0.0
  0
LINE
  8
0
 62
     30
 10
148.101
 20
10.0843
 30
0.0
 11
148.083
 21
9.70557
 31
0.0
  0
LINE
  8
0
 62
     30
 10
148.083
 20
9.70557
 30
0.0
 11
144.121
 21
9.70731
 31
0.0
  0
LINE
  8
0
 62
     30
 10
144.121
 20
9.70731
 30
0.0
 11
140.158
 21
9.69444
 31
0.0
  0
LINE
  8
0
 62
     30
 10
140.158
 20
9.69444
 30
0.0
 11
140.24
 21
9.46035
 31
0.0
  0
LINE
  8
0
 62
     30
 10
140.24
 20
9.46035
 30
0.0
 11
140.339
 21
9.23275
 31
0.0
  0
LINE
  8
0
 62
     30
 10
140.339
 20
9.23275
 30
0.0
 11
140.453
 21
9.01286
 31
0.0
  0
LINE
  8
0
 62
     30
 10
140.453
 20
9.01286
 30
0.0
 11
140.583
 21
8.80186
 31
0.0
  0
LINE
  8
0
 62
     30
 10
140.583
 20
8.80186
 30
0.0
 11
140.726
 21
8.60097
 31
0.0
  0
LINE
  8
0
 62
     30
 10
140.726
 20
8.60097
 30
0.0
 11
140.885
 21
8.41129
 31
0.0
  0
LINE
  8
0
 62
     30
 10
140.885
 20
8.41129
 30
0.0
 11
141.054
 21
8.2341
 31
0.0
  0
LINE
  8
0
 62
     30
 10
141.054
 20
8.2341
 30
0.0
 11
141.237
 21
8.07047
 31
0.0
  0
LINE
  8
0
 62
     30
 10
141.237
 20
8.07047
 30
0.0
 11
141.432
 21
7.92171
 31
0.0
  0
LINE
  8
0
 62
     30
 10
141.432
 20
7.92171
 30
0.0
 11
141.636
 21
7.78896
 31
0.0
  0
LINE
  8
0
 62
     30
 10
141.636
 20
7.78896
 30
0.0
 11
141.851
 21
7.67333
 31
0.0
  0
LINE
  8
0
 62
     30
 10
141.851
 20
7.67333
 30
0.0
 11
142.075
 21
7.57611
 31
0.0
  0
LINE
  8
0
 62
     30
 10
142.075
 20
7.57611
 30
0.0
 11
142.308
 21
7.49843
 31
0.0
  0
LINE
  8
0
 62
     30
 10
142.308
 20
7.49843
 30
0.0
 11
142.549
 21
7.44146
 31
0.0
  0
LINE
  8
0
 62
     30
 10
142.549
 20
7.44146
 30
0.0
 11
142.796
 21
7.40642
 31
0.0
  0
LINE
  8
0
 62
     30
 10
142.796
 20
7.40642
 30
0.0
 11
143.05
 21
7.39442
 31
0.0
  0
LINE
  8
0
 62
     30
 10
143.05
 20
7.39442
 30
0.0
 11
143.408
 21
7.3916
 31
0.0
  0
LINE
  8
0
 62
     30
 10
143.408
 20
7.3916
 30
0.0
 11
143.754
 21
7.44183
 31
0.0
  0
LINE
  8
0
 62
     30
 10
143.754
 20
7.44183
 30
0.0
 11
144.086
 21
7.53976
 31
0.0
  0
LINE
  8
0
 62
     30
 10
144.086
 20
7.53976
 30
0.0
 11
144.404
 21
7.67985
 31
0.0
  0
LINE
  8
0
 62
     30
 10
144.404
 20
7.67985
 30
0.0
 11
144.706
 21
7.85672
 31
0.0
  0
LINE
  8
0
 62
     30
 10
144.706
 20
7.85672
 30
0.0
 11
144.989
 21
8.06478
 31
0.0
  0
LINE
  8
0
 62
     30
 10
144.989
 20
8.06478
 30
0.0
 11
145.253
 21
8.29867
 31
0.0
  0
LINE
  8
0
 62
     30
 10
145.253
 20
8.29867
 30
0.0
 11
145.497
 21
8.55279
 31
0.0
  0
LINE
  8
0
 62
     30
 10
145.497
 20
8.55279
 30
0.0
 11
146.651
 21
8.56044
 31
0.0
  0
LINE
  8
0
 62
     30
 10
146.651
 20
8.56044
 30
0.0
 11
147.808
 21
8.54719
 31
0.0
  0
LINE
  8
0
 62
     30
 10
147.808
 20
8.54719
 30
0.0
 11
147.61
 21
8.17839
 31
0.0
  0
LINE
  8
0
 62
     30
 10
147.61
 20
8.17839
 30
0.0
 11
147.392
 21
7.81836
 31
0.0
  0
LINE
  8
0
 62
     30
 10
147.392
 20
7.81836
 30
0.0
 11
147.154
 21
7.47131
 31
0.0
  0
LINE
  8
0
 62
     30
 10
147.154
 20
7.47131
 30
0.0
 11
146.894
 21
7.14133
 31
0.0
  0
LINE
  8
0
 62
     30
 10
146.894
 20
7.14133
 30
0.0
 11
146.612
 21
6.83257
 31
0.0
  0
LINE
  8
0
 62
     30
 10
146.612
 20
6.83257
 30
0.0
 11
146.306
 21
6.54921
 31
0.0
  0
LINE
  8
0
 62
     30
 10
146.306
 20
6.54921
 30
0.0
 11
145.972
 21
6.29531
 31
0.0
  0
LINE
  8
0
 62
     30
 10
145.972
 20
6.29531
 30
0.0
 11
145.611
 21
6.07497
 31
0.0
  0
LINE
  8
0
 62
     30
 10
145.611
 20
6.07497
 30
0.0
 11
145.218
 21
5.86654
 31
0.0
  0
LINE
  8
0
 62
     30
 10
145.218
 20
5.86654
 30
0.0
 11
144.808
 21
5.69906
 31
0.0
  0
LINE
  8
0
 62
     30
 10
144.808
 20
5.69906
 30
0.0
 11
144.386
 21
5.57183
 31
0.0
  0
LINE
  8
0
 62
     30
 10
144.386
 20
5.57183
 30
0.0
 11
143.954
 21
5.48415
 31
0.0
  0
LINE
  8
0
 62
     30
 10
143.954
 20
5.48415
 30
0.0
 11
143.517
 21
5.43533
 31
0.0
  0
LINE
  8
0
 62
     30
 10
143.517
 20
5.43533
 30
0.0
 11
143.076
 21
5.42464
 31
0.0
  0
LINE
  8
0
 62
     30
 10
143.076
 20
5.42464
 30
0.0
 11
142.636
 21
5.45144
 31
0.0
  0
LINE
  8
0
 62
     30
 10
142.636
 20
5.45144
 30
0.0
 11
142.199
 21
5.51492
 31
0.0
  0
LINE
  8
0
 62
     30
 10
142.199
 20
5.51492
 30
0.0
 11
141.768
 21
5.61447
 31
0.0
  0
LINE
  8
0
 62
     30
 10
141.768
 20
5.61447
 30
0.0
 11
141.347
 21
5.74935
 31
0.0
  0
LINE
  8
0
 62
     30
 10
141.347
 20
5.74935
 30
0.0
 11
140.939
 21
5.91883
 31
0.0
  0
LINE
  8
0
 62
     30
 10
140.939
 20
5.91883
 30
0.0
 11
140.547
 21
6.12229
 31
0.0
  0
LINE
  8
0
 62
     30
 10
140.547
 20
6.12229
 30
0.0
 11
140.175
 21
6.35894
 31
0.0
  0
LINE
  8
0
 62
     30
 10
140.175
 20
6.35894
 30
0.0
 11
139.826
 21
6.6281
 31
0.0
  0
LINE
  8
0
 62
     30
 10
139.826
 20
6.6281
 30
0.0
 11
139.503
 21
6.9291
 31
0.0
  0
LINE
  8
0
 62
     30
 10
139.503
 20
6.9291
 30
0.0
 11
139.208
 21
7.26113
 31
0.0
  0
LINE
  8
0
 62
     30
 10
139.208
 20
7.26113
 30
0.0
 11
138.958
 21
7.5849
 31
0.0
  0
LINE
  8
0
 62
     30
 10
138.958
 20
7.5849
 30
0.0
 11
138.739
 21
7.92746
 31
0.0
  0
LINE
  8
0
 62
     30
 10
138.739
 20
7.92746
 30
0.0
 11
138.55
 21
8.28646
 31
0.0
  0
LINE
  8
0
 62
     30
 10
138.55
 20
8.28646
 30
0.0
 11
138.391
 21
8.6594
 31
0.0
  0
LINE
  8
0
 62
     30
 10
138.391
 20
8.6594
 30
0.0
 11
138.263
 21
9.04394
 31
0.0
  0
LINE
  8
0
 62
     30
 10
138.263
 20
9.04394
 30
0.0
 11
138.166
 21
9.43772
 31
0.0
  0
LINE
  8
0
 62
     30
 10
138.166
 20
9.43772
 30
0.0
 11
138.099
 21
9.83822
 31
0.0
  0
LINE
  8
0
 62
     30
 10
138.099
 20
9.83822
 30
0.0
 11
138.062
 21
10.2431
 31
0.0
  0
LINE
  8
0
 62
     30
 10
138.062
 20
10.2431
 30
0.0
 11
138.055
 21
10.6499
 31
0.0
  0
LINE
  8
0
 62
     30
 10
138.055
 20
10.6499
 30
0.0
 11
138.078
 21
11.0563
 31
0.0
  0
LINE
  8
0
 62
     30
 10
138.078
 20
11.0563
 30
0.0
 11
138.131
 21
11.4598
 31
0.0
  0
LINE
  8
0
 62
     30
 10
138.131
 20
11.4598
 30
0.0
 11
138.215
 21
11.858
 31
0.0
  0
LINE
  8
0
 62
     30
 10
138.215
 20
11.858
 30
0.0
 11
138.328
 21
12.2485
 31
0.0
  0
LINE
  8
0
 62
     30
 10
138.328
 20
12.2485
 30
0.0
 11
138.47
 21
12.629
 31
0.0
  0
LINE
  8
0
 62
     30
 10
138.47
 20
12.629
 30
0.0
 11
138.642
 21
12.997
 31
0.0
  0
LINE
  8
0
 62
     30
 10
138.642
 20
12.997
 30
0.0
 11
138.844
 21
13.35
 31
0.0
  0
LINE
  8
0
 62
     30
 10
152.081
 20
13.8695
 30
0.0
 11
152.34
 21
14.2289
 31
0.0
  0
LINE
  8
0
 62
     30
 10
152.34
 20
14.2289
 30
0.0
 11
152.639
 21
14.5465
 31
0.0
  0
LINE
  8
0
 62
     30
 10
152.639
 20
14.5465
 30
0.0
 11
152.971
 21
14.8226
 31
0.0
  0
LINE
  8
0
 62
     30
 10
152.971
 20
14.8226
 30
0.0
 11
153.332
 21
15.0569
 31
0.0
  0
LINE
  8
0
 62
     30
 10
153.332
 20
15.0569
 30
0.0
 11
153.719
 21
15.2497
 31
0.0
  0
LINE
  8
0
 62
     30
 10
153.719
 20
15.2497
 30
0.0
 11
154.128
 21
15.4007
 31
0.0
  0
LINE
  8
0
 62
     30
 10
154.128
 20
15.4007
 30
0.0
 11
154.551
 21
15.5101
 31
0.0
  0
LINE
  8
0
 62
     30
 10
154.551
 20
15.5101
 30
0.0
 11
154.989
 21
15.5778
 31
0.0
  0
LINE
  8
0
 62
     30
 10
154.989
 20
15.5778
 30
0.0
 11
155
 21
13.2778
 31
0.0
  0
LINE
  8
0
 62
     30
 10
155
 20
13.2778
 30
0.0
 11
154.793
 21
13.2474
 31
0.0
  0
LINE
  8
0
 62
     30
 10
154.793
 20
13.2474
 30
0.0
 11
154.585
 21
13.2072
 31
0.0
  0
LINE
  8
0
 62
     30
 10
154.585
 20
13.2072
 30
0.0
 11
154.376
 21
13.1567
 31
0.0
  0
LINE
  8
0
 62
     30
 10
154.376
 20
13.1567
 30
0.0
 11
154.171
 21
13.0958
 31
0.0
  0
LINE
  8
0
 62
     30
 10
154.171
 20
13.0958
 30
0.0
 11
153.968
 21
13.024
 31
0.0
  0
LINE
  8
0
 62
     30
 10
153.968
 20
13.024
 30
0.0
 11
153.771
 21
12.941
 31
0.0
  0
LINE
  8
0
 62
     30
 10
153.771
 20
12.941
 30
0.0
 11
153.581
 21
12.8465
 31
0.0
  0
LINE
  8
0
 62
     30
 10
153.581
 20
12.8465
 30
0.0
 11
153.397
 21
12.7403
 31
0.0
  0
LINE
  8
0
 62
     30
 10
153.397
 20
12.7403
 30
0.0
 11
153.224
 21
12.622
 31
0.0
  0
LINE
  8
0
 62
     30
 10
153.224
 20
12.622
 30
0.0
 11
153.061
 21
12.4912
 31
0.0
  0
LINE
  8
0
 62
     30
 10
153.061
 20
12.4912
 30
0.0
 11
152.911
 21
12.3477
 31
0.0
  0
LINE
  8
0
 62
     30
 10
152.911
 20
12.3477
 30
0.0
 11
152.775
 21
12.1911
 31
0.0
  0
LINE
  8
0
 62
     30
 10
152.775
 20
12.1911
 30
0.0
 11
152.654
 21
12.0212
 31
0.0
  0
LINE
  8
0
 62
     30
 10
152.654
 20
12.0212
 30
0.0
 11
152.55
 21
11.8375
 31
0.0
  0
LINE
  8
0
 62
     30
 10
152.55
 20
11.8375
 30
0.0
 11
152.465
 21
11.6398
 31
0.0
  0
LINE
  8
0
 62
     30
 10
152.465
 20
11.6398
 30
0.0
 11
152.4
 21
11.4278
 31
0.0
  0
LINE
  8
0
 62
     30
 10
152.4
 20
11.4278
 30
0.0
 11
152.322
 21
10.9772
 31
0.0
  0
LINE
  8
0
 62
     30
 10
152.322
 20
10.9772
 30
0.0
 11
152.276
 21
10.5235
 31
0.0
  0
LINE
  8
0
 62
     30
 10
152.276
 20
10.5235
 30
0.0
 11
152.253
 21
10.0678
 31
0.0
  0
LINE
  8
0
 62
     30
 10
152.253
 20
10.0678
 30
0.0
 11
152.247
 21
9.61046
 31
0.0
  0
LINE
  8
0
 62
     30
 10
152.247
 20
9.61046
 30
0.0
 11
152.251
 21
9.1524
 31
0.0
  0
LINE
  8
0
 62
     30
 10
152.251
 20
9.1524
 30
0.0
 11
152.258
 21
8.69422
 31
0.0
  0
LINE
  8
0
 62
     30
 10
152.258
 20
8.69422
 30
0.0
 11
152.264
 21
8.23671
 31
0.0
  0
LINE
  8
0
 62
     30
 10
152.264
 20
8.23671
 30
0.0
 11
152.258
 21
7.78054
 31
0.0
  0
LINE
  8
0
 62
     30
 10
152.258
 20
7.78054
 30
0.0
 11
153.528
 21
7.77501
 31
0.0
  0
LINE
  8
0
 62
     30
 10
153.528
 20
7.77501
 30
0.0
 11
153.525
 21
5.67779
 31
0.0
  0
LINE
  8
0
 62
     30
 10
153.525
 20
5.67779
 30
0.0
 11
148.767
 21
5.67779
 31
0.0
  0
LINE
  8
0
 62
     30
 10
148.767
 20
5.67779
 30
0.0
 11
148.767
 21
7.77501
 31
0.0
  0
LINE
  8
0
 62
     30
 10
148.767
 20
7.77501
 30
0.0
 11
150.033
 21
7.78054
 31
0.0
  0
LINE
  8
0
 62
     30
 10
150.033
 20
7.78054
 30
0.0
 11
150.033
 21
13.3306
 31
0.0
  0
LINE
  8
0
 62
     30
 10
150.033
 20
13.3306
 30
0.0
 11
148.767
 21
13.3361
 31
0.0
  0
LINE
  8
0
 62
     30
 10
148.767
 20
13.3361
 30
0.0
 11
148.767
 21
15.4167
 31
0.0
  0
LINE
  8
0
 62
     30
 10
148.767
 20
15.4167
 30
0.0
 11
152.108
 21
15.4167
 31
0.0
  0
LINE
  8
0
 62
     30
 10
152.108
 20
15.4167
 30
0.0
 11
152.081
 21
13.8695
 31
0.0
  0
LINE
  8
0
 62
     7
 10
140.136
 20
11.4361
 30
0.0
 11
140.228
 21
11.6846
 31
0.0
  0
LINE
  8
0
 62
     7
 10
140.228
 20
11.6846
 30
0.0
 11
140.34
 21
11.9258
 31
0.0
  0
LINE
  8
0
 62
     7
 10
140.34
 20
11.9258
 30
0.0
 11
140.469
 21
12.1582
 31
0.0
  0
LINE
  8
0
 62
     7
 10
140.469
 20
12.1582
 30
0.0
 11
140.615
 21
12.3803
 31
0.0
  0
LINE
  8
0
 62
     7
 10
140.615
 20
12.3803
 30
0.0
 11
140.779
 21
12.5906
 31
0.0
  0
LINE
  8
0
 62
     7
 10
140.779
 20
12.5906
 30
0.0
 11
140.957
 21
12.7874
 31
0.0
  0
LINE
  8
0
 62
     7
 10
140.957
 20
12.7874
 30
0.0
 11
141.149
 21
12.9695
 31
0.0
  0
LINE
  8
0
 62
     7
 10
141.149
 20
12.9695
 30
0.0
 11
141.353
 21
13.1351
 31
0.0
  0
LINE
  8
0
 62
     7
 10
141.353
 20
13.1351
 30
0.0
 11
141.571
 21
13.2828
 31
0.0
  0
LINE
  8
0
 62
     7
 10
141.571
 20
13.2828
 30
0.0
 11
141.799
 21
13.411
 31
0.0
  0
LINE
  8
0
 62
     7
 10
141.799
 20
13.411
 30
0.0
 11
142.036
 21
13.5182
 31
0.0
  0
LINE
  8
0
 62
     7
 10
142.036
 20
13.5182
 30
0.0
 11
142.283
 21
13.6029
 31
0.0
  0
LINE
  8
0
 62
     7
 10
142.283
 20
13.6029
 30
0.0
 11
142.539
 21
13.6636
 31
0.0
  0
LINE
  8
0
 62
     7
 10
142.539
 20
13.6636
 30
0.0
 11
142.801
 21
13.6987
 31
0.0
  0
LINE
  8
0
 62
     7
 10
142.801
 20
13.6987
 30
0.0
 11
143.069
 21
13.7067
 31
0.0
  0
LINE
  8
0
 62
     7
 10
143.069
 20
13.7067
 30
0.0
 11
143.342
 21
13.6861
 31
0.0
  0
LINE
  8
0
 62
     7
 10
143.342
 20
13.6861
 30
0.0
 11
143.582
 21
13.6596
 31
0.0
  0
LINE
  8
0
 62
     7
 10
143.582
 20
13.6596
 30
0.0
 11
143.814
 21
13.6132
 31
0.0
  0
LINE
  8
0
 62
     7
 10
143.814
 20
13.6132
 30
0.0
 11
144.04
 21
13.5477
 31
0.0
  0
LINE
  8
0
 62
     7
 10
144.04
 20
13.5477
 30
0.0
 11
144.258
 21
13.4644
 31
0.0
  0
LINE
  8
0
 62
     7
 10
144.258
 20
13.4644
 30
0.0
 11
144.468
 21
13.3642
 31
0.0
  0
LINE
  8
0
 62
     7
 10
144.468
 20
13.3642
 30
0.0
 11
144.668
 21
13.2481
 31
0.0
  0
LINE
  8
0
 62
     7
 10
144.668
 20
13.2481
 30
0.0
 11
144.86
 21
13.1172
 31
0.0
  0
LINE
  8
0
 62
     7
 10
144.86
 20
13.1172
 30
0.0
 11
145.043
 21
12.9726
 31
0.0
  0
LINE
  8
0
 62
     7
 10
145.043
 20
12.9726
 30
0.0
 11
145.215
 21
12.8152
 31
0.0
  0
LINE
  8
0
 62
     7
 10
145.215
 20
12.8152
 30
0.0
 11
145.376
 21
12.6462
 31
0.0
  0
LINE
  8
0
 62
     7
 10
145.376
 20
12.6462
 30
0.0
 11
145.528
 21
12.4665
 31
0.0
  0
LINE
  8
0
 62
     7
 10
145.528
 20
12.4665
 30
0.0
 11
145.668
 21
12.2771
 31
0.0
  0
LINE
  8
0
 62
     7
 10
145.668
 20
12.2771
 30
0.0
 11
145.796
 21
12.0793
 31
0.0
  0
LINE
  8
0
 62
     7
 10
145.796
 20
12.0793
 30
0.0
 11
145.911
 21
11.8738
 31
0.0
  0
LINE
  8
0
 62
     7
 10
145.911
 20
11.8738
 30
0.0
 11
146.015
 21
11.6619
 31
0.0
  0
LINE
  8
0
 62
     7
 10
146.015
 20
11.6619
 30
0.0
 11
146.106
 21
11.4444
 31
0.0
  0
LINE
  8
0
 62
     7
 10
146.106
 20
11.4444
 30
0.0
 11
143.121
 21
11.4194
 31
0.0
  0
LINE
  8
0
 62
     7
 10
143.121
 20
11.4194
 30
0.0
 11
140.136
 21
11.4361
 31
0.0
  0
LINE
  8
0
 62
     7
 10
56.475
 20
13.2306
 30
0.0
 11
56.7703
 21
13.3542
 31
0.0
  0
LINE
  8
0
 62
     7
 10
56.7703
 20
13.3542
 30
0.0
 11
57.0739
 21
13.4386
 31
0.0
  0
LINE
  8
0
 62
     7
 10
57.0739
 20
13.4386
 30
0.0
 11
57.3828
 21
13.4854
 31
0.0
  0
LINE
  8
0
 62
     7
 10
57.3828
 20
13.4854
 30
0.0
 11
57.6939
 21
13.496
 31
0.0
  0
LINE
  8
0
 62
     7
 10
57.6939
 20
13.496
 30
0.0
 11
58.004
 21
13.4721
 31
0.0
  0
LINE
  8
0
 62
     7
 10
58.004
 20
13.4721
 30
0.0
 11
58.3104
 21
13.415
 31
0.0
  0
LINE
  8
0
 62
     7
 10
58.3104
 20
13.415
 30
0.0
 11
58.6097
 21
13.3265
 31
0.0
  0
LINE
  8
0
 62
     7
 10
58.6097
 20
13.3265
 30
0.0
 11
58.8989
 21
13.208
 31
0.0
  0
LINE
  8
0
 62
     7
 10
58.8989
 20
13.208
 30
0.0
 11
59.1751
 21
13.0611
 31
0.0
  0
LINE
  8
0
 62
     7
 10
59.1751
 20
13.0611
 30
0.0
 11
59.435
 21
12.8874
 31
0.0
  0
LINE
  8
0
 62
     7
 10
59.435
 20
12.8874
 30
0.0
 11
59.6757
 21
12.6883
 31
0.0
  0
LINE
  8
0
 62
     7
 10
59.6757
 20
12.6883
 30
0.0
 11
59.8942
 21
12.4653
 31
0.0
  0
LINE
  8
0
 62
     7
 10
59.8942
 20
12.4653
 30
0.0
 11
60.0871
 21
12.2202
 31
0.0
  0
LINE
  8
0
 62
     7
 10
60.0871
 20
12.2202
 30
0.0
 11
60.2517
 21
11.9543
 31
0.0
  0
LINE
  8
0
 62
     7
 10
60.2517
 20
11.9543
 30
0.0
 11
60.3849
 21
11.6693
 31
0.0
  0
LINE
  8
0
 62
     7
 10
60.3849
 20
11.6693
 30
0.0
 11
60.4833
 21
11.3666
 31
0.0
  0
LINE
  8
0
 62
     7
 10
60.4833
 20
11.3666
 30
0.0
 11
60.5585
 21
11.0737
 31
0.0
  0
LINE
  8
0
 62
     7
 10
60.5585
 20
11.0737
 30
0.0
 11
60.5985
 21
10.7777
 31
0.0
  0
LINE
  8
0
 62
     7
 10
60.5985
 20
10.7777
 30
0.0
 11
60.6049
 21
10.4811
 31
0.0
  0
LINE
  8
0
 62
     7
 10
60.6049
 20
10.4811
 30
0.0
 11
60.5793
 21
10.1864
 31
0.0
  0
LINE
  8
0
 62
     7
 10
60.5793
 20
10.1864
 30
0.0
 11
60.5232
 21
9.89621
 31
0.0
  0
LINE
  8
0
 62
     7
 10
60.5232
 20
9.89621
 30
0.0
 11
60.4381
 21
9.61285
 31
0.0
  0
LINE
  8
0
 62
     7
 10
60.4381
 20
9.61285
 30
0.0
 11
60.3254
 21
9.33886
 31
0.0
  0
LINE
  8
0
 62
     7
 10
60.3254
 20
9.33886
 30
0.0
 11
60.1868
 21
9.07676
 31
0.0
  0
LINE
  8
0
 62
     7
 10
60.1868
 20
9.07676
 30
0.0
 11
60.0237
 21
8.829
 31
0.0
  0
LINE
  8
0
 62
     7
 10
60.0237
 20
8.829
 30
0.0
 11
59.8379
 21
8.59808
 31
0.0
  0
LINE
  8
0
 62
     7
 10
59.8379
 20
8.59808
 30
0.0
 11
59.6307
 21
8.38656
 31
0.0
  0
LINE
  8
0
 62
     7
 10
59.6307
 20
8.38656
 30
0.0
 11
59.4036
 21
8.19678
 31
0.0
  0
LINE
  8
0
 62
     7
 10
59.4036
 20
8.19678
 30
0.0
 11
59.1583
 21
8.03131
 31
0.0
  0
LINE
  8
0
 62
     7
 10
59.1583
 20
8.03131
 30
0.0
 11
58.8961
 21
7.89264
 31
0.0
  0
LINE
  8
0
 62
     7
 10
58.8961
 20
7.89264
 30
0.0
 11
58.6187
 21
7.78326
 31
0.0
  0
LINE
  8
0
 62
     7
 10
58.6187
 20
7.78326
 30
0.0
 11
58.3278
 21
7.70557
 31
0.0
  0
LINE
  8
0
 62
     7
 10
58.3278
 20
7.70557
 30
0.0
 11
58.0322
 21
7.64615
 31
0.0
  0
LINE
  8
0
 62
     7
 10
58.0322
 20
7.64615
 30
0.0
 11
57.7354
 21
7.62185
 31
0.0
  0
LINE
  8
0
 62
     7
 10
57.7354
 20
7.62185
 30
0.0
 11
57.4401
 21
7.63108
 31
0.0
  0
LINE
  8
0
 62
     7
 10
57.4401
 20
7.63108
 30
0.0
 11
57.1483
 21
7.67215
 31
0.0
  0
LINE
  8
0
 62
     7
 10
57.1483
 20
7.67215
 30
0.0
 11
56.8626
 21
7.74343
 31
0.0
  0
LINE
  8
0
 62
     7
 10
56.8626
 20
7.74343
 30
0.0
 11
56.5853
 21
7.84315
 31
0.0
  0
LINE
  8
0
 62
     7
 10
56.5853
 20
7.84315
 30
0.0
 11
56.3187
 21
7.96978
 31
0.0
  0
LINE
  8
0
 62
     7
 10
56.3187
 20
7.96978
 30
0.0
 11
56.0653
 21
8.12153
 31
0.0
  0
LINE
  8
0
 62
     7
 10
56.0653
 20
8.12153
 30
0.0
 11
55.8274
 21
8.29682
 31
0.0
  0
LINE
  8
0
 62
     7
 10
55.8274
 20
8.29682
 30
0.0
 11
55.6072
 21
8.49392
 31
0.0
  0
LINE
  8
0
 62
     7
 10
55.6072
 20
8.49392
 30
0.0
 11
55.4074
 21
8.71121
 31
0.0
  0
LINE
  8
0
 62
     7
 10
55.4074
 20
8.71121
 30
0.0
 11
55.2301
 21
8.947
 31
0.0
  0
LINE
  8
0
 62
     7
 10
55.2301
 20
8.947
 30
0.0
 11
55.0778
 21
9.1996
 31
0.0
  0
LINE
  8
0
 62
     7
 10
55.0778
 20
9.1996
 30
0.0
 11
54.9529
 21
9.46733
 31
0.0
  0
LINE
  8
0
 62
     7
 10
54.9529
 20
9.46733
 30
0.0
 11
54.8576
 21
9.74858
 31
0.0
  0
LINE
  8
0
 62
     7
 10
54.8576
 20
9.74858
 30
0.0
 11
54.7944
 21
10.0417
 31
0.0
  0
LINE
  8
0
 62
     7
 10
54.7944
 20
10.0417
 30
0.0
 11
54.7575
 21
10.2837
 31
0.0
  0
LINE
  8
0
 62
     7
 10
54.7575
 20
10.2837
 30
0.0
 11
54.7433
 21
10.5266
 31
0.0
  0
LINE
  8
0
 62
     7
 10
54.7433
 20
10.5266
 30
0.0
 11
54.751
 21
10.7688
 31
0.0
  0
LINE
  8
0
 62
     7
 10
54.751
 20
10.7688
 30
0.0
 11
54.7797
 21
11.0091
 31
0.0
  0
LINE
  8
0
 62
     7
 10
54.7797
 20
11.0091
 30
0.0
 11
54.8286
 21
11.246
 31
0.0
  0
LINE
  8
0
 62
     7
 10
54.8286
 20
11.246
 30
0.0
 11
54.8969
 21
11.4782
 31
0.0
  0
LINE
  8
0
 62
     7
 10
54.8969
 20
11.4782
 30
0.0
 11
54.984
 21
11.7042
 31
0.0
  0
LINE
  8
0
 62
     7
 10
54.984
 20
11.7042
 30
0.0
 11
55.0889
 21
11.9226
 31
0.0
  0
LINE
  8
0
 62
     7
 10
55.0889
 20
11.9226
 30
0.0
 11
55.2108
 21
12.1321
 31
0.0
  0
LINE
  8
0
 62
     7
 10
55.2108
 20
12.1321
 30
0.0
 11
55.349
 21
12.3312
 31
0.0
  0
LINE
  8
0
 62
     7
 10
55.349
 20
12.3312
 30
0.0
 11
55.5026
 21
12.5186
 31
0.0
  0
LINE
  8
0
 62
     7
 10
55.5026
 20
12.5186
 30
0.0
 11
55.671
 21
12.6929
 31
0.0
  0
LINE
  8
0
 62
     7
 10
55.671
 20
12.6929
 30
0.0
 11
55.8532
 21
12.8526
 31
0.0
  0
LINE
  8
0
 62
     7
 10
55.8532
 20
12.8526
 30
0.0
 11
56.0485
 21
12.9964
 31
0.0
  0
LINE
  8
0
 62
     7
 10
56.0485
 20
12.9964
 30
0.0
 11
56.256
 21
13.1229
 31
0.0
  0
LINE
  8
0
 62
     7
 10
56.256
 20
13.1229
 30
0.0
 11
56.475
 21
13.2306
 31
0.0
  0
LINE
  8
0
 62
     7
 10
73.1444
 20
13.2528
 30
0.0
 11
73.4737
 21
13.3818
 31
0.0
  0
LINE
  8
0
 62
     7
 10
73.4737
 20
13.3818
 30
0.0
 11
73.8111
 21
13.4621
 31
0.0
  0
LINE
  8
0
 62
     7
 10
73.8111
 20
13.4621
 30
0.0
 11
74.1526
 21
13.496
 31
0.0
  0
LINE
  8
0
 62
     7
 10
74.1526
 20
13.496
 30
0.0
 11
74.4943
 21
13.4861
 31
0.0
  0
LINE
  8
0
 62
     7
 10
74.4943
 20
13.4861
 30
0.0
 11
74.8324
 21
13.4346
 31
0.0
  0
LINE
  8
0
 62
     7
 10
74.8324
 20
13.4346
 30
0.0
 11
75.1629
 21
13.3439
 31
0.0
  0
LINE
  8
0
 62
     7
 10
75.1629
 20
13.3439
 30
0.0
 11
75.4819
 21
13.2164
 31
0.0
  0
LINE
  8
0
 62
     7
 10
75.4819
 20
13.2164
 30
0.0
 11
75.7854
 21
13.0545
 31
0.0
  0
LINE
  8
0
 62
     7
 10
75.7854
 20
13.0545
 30
0.0
 11
76.0696
 21
12.8607
 31
0.0
  0
LINE
  8
0
 62
     7
 10
76.0696
 20
12.8607
 30
0.0
 11
76.3306
 21
12.6372
 31
0.0
  0
LINE
  8
0
 62
     7
 10
76.3306
 20
12.6372
 30
0.0
 11
76.5643
 21
12.3866
 31
0.0
  0
LINE
  8
0
 62
     7
 10
76.5643
 20
12.3866
 30
0.0
 11
76.7671
 21
12.111
 31
0.0
  0
LINE
  8
0
 62
     7
 10
76.7671
 20
12.111
 30
0.0
 11
76.9347
 21
11.813
 31
0.0
  0
LINE
  8
0
 62
     7
 10
76.9347
 20
11.813
 30
0.0
 11
77.0636
 21
11.495
 31
0.0
  0
LINE
  8
0
 62
     7
 10
77.0636
 20
11.495
 30
0.0
 11
77.1496
 21
11.1593
 31
0.0
  0
LINE
  8
0
 62
     7
 10
77.1496
 20
11.1593
 30
0.0
 11
77.1889
 21
10.8083
 31
0.0
  0
LINE
  8
0
 62
     7
 10
77.1889
 20
10.8083
 30
0.0
 11
77.2021
 21
10.4944
 31
0.0
  0
LINE
  8
0
 62
     7
 10
77.2021
 20
10.4944
 30
0.0
 11
77.1786
 21
10.1842
 31
0.0
  0
LINE
  8
0
 62
     7
 10
77.1786
 20
10.1842
 30
0.0
 11
77.1203
 21
9.88043
 31
0.0
  0
LINE
  8
0
 62
     7
 10
77.1203
 20
9.88043
 30
0.0
 11
77.0296
 21
9.58529
 31
0.0
  0
LINE
  8
0
 62
     7
 10
77.0296
 20
9.58529
 30
0.0
 11
76.9085
 21
9.30132
 31
0.0
  0
LINE
  8
0
 62
     7
 10
76.9085
 20
9.30132
 30
0.0
 11
76.759
 21
9.03097
 31
0.0
  0
LINE
  8
0
 62
     7
 10
76.759
 20
9.03097
 30
0.0
 11
76.5833
 21
8.77658
 31
0.0
  0
LINE
  8
0
 62
     7
 10
76.5833
 20
8.77658
 30
0.0
 11
76.3836
 21
8.54064
 31
0.0
  0
LINE
  8
0
 62
     7
 10
76.3836
 20
8.54064
 30
0.0
 11
76.1619
 21
8.32557
 31
0.0
  0
LINE
  8
0
 62
     7
 10
76.1619
 20
8.32557
 30
0.0
 11
75.9204
 21
8.13379
 31
0.0
  0
LINE
  8
0
 62
     7
 10
75.9204
 20
8.13379
 30
0.0
 11
75.6611
 21
7.96778
 31
0.0
  0
LINE
  8
0
 62
     7
 10
75.6611
 20
7.96778
 30
0.0
 11
75.3861
 21
7.82986
 31
0.0
  0
LINE
  8
0
 62
     7
 10
75.3861
 20
7.82986
 30
0.0
 11
75.0976
 21
7.72254
 31
0.0
  0
LINE
  8
0
 62
     7
 10
75.0976
 20
7.72254
 30
0.0
 11
74.7978
 21
7.64822
 31
0.0
  0
LINE
  8
0
 62
     7
 10
74.7978
 20
7.64822
 30
0.0
 11
74.4886
 21
7.60938
 31
0.0
  0
LINE
  8
0
 62
     7
 10
74.4886
 20
7.60938
 30
0.0
 11
74.1722
 21
7.60835
 31
0.0
  0
LINE
  8
0
 62
     7
 10
74.1722
 20
7.60835
 30
0.0
 11
73.8501
 21
7.63058
 31
0.0
  0
LINE
  8
0
 62
     7
 10
73.8501
 20
7.63058
 30
0.0
 11
73.5375
 21
7.69222
 31
0.0
  0
LINE
  8
0
 62
     7
 10
73.5375
 20
7.69222
 30
0.0
 11
73.2368
 21
7.79053
 31
0.0
  0
LINE
  8
0
 62
     7
 10
73.2368
 20
7.79053
 30
0.0
 11
72.95
 21
7.92264
 31
0.0
  0
LINE
  8
0
 62
     7
 10
72.95
 20
7.92264
 30
0.0
 11
72.6796
 21
8.08578
 31
0.0
  0
LINE
  8
0
 62
     7
 10
72.6796
 20
8.08578
 30
0.0
 11
72.4276
 21
8.27707
 31
0.0
  0
LINE
  8
0
 62
     7
 10
72.4276
 20
8.27707
 30
0.0
 11
72.1965
 21
8.49376
 31
0.0
  0
LINE
  8
0
 62
     7
 10
72.1965
 20
8.49376
 30
0.0
 11
71.9885
 21
8.73301
 31
0.0
  0
LINE
  8
0
 62
     7
 10
71.9885
 20
8.73301
 30
0.0
 11
71.8058
 21
8.99203
 31
0.0
  0
LINE
  8
0
 62
     7
 10
71.8058
 20
8.99203
 30
0.0
 11
71.6508
 21
9.26801
 31
0.0
  0
LINE
  8
0
 62
     7
 10
71.6508
 20
9.26801
 30
0.0
 11
71.5257
 21
9.55811
 31
0.0
  0
LINE
  8
0
 62
     7
 10
71.5257
 20
9.55811
 30
0.0
 11
71.4328
 21
9.85954
 31
0.0
  0
LINE
  8
0
 62
     7
 10
71.4328
 20
9.85954
 30
0.0
 11
71.3742
 21
10.1695
 31
0.0
  0
LINE
  8
0
 62
     7
 10
71.3742
 20
10.1695
 30
0.0
 11
71.3524
 21
10.4851
 31
0.0
  0
LINE
  8
0
 62
     7
 10
71.3524
 20
10.4851
 30
0.0
 11
71.3694
 21
10.8037
 31
0.0
  0
LINE
  8
0
 62
     7
 10
71.3694
 20
10.8037
 30
0.0
 11
71.4278
 21
11.1222
 31
0.0
  0
LINE
  8
0
 62
     7
 10
71.4278
 20
11.1222
 30
0.0
 11
71.519
 21
11.4657
 31
0.0
  0
LINE
  8
0
 62
     7
 10
71.519
 20
11.4657
 30
0.0
 11
71.6515
 21
11.7954
 31
0.0
  0
LINE
  8
0
 62
     7
 10
71.6515
 20
11.7954
 30
0.0
 11
71.8219
 21
12.1072
 31
0.0
  0
LINE
  8
0
 62
     7
 10
71.8219
 20
12.1072
 30
0.0
 11
72.0278
 21
12.3969
 31
0.0
  0
LINE
  8
0
 62
     7
 10
72.0278
 20
12.3969
 30
0.0
 11
72.2658
 21
12.6605
 31
0.0
  0
LINE
  8
0
 62
     7
 10
72.2658
 20
12.6605
 30
0.0
 11
72.5332
 21
12.8937
 31
0.0
  0
LINE
  8
0
 62
     7
 10
72.5332
 20
12.8937
 30
0.0
 11
72.8271
 21
13.0926
 31
0.0
  0
LINE
  8
0
 62
     7
 10
72.8271
 20
13.0926
 30
0.0
 11
73.1444
 21
13.2528
 31
0.0
  0
LINE
  8
0
 62
     7
 10
108.969
 20
13.2333
 30
0.0
 11
109.264
 21
13.3547
 31
0.0
  0
LINE
  8
0
 62
     7
 10
109.264
 20
13.3547
 30
0.0
 11
109.566
 21
13.4372
 31
0.0
  0
LINE
  8
0
 62
     7
 10
109.566
 20
13.4372
 30
0.0
 11
109.874
 21
13.4825
 31
0.0
  0
LINE
  8
0
 62
     7
 10
109.874
 20
13.4825
 30
0.0
 11
110.183
 21
13.4922
 31
0.0
  0
LINE
  8
0
 62
     7
 10
110.183
 20
13.4922
 30
0.0
 11
110.492
 21
13.4676
 31
0.0
  0
LINE
  8
0
 62
     7
 10
110.492
 20
13.4676
 30
0.0
 11
110.797
 21
13.4104
 31
0.0
  0
LINE
  8
0
 62
     7
 10
110.797
 20
13.4104
 30
0.0
 11
111.095
 21
13.3219
 31
0.0
  0
LINE
  8
0
 62
     7
 10
111.095
 20
13.3219
 30
0.0
 11
111.383
 21
13.2038
 31
0.0
  0
LINE
  8
0
 62
     7
 10
111.383
 20
13.2038
 30
0.0
 11
111.658
 21
13.0576
 31
0.0
  0
LINE
  8
0
 62
     7
 10
111.658
 20
13.0576
 30
0.0
 11
111.917
 21
12.8847
 31
0.0
  0
LINE
  8
0
 62
     7
 10
111.917
 20
12.8847
 30
0.0
 11
112.156
 21
12.6867
 31
0.0
  0
LINE
  8
0
 62
     7
 10
112.156
 20
12.6867
 30
0.0
 11
112.374
 21
12.465
 31
0.0
  0
LINE
  8
0
 62
     7
 10
112.374
 20
12.465
 30
0.0
 11
112.566
 21
12.2212
 31
0.0
  0
LINE
  8
0
 62
     7
 10
112.566
 20
12.2212
 30
0.0
 11
112.73
 21
11.9568
 31
0.0
  0
LINE
  8
0
 62
     7
 10
112.73
 20
11.9568
 30
0.0
 11
112.863
 21
11.6733
 31
0.0
  0
LINE
  8
0
 62
     7
 10
112.863
 20
11.6733
 30
0.0
 11
112.961
 21
11.3722
 31
0.0
  0
LINE
  8
0
 62
     7
 10
112.961
 20
11.3722
 30
0.0
 11
113.036
 21
11.062
 31
0.0
  0
LINE
  8
0
 62
     7
 10
113.036
 20
11.062
 30
0.0
 11
113.072
 21
10.7486
 31
0.0
  0
LINE
  8
0
 62
     7
 10
113.072
 20
10.7486
 30
0.0
 11
113.071
 21
10.435
 31
0.0
  0
LINE
  8
0
 62
     7
 10
113.071
 20
10.435
 30
0.0
 11
113.036
 21
10.1241
 31
0.0
  0
LINE
  8
0
 62
     7
 10
113.036
 20
10.1241
 30
0.0
 11
112.967
 21
9.81862
 31
0.0
  0
LINE
  8
0
 62
     7
 10
112.967
 20
9.81862
 30
0.0
 11
112.868
 21
9.5216
 31
0.0
  0
LINE
  8
0
 62
     7
 10
112.868
 20
9.5216
 30
0.0
 11
112.738
 21
9.23574
 31
0.0
  0
LINE
  8
0
 62
     7
 10
112.738
 20
9.23574
 30
0.0
 11
112.581
 21
8.96392
 31
0.0
  0
LINE
  8
0
 62
     7
 10
112.581
 20
8.96392
 30
0.0
 11
112.398
 21
8.70904
 31
0.0
  0
LINE
  8
0
 62
     7
 10
112.398
 20
8.70904
 30
0.0
 11
112.191
 21
8.47396
 31
0.0
  0
LINE
  8
0
 62
     7
 10
112.191
 20
8.47396
 30
0.0
 11
111.961
 21
8.26156
 31
0.0
  0
LINE
  8
0
 62
     7
 10
111.961
 20
8.26156
 30
0.0
 11
111.711
 21
8.0746
 31
0.0
  0
LINE
  8
0
 62
     7
 10
111.711
 20
8.0746
 30
0.0
 11
111.442
 21
7.91601
 31
0.0
  0
LINE
  8
0
 62
     7
 10
111.442
 20
7.91601
 30
0.0
 11
111.156
 21
7.78863
 31
0.0
  0
LINE
  8
0
 62
     7
 10
111.156
 20
7.78863
 30
0.0
 11
110.854
 21
7.69531
 31
0.0
  0
LINE
  8
0
 62
     7
 10
110.854
 20
7.69531
 30
0.0
 11
110.539
 21
7.63889
 31
0.0
  0
LINE
  8
0
 62
     7
 10
110.539
 20
7.63889
 30
0.0
 11
110.243
 21
7.60542
 31
0.0
  0
LINE
  8
0
 62
     7
 10
110.243
 20
7.60542
 30
0.0
 11
109.948
 21
7.60688
 31
0.0
  0
LINE
  8
0
 62
     7
 10
109.948
 20
7.60688
 30
0.0
 11
109.657
 21
7.64139
 31
0.0
  0
LINE
  8
0
 62
     7
 10
109.657
 20
7.64139
 30
0.0
 11
109.372
 21
7.70703
 31
0.0
  0
LINE
  8
0
 62
     7
 10
109.372
 20
7.70703
 30
0.0
 11
109.096
 21
7.80208
 31
0.0
  0
LINE
  8
0
 62
     7
 10
109.096
 20
7.80208
 30
0.0
 11
108.83
 21
7.92453
 31
0.0
  0
LINE
  8
0
 62
     7
 10
108.83
 20
7.92453
 30
0.0
 11
108.578
 21
8.07264
 31
0.0
  0
LINE
  8
0
 62
     7
 10
108.578
 20
8.07264
 30
0.0
 11
108.34
 21
8.24447
 31
0.0
  0
LINE
  8
0
 62
     7
 10
108.34
 20
8.24447
 30
0.0
 11
108.119
 21
8.43815
 31
0.0
  0
LINE
  8
0
 62
     7
 10
108.119
 20
8.43815
 30
0.0
 11
107.918
 21
8.65186
 31
0.0
  0
LINE
  8
0
 62
     7
 10
107.918
 20
8.65186
 30
0.0
 11
107.738
 21
8.88374
 31
0.0
  0
LINE
  8
0
 62
     7
 10
107.738
 20
8.88374
 30
0.0
 11
107.583
 21
9.13189
 31
0.0
  0
LINE
  8
0
 62
     7
 10
107.583
 20
9.13189
 30
0.0
 11
107.453
 21
9.39442
 31
0.0
  0
LINE
  8
0
 62
     7
 10
107.453
 20
9.39442
 30
0.0
 11
107.352
 21
9.66954
 31
0.0
  0
LINE
  8
0
 62
     7
 10
107.352
 20
9.66954
 30
0.0
 11
107.282
 21
9.9554
 31
0.0
  0
LINE
  8
0
 62
     7
 10
107.282
 20
9.9554
 30
0.0
 11
107.244
 21
10.25
 31
0.0
  0
LINE
  8
0
 62
     7
 10
107.244
 20
10.25
 30
0.0
 11
107.231
 21
10.4799
 31
0.0
  0
LINE
  8
0
 62
     7
 10
107.231
 20
10.4799
 30
0.0
 11
107.237
 21
10.7095
 31
0.0
  0
LINE
  8
0
 62
     7
 10
107.237
 20
10.7095
 30
0.0
 11
107.261
 21
10.9376
 31
0.0
  0
LINE
  8
0
 62
     7
 10
107.261
 20
10.9376
 30
0.0
 11
107.303
 21
11.163
 31
0.0
  0
LINE
  8
0
 62
     7
 10
107.303
 20
11.163
 30
0.0
 11
107.363
 21
11.3846
 31
0.0
  0
LINE
  8
0
 62
     7
 10
107.363
 20
11.3846
 30
0.0
 11
107.438
 21
11.6012
 31
0.0
  0
LINE
  8
0
 62
     7
 10
107.438
 20
11.6012
 30
0.0
 11
107.53
 21
11.8116
 31
0.0
  0
LINE
  8
0
 62
     7
 10
107.53
 20
11.8116
 30
0.0
 11
107.637
 21
12.0146
 31
0.0
  0
LINE
  8
0
 62
     7
 10
107.637
 20
12.0146
 30
0.0
 11
107.759
 21
12.2091
 31
0.0
  0
LINE
  8
0
 62
     7
 10
107.759
 20
12.2091
 30
0.0
 11
107.895
 21
12.3939
 31
0.0
  0
LINE
  8
0
 62
     7
 10
107.895
 20
12.3939
 30
0.0
 11
108.044
 21
12.5678
 31
0.0
  0
LINE
  8
0
 62
     7
 10
108.044
 20
12.5678
 30
0.0
 11
108.206
 21
12.7297
 31
0.0
  0
LINE
  8
0
 62
     7
 10
108.206
 20
12.7297
 30
0.0
 11
108.38
 21
12.8784
 31
0.0
  0
LINE
  8
0
 62
     7
 10
108.38
 20
12.8784
 30
0.0
 11
108.566
 21
13.0126
 31
0.0
  0
LINE
  8
0
 62
     7
 10
108.566
 20
13.0126
 30
0.0
 11
108.762
 21
13.1314
 31
0.0
  0
LINE
  8
0
 62
     7
 10
108.762
 20
13.1314
 30
0.0
 11
108.969
 21
13.2333
 31
0.0
  0
LINE
  8
0
 62
     30
 10
7.59722
 20
12.0639
 30
0.0
 11
10.2778
 21
12.0611
 31
0.0
  0
LINE
  8
0
 62
     30
 10
10.2778
 20
12.0611
 30
0.0
 11
10.8556
 21
10.8417
 31
0.0
  0
LINE
  8
0
 62
     30
 10
10.8556
 20
10.8417
 30
0.0
 11
9.57601
 21
8.60351
 31
0.0
  0
LINE
  8
0
 62
     30
 10
9.57601
 20
8.60351
 30
0.0
 11
8.28614
 21
6.36947
 31
0.0
  0
LINE
  8
0
 62
     30
 10
8.28614
 20
6.36947
 30
0.0
 11
5.30832
 21
8.09446
 31
0.0
  0
LINE
  8
0
 62
     30
 10
5.30832
 20
8.09446
 30
0.0
 11
7.59722
 21
12.0639
 31
0.0
  0
LINE
  8
0
 62
     30
 10
13.3
 20
10.625
 30
0.0
 11
14.0778
 21
11.7472
 31
0.0
  0
LINE
  8
0
 62
     30
 10
14.0778
 20
11.7472
 30
0.0
 11
16.6482
 21
11.7542
 31
0.0
  0
LINE
  8
0
 62
     30
 10
16.6482
 20
11.7542
 30
0.0
 11
19.2167
 21
11.7528
 31
0.0
  0
LINE
  8
0
 62
     30
 10
19.2167
 20
11.7528
 30
0.0
 11
19.2167
 21
8.31668
 31
0.0
  0
LINE
  8
0
 62
     30
 10
19.2167
 20
8.31668
 30
0.0
 11
14.6333
 21
8.31392
 31
0.0
  0
LINE
  8
0
 62
     30
 10
14.6333
 20
8.31392
 30
0.0
 11
13.9636
 21
9.46843
 31
0.0
  0
LINE
  8
0
 62
     30
 10
13.9636
 20
9.46843
 30
0.0
 11
13.3
 21
10.625
 31
0.0
  0
LINE
  8
0
 62
     30
 10
11.3834
 20
10.4833
 30
0.0
 11
12.7306
 21
10.3556
 31
0.0
  0
LINE
  8
0
 62
     30
 10
12.7306
 20
10.3556
 30
0.0
 11
14.0222
 21
8.13092
 31
0.0
  0
LINE
  8
0
 62
     30
 10
14.0222
 20
8.13092
 30
0.0
 11
15.3056
 21
5.90001
 31
0.0
  0
LINE
  8
0
 62
     30
 10
15.3056
 20
5.90001
 30
0.0
 11
12.3278
 21
4.17779
 31
0.0
  0
LINE
  8
0
 62
     30
 10
12.3278
 20
4.17779
 30
0.0
 11
11.1774
 21
6.16878
 31
0.0
  0
LINE
  8
0
 62
     30
 10
11.1774
 20
6.16878
 30
0.0
 11
10.0333
 21
8.1639
 31
0.0
  0
LINE
  8
0
 62
     30
 10
10.0333
 20
8.1639
 30
0.0
 11
11.3834
 21
10.4833
 31
0.0
  0
ENDSEC
  0
EOF
